<?xml version="1.0" encoding="utf-8"?>
<!-- Generator: Adobe Illustrator 23.0.1, SVG Export Plug-In . SVG Version: 6.00 Build 0)  -->
<svg version="1.1" id="_x2018_ëîé_x5F_1" xmlns="http://www.w3.org/2000/svg" xmlns:xlink="http://www.w3.org/1999/xlink"
	 x="0px" y="0px" viewBox="0 0 2935.15 1665.33" style="enable-background:new 0 0 2935.15 1665.33;" xml:space="preserve">
<style type="text/css">
	.st0{fill:#DCEAFF;}
	.st1{opacity:0.5;fill:#9BCC8F;}
	.st2{fill:#F2CCAA;}
	.st3{fill:#F9DDBF;}
	.st4{fill:#DDAF8A;}
	.st5{fill:#FFF2E6;}
	.st6{fill:#FFFFFF;}
	.st7{fill:#ED7D2B;}
	.st8{fill:#F49540;}
	.st9{fill:#DBA579;}
	.st10{fill:#F7E6D7;}
	.st11{fill:#F4DDCB;}
	.st12{fill:#9BCC8F;}
	.st13{fill:#A8D29F;}
	.st14{fill:#FFB27D;}
	.st15{fill:#BC3F3F;}
	.st16{fill:#233862;}
	.st17{fill:#ED985F;}
	.st18{fill:#2C3A64;}
	.st19{fill:#2B478B;}
	.st20{fill:#F99746;}
	.st21{fill:#E8945B;}
	.st22{fill:#ECF3FE;}
	.st23{fill:#E58638;}
	.st24{fill:#D36C26;}
	.st25{fill:#D37129;}
	.st26{opacity:0.4;fill:#D86713;}
	.st27{fill:#D86713;}
	.st28{fill:#B64C41;}
	.st29{fill:#1C468A;}
	.st30{fill:#F8FCFF;}
	.st31{opacity:0.5;fill:#F8FCFF;}
	.st32{fill:#82B378;}
	.st33{fill:#D36D1A;}
	.st34{fill:#FFA255;}
	.st35{fill:#A53D38;}
	.st36{fill:#EF9E67;}
	.st37{fill:#FFB93E;}
	.st38{fill:#FFA412;}
	.st39{fill:#163560;}
	.st40{fill:#466AA5;}
	.st41{fill:#EE9849;}
	.st42{fill:#D17A33;}
	.st43{fill:#D2E4FF;}
	.st44{fill:#912F2F;}
	.st45{fill:#578E9B;}
	.st46{fill:#74ACBE;}
	.st47{fill:#EBF3FA;}
	.st48{fill:#B5453C;}
	.st49{fill:#F4A269;}
	.st50{fill:#C65447;}
	.st51{fill:#265CAA;}
	.st52{fill:#1650A5;}
	.st53{fill:#EFDECE;}
	.st54{fill:#FCECDB;}
	.st55{fill:#DD6D22;}
	.st56{fill:#9E332E;}
	.st57{fill:#182E51;}
	.st58{fill:#73A567;}
	.st59{fill:#235187;}
	.st60{fill:#17467F;}
	.st61{fill:#0C2442;}
</style>
<g>
	<path class="st0" d="M2910.22,1531.03c-2.01,8.53-4.28,17.31-6.79,26.09c-2.26,8.8-5.26,18.09-8.53,27.38
		c-1.51,4.51-332.41,80.83-332.41,80.83l-87.36-0.24h-782.3l-228.46-0.26H862.09l-251.57-0.24H240.77
		c-51.8,0-97.94-32.87-114.81-81.86c-1.45-4.2-2.79-8.17-3.99-11.79c-6.9-21.38-14.49-45.92-22.22-73.04
		c-3.8-13.3-7.63-27.23-11.43-41.7c-3.73-14.3-7.45-29.12-11.04-44.44c-0.77-3.23-1.52-6.5-2.27-9.78
		c-0.36-1.57-0.72-3.15-1.09-4.73c-0.01-0.03-0.01-0.06-0.02-0.09c-2.88-12.6-5.74-25.73-8.43-38.87
		c-11.24-54.19-20.77-112.49-26.39-172.3c-4.68-49.65-6.67-100.34-4.74-150.56c0.5-11.81,1.26-23.6,2.01-35.4
		c2.01-25.11,5.02-50.21,9.3-74.56c2.75-16.57,6.27-33.14,10.28-49.21c9.8-39.42,23.1-77.07,40.67-112.72
		c6.29-12.3,12.81-24.35,20.09-36.15c16.32-26.87,32.89-51.98,49.72-75.58h0.24c8.8-12.55,17.58-24.34,26.37-35.65
		c32.88-42.67,66.28-79.33,99.92-110.96c412.98-386.37,886.47-13.56,1179.47-272.9c286.45-253.31,822.46-257.09,1062.22-23.34
		c4.52,4.51,9.29,9.03,13.8,14.05c19.5,20.68,36.76,43.12,51.41,67.28c6.81,11.19,13.06,22.75,18.72,34.69
		c34.4,72.56,47.12,158.79,30.61,258.47c-3.15,19.05-7.38,38.59-12.73,58.63c-0.12,0.48-0.25,0.97-0.38,1.45
		c-10.37,38.18-24.72,77.92-43.48,119.82c-1.22,2.73-2.46,5.47-3.72,8.22c-2.01,4.27-4.02,8.54-6.03,12.81
		c-46.94,98.19-32.55,168.17,9.75,227.56c16.74,23.52,37.87,45.38,61.3,66.67c50.96,46.45,112.48,90.13,163.69,142.35
		c6.77,7.03,13.3,14.06,19.83,21.35c2.69,3.12,5.35,6.26,7.97,9.43c6.64,8.03,13.02,16.24,19.14,24.71c0.35,0.5,0.71,1,1.05,1.51
		c23.98,34.28,41.98,72.67,49.97,117.37c0.12,0.61,0.22,1.22,0.33,1.83c0,0.03,0.01,0.06,0.01,0.09
		C2922.61,1436.51,2921.63,1480.61,2910.22,1531.03z"/>
	<path class="st1" d="M870.87,964.23c0,0-151.84-19.49-210.47,35.62c-58.62,55.11-28.01,122.6-119.55,120.08
		c-91.54-2.52-143.95,130.82-149.04,204.32c-5.09,73.5,28.57,81.95,28.57,81.95h471.48L870.87,964.23z"/>
	<g>
		<path class="st2" d="M2875.17,1395.99H872.75V642.08h1763.69c-0.12,0.48-0.25,0.97-0.38,1.45
			c-10.37,38.18-24.72,77.92-43.48,119.82c-1.22,2.73-2.46,5.47-3.72,8.22c-2.01,4.27-4.02,8.54-6.03,12.81
			c-46.94,98.19-32.55,168.17,9.75,227.56c16.74,23.52,37.87,45.38,61.3,66.67c50.96,46.45,112.48,90.13,163.69,142.35
			c6.77,7.03,13.3,14.06,19.83,21.35c2.69,3.12,5.35,6.26,7.97,9.43c6.64,8.03,13.02,16.24,19.14,24.71c0.35,0.5,0.71,1,1.05,1.51
			L2875.17,1395.99z"/>
		<rect x="1123.18" y="642.08" class="st3" width="203.94" height="734.57"/>
		<rect x="853.34" y="1292.25" class="st4" width="1971.66" height="105.59"/>
		<path class="st3" d="M2582.83,784.38c-46.94,98.19-32.55,168.17,9.75,227.56v364.71h-203.95V642.08h203.95v121.27
			c-1.22,2.73-2.46,5.47-3.72,8.22C2586.85,775.84,2584.84,780.11,2582.83,784.38z"/>
		<rect x="1586.2" y="537.97" class="st3" width="487.32" height="849.49"/>
		<g>
			<rect x="1443.49" y="1022.12" class="st5" width="68.24" height="24.16"/>
			<rect x="1458.8" y="1046.28" class="st5" width="37.62" height="349.71"/>
			<path class="st4" d="M1458.8,1062.07c0,0,5.55-10.35,18.81-9.86c14.43,0.53,18.81,9.86,18.81,9.86v-15.79h-37.62V1062.07z"/>
			<rect x="1443.49" y="1022.09" class="st4" width="68.24" height="4.21"/>
		</g>
		<g>
			<rect x="1635.18" y="1022.12" class="st5" width="68.24" height="24.16"/>
			<rect x="1650.49" y="1046.28" class="st5" width="37.62" height="349.71"/>
			<path class="st4" d="M1650.49,1062.07c0,0,5.55-10.35,18.81-9.86c14.43,0.53,18.81,9.86,18.81,9.86v-15.79h-37.62V1062.07z"/>
			<rect x="1635.18" y="1022.09" class="st4" width="68.24" height="4.21"/>
		</g>
		<g>
			<rect x="1962.14" y="1022.12" class="st5" width="68.24" height="24.16"/>
			<rect x="1977.45" y="1046.28" class="st5" width="37.62" height="349.71"/>
			<path class="st4" d="M1977.45,1062.07c0,0,5.55-10.35,18.81-9.86c14.43,0.53,18.81,9.86,18.81,9.86v-15.79h-37.62V1062.07z"/>
			<rect x="1962.14" y="1022.09" class="st4" width="68.24" height="4.21"/>
		</g>
		<g>
			<rect x="2173.7" y="1022.12" class="st5" width="68.24" height="24.16"/>
			<rect x="2189.01" y="1046.28" class="st5" width="37.62" height="349.71"/>
			<path class="st4" d="M2189.01,1062.07c0,0,5.55-10.35,18.81-9.86c14.43,0.53,18.81,9.86,18.81,9.86v-15.79h-37.62V1062.07z"/>
			<rect x="2173.7" y="1022.09" class="st4" width="68.24" height="4.21"/>
		</g>
		<g>
			<path class="st2" d="M1912.83,1394.52h-160.46v-195.8c0-43.52,35.28-78.79,78.79-78.79h7.43c41,0,74.24,33.24,74.24,74.24
				V1394.52z"/>
		</g>
		<g>
			<path class="st4" d="M1039.86,888.01h-80.94v-88.43c0-20.97,17-37.97,37.97-37.97h7.2c19.76,0,35.77,16.02,35.77,35.77V888.01z"
				/>
			<g>
				<g>
					<path class="st6" d="M1004.09,758.73h-7.2c-22.53,0-40.86,18.32-40.86,40.85v91.32h86.72v-93.51
						C1042.75,776.07,1025.41,758.73,1004.09,758.73z M996.89,764.51h7.2c18.13,0,32.88,14.75,32.88,32.88v87.73h-75.16v-85.54
						c0-0.33,0-0.66,0.01-0.98C962.35,779.71,977.88,764.51,996.89,764.51z"/>
				</g>
				<rect x="959.56" y="798.6" class="st6" width="78.99" height="5.46"/>
				<rect x="996.4" y="801.33" class="st6" width="5.31" height="86.22"/>
			</g>
			<g>
				<path class="st4" d="M979.11,728.29c0,0,17.29-5.79,44.07,0l-9.31,23.18c0,0-12.78-1.71-25.37,0L979.11,728.29z"/>
				<path class="st4" d="M985.09,752.02l-10.07-19.66c0,0-10.99,2.25-14.97,6.54l16.73,15.19L985.09,752.02z"/>
				<path class="st4" d="M1017.15,752.12l9.18-19.44c0,0,9.57,0.96,14.97,6.54l-16.6,14.87L1017.15,752.12z"/>
			</g>
		</g>
		<g>
			<path class="st4" d="M1262.62,888.01h-80.94v-88.43c0-20.97,17-37.97,37.97-37.97h7.2c19.75,0,35.77,16.02,35.77,35.77V888.01z"
				/>
			<g>
				<g>
					<path class="st6" d="M1226.85,758.73h-7.21c-22.53,0-40.85,18.32-40.85,40.85v91.32h86.72v-93.51
						C1265.51,776.07,1248.16,758.73,1226.85,758.73z M1219.64,764.51h7.21c18.13,0,32.88,14.75,32.88,32.88v87.73h-75.16v-85.54
						c0-0.33,0-0.66,0.01-0.98C1185.11,779.71,1200.63,764.51,1219.64,764.51z"/>
				</g>
				<rect x="1182.31" y="798.6" class="st6" width="78.99" height="5.46"/>
				<rect x="1219.15" y="801.33" class="st6" width="5.31" height="86.22"/>
			</g>
			<g>
				<path class="st4" d="M1201.86,728.29c0,0,17.29-5.79,44.07,0l-9.31,23.18c0,0-12.78-1.71-25.37,0L1201.86,728.29z"/>
				<path class="st4" d="M1207.84,752.02l-10.07-19.66c0,0-10.99,2.25-14.97,6.54l16.73,15.19L1207.84,752.02z"/>
				<path class="st4" d="M1239.91,752.12l9.18-19.44c0,0,9.57,0.96,14.97,6.54l-16.6,14.87L1239.91,752.12z"/>
			</g>
		</g>
		<g>
			<path class="st4" d="M1039.86,1209.33h-80.94v-88.43c0-20.97,17-37.97,37.97-37.97h7.2c19.76,0,35.77,16.01,35.77,35.77V1209.33z
				"/>
			<g>
				<g>
					<path class="st6" d="M1004.09,1080.05h-7.2c-22.53,0-40.86,18.32-40.86,40.85v91.32h86.72v-93.51
						C1042.75,1097.39,1025.41,1080.05,1004.09,1080.05z M996.89,1085.83h7.2c18.13,0,32.88,14.75,32.88,32.88v87.73h-75.16v-85.54
						c0-0.33,0-0.66,0.01-0.98C962.35,1101.03,977.88,1085.83,996.89,1085.83z"/>
				</g>
				<rect x="959.56" y="1119.92" class="st6" width="78.99" height="5.46"/>
				<rect x="996.4" y="1122.65" class="st6" width="5.31" height="86.22"/>
			</g>
			<g>
				<path class="st4" d="M979.11,1049.61c0,0,17.29-5.79,44.07,0l-9.31,23.18c0,0-12.78-1.71-25.37,0L979.11,1049.61z"/>
				<path class="st4" d="M985.09,1073.34l-10.07-19.66c0,0-10.99,2.25-14.97,6.54l16.73,15.19L985.09,1073.34z"/>
				<path class="st4" d="M1017.15,1073.44l9.18-19.44c0,0,9.57,0.95,14.97,6.54l-16.6,14.87L1017.15,1073.44z"/>
			</g>
		</g>
		<g>
			<path class="st4" d="M1262.62,1209.33h-80.94v-88.43c0-20.97,17-37.97,37.97-37.97h7.2c19.75,0,35.77,16.01,35.77,35.77V1209.33z
				"/>
			<g>
				<g>
					<path class="st6" d="M1226.85,1080.05h-7.21c-22.53,0-40.85,18.32-40.85,40.85v91.32h86.72v-93.51
						C1265.51,1097.39,1248.16,1080.05,1226.85,1080.05z M1219.64,1085.83h7.21c18.13,0,32.88,14.75,32.88,32.88v87.73h-75.16
						v-85.54c0-0.33,0-0.66,0.01-0.98C1185.11,1101.03,1200.63,1085.83,1219.64,1085.83z"/>
				</g>
				<rect x="1182.31" y="1119.92" class="st6" width="78.99" height="5.46"/>
				<rect x="1219.15" y="1122.65" class="st6" width="5.31" height="86.22"/>
			</g>
			<g>
				<path class="st4" d="M1201.86,1049.61c0,0,17.29-5.79,44.07,0l-9.31,23.18c0,0-12.78-1.71-25.37,0L1201.86,1049.61z"/>
				<path class="st4" d="M1207.84,1073.34l-10.07-19.66c0,0-10.99,2.25-14.97,6.54l16.73,15.19L1207.84,1073.34z"/>
				<path class="st4" d="M1239.91,1073.44l9.18-19.44c0,0,9.57,0.95,14.97,6.54l-16.6,14.87L1239.91,1073.44z"/>
			</g>
		</g>
		<g>
			<path class="st4" d="M1499.27,888.01h-80.94v-88.43c0-20.97,17-37.97,37.97-37.97h7.2c19.75,0,35.77,16.02,35.77,35.77V888.01z"
				/>
			<g>
				<g>
					<path class="st6" d="M1463.5,758.73h-7.21c-22.52,0-40.85,18.32-40.85,40.85v91.32h86.72v-93.51
						C1502.16,776.07,1484.81,758.73,1463.5,758.73z M1456.29,764.51h7.21c18.13,0,32.88,14.75,32.88,32.88v87.73h-75.16v-85.54
						c0-0.33,0-0.66,0.01-0.98C1421.76,779.71,1437.28,764.51,1456.29,764.51z"/>
				</g>
				<rect x="1418.96" y="798.6" class="st6" width="78.99" height="5.46"/>
				<rect x="1455.8" y="801.33" class="st6" width="5.31" height="86.22"/>
			</g>
			<g>
				<path class="st4" d="M1438.51,728.29c0,0,17.29-5.79,44.07,0l-9.31,23.18c0,0-12.78-1.71-25.37,0L1438.51,728.29z"/>
				<path class="st4" d="M1444.49,752.02l-10.07-19.66c0,0-10.99,2.25-14.97,6.54l16.73,15.19L1444.49,752.02z"/>
				<path class="st4" d="M1476.56,752.12l9.18-19.44c0,0,9.57,0.96,14.97,6.54l-16.6,14.87L1476.56,752.12z"/>
			</g>
		</g>
		<g>
			<g>
				<path class="st4" d="M1885.95,847.83h-106.71V731.24c0-27.65,22.41-50.06,50.06-50.06h9.5c26.05,0,47.16,21.11,47.16,47.16
					V847.83z"/>
				<g>
					<g>
						<path class="st6" d="M1838.79,677.38h-9.5c-29.7,0-53.87,24.16-53.87,53.86v120.4h114.34V728.35
							C1889.76,700.24,1866.89,677.38,1838.79,677.38z M1829.29,685h9.5c23.9,0,43.35,19.44,43.35,43.35v115.67h-99.1V731.24
							c0-0.43,0.01-0.86,0.02-1.29C1783.74,705.04,1804.22,685,1829.29,685z"/>
					</g>
					<rect x="1780.07" y="729.95" class="st6" width="104.15" height="7.2"/>
					<rect x="1828.64" y="733.55" class="st6" width="7" height="113.67"/>
				</g>
			</g>
			<g>
				<path class="st4" d="M1971.81,848.81h-79.22v-86.54c0-20.52,16.64-37.16,37.16-37.16h7.05c19.33,0,35.01,15.67,35.01,35.01
					V848.81z"/>
				<g>
					<g>
						<path class="st6" d="M1936.79,722.28h-7.05c-22.04,0-39.98,17.94-39.98,39.99v89.37h84.87v-91.52
							C1974.63,739.25,1957.66,722.28,1936.79,722.28z M1929.74,727.94h7.05c17.75,0,32.18,14.43,32.18,32.18v85.86h-73.55v-83.71
							c0-0.32,0-0.64,0.01-0.96C1895.94,742.82,1911.14,727.94,1929.74,727.94z"/>
					</g>
					<rect x="1893.21" y="761.31" class="st6" width="77.31" height="5.34"/>
					<rect x="1929.26" y="763.98" class="st6" width="5.2" height="84.38"/>
				</g>
			</g>
			<g>
				<path class="st4" d="M1772.6,848.81h-79.21v-86.54c0-20.52,16.64-37.16,37.16-37.16h7.05c19.33,0,35.01,15.67,35.01,35.01
					V848.81z"/>
				<g>
					<g>
						<path class="st6" d="M1737.59,722.28h-7.05c-22.05,0-39.99,17.94-39.99,39.99v89.37h84.87v-91.52
							C1775.42,739.25,1758.45,722.28,1737.59,722.28z M1730.54,727.94h7.05c17.74,0,32.18,14.43,32.18,32.18v85.86h-73.56v-83.71
							c0-0.32,0-0.64,0.01-0.96C1696.73,742.82,1711.93,727.94,1730.54,727.94z"/>
					</g>
					<rect x="1694" y="761.31" class="st6" width="77.31" height="5.34"/>
					<rect x="1730.06" y="763.98" class="st6" width="5.2" height="84.38"/>
				</g>
			</g>
		</g>
		<g>
			<path class="st4" d="M2272.26,888.01h-80.94v-88.43c0-20.97,17-37.97,37.97-37.97h7.2c19.75,0,35.77,16.02,35.77,35.77V888.01z"
				/>
			<g>
				<g>
					<path class="st6" d="M2236.49,758.73h-7.21c-22.52,0-40.85,18.32-40.85,40.85v91.32h86.72v-93.51
						C2275.15,776.07,2257.81,758.73,2236.49,758.73z M2229.28,764.51h7.21c18.13,0,32.88,14.75,32.88,32.88v87.73h-75.16v-85.54
						c0-0.33,0-0.66,0.01-0.98C2194.75,779.71,2210.27,764.51,2229.28,764.51z"/>
				</g>
				<rect x="2191.95" y="798.6" class="st6" width="78.99" height="5.46"/>
				<rect x="2228.79" y="801.33" class="st6" width="5.31" height="86.22"/>
			</g>
			<g>
				<path class="st4" d="M2211.5,728.29c0,0,17.29-5.79,44.07,0l-9.31,23.18c0,0-12.78-1.71-25.37,0L2211.5,728.29z"/>
				<path class="st4" d="M2217.48,752.02l-10.08-19.66c0,0-10.99,2.25-14.97,6.54l16.74,15.19L2217.48,752.02z"/>
				<path class="st4" d="M2249.55,752.12l9.18-19.44c0,0,9.57,0.96,14.97,6.54l-16.6,14.87L2249.55,752.12z"/>
			</g>
		</g>
		<g>
			<path class="st4" d="M2532.59,888.01h-80.94v-88.43c0-20.97,17-37.97,37.97-37.97h7.2c19.75,0,35.77,16.02,35.77,35.77V888.01z"
				/>
			<g>
				<g>
					<path class="st6" d="M2496.82,758.73h-7.2c-22.53,0-40.86,18.32-40.86,40.85v91.32h86.72v-93.51
						C2535.48,776.07,2518.14,758.73,2496.82,758.73z M2489.62,764.51h7.2c18.13,0,32.88,14.75,32.88,32.88v87.73h-75.16v-85.54
						c0-0.33,0-0.66,0.01-0.98C2455.08,779.71,2470.61,764.51,2489.62,764.51z"/>
				</g>
				<rect x="2452.29" y="798.6" class="st6" width="78.99" height="5.46"/>
				<rect x="2489.13" y="801.33" class="st6" width="5.31" height="86.22"/>
			</g>
			<g>
				<path class="st4" d="M2471.84,728.29c0,0,17.29-5.79,44.07,0l-9.31,23.18c0,0-12.78-1.71-25.37,0L2471.84,728.29z"/>
				<path class="st4" d="M2477.82,752.02l-10.08-19.66c0,0-10.99,2.25-14.97,6.54l16.73,15.19L2477.82,752.02z"/>
				<path class="st4" d="M2509.88,752.12l9.18-19.44c0,0,9.57,0.96,14.97,6.54l-16.6,14.87L2509.88,752.12z"/>
			</g>
		</g>
		<g>
			<path class="st4" d="M2532.59,1209.33h-80.94v-88.43c0-20.97,17-37.97,37.97-37.97h7.2c19.75,0,35.77,16.01,35.77,35.77V1209.33z
				"/>
			<g>
				<g>
					<path class="st6" d="M2496.82,1080.05h-7.2c-22.53,0-40.86,18.32-40.86,40.85v91.32h86.72v-93.51
						C2535.48,1097.39,2518.14,1080.05,2496.82,1080.05z M2489.62,1085.83h7.2c18.13,0,32.88,14.75,32.88,32.88v87.73h-75.16v-85.54
						c0-0.33,0-0.66,0.01-0.98C2455.08,1101.03,2470.61,1085.83,2489.62,1085.83z"/>
				</g>
				<rect x="2452.29" y="1119.92" class="st6" width="78.99" height="5.46"/>
				<rect x="2489.13" y="1122.65" class="st6" width="5.31" height="86.22"/>
			</g>
			<g>
				<path class="st4" d="M2471.84,1049.61c0,0,17.29-5.79,44.07,0l-9.31,23.18c0,0-12.78-1.71-25.37,0L2471.84,1049.61z"/>
				<path class="st4" d="M2477.82,1073.34l-10.08-19.66c0,0-10.99,2.25-14.97,6.54l16.73,15.19L2477.82,1073.34z"/>
				<path class="st4" d="M2509.88,1073.44l9.18-19.44c0,0,9.57,0.95,14.97,6.54l-16.6,14.87L2509.88,1073.44z"/>
			</g>
		</g>
		<polygon class="st7" points="1586.2,642.08 805.19,642.08 872.75,583.45 1586.2,583.45 		"/>
		<path class="st7" d="M2649.17,583.45c-3.15,19.05-7.38,38.59-12.73,58.63h-562.93v-58.63H2649.17z"/>
		<rect x="1418.77" y="993.29" class="st5" width="849.01" height="28.8"/>
		<polygon class="st8" points="1588.3,508.06 1558.07,508.06 1830.91,278.45 2106.25,508.06 		"/>
		<polygon class="st5" points="1418.77,993.29 1843.27,911.8 2267.78,993.29 		"/>
		<polygon class="st2" points="1540.45,993.29 1843.27,935.16 2146.09,993.29 		"/>
		<polygon class="st3" points="2073.51,537.97 1588.3,537.97 1588.3,508.06 1830,308.67 2073.51,508.06 		"/>
		<path class="st9" d="M1819.44,372.79c0-7.27,5.89-13.16,13.16-13.16s13.16,5.89,13.16,13.16c0,7.27-5.89,13.16-13.16,13.16
			S1819.44,380.05,1819.44,372.79z"/>
		<circle class="st9" cx="1832.59" cy="1072.58" r="13.16"/>
		<g>
			<rect x="1430.3" y="1354.19" class="st5" width="800.77" height="12.37"/>
			<rect x="1383.85" y="1366.55" class="st10" width="893.69" height="12.36"/>
			<rect x="1335.42" y="1378.92" class="st11" width="990.54" height="17.07"/>
		</g>
		<g>
			<path class="st4" d="M1873.06,617.67h-80.94v-88.43c0-20.97,17-37.97,37.97-37.97h7.2c19.75,0,35.77,16.01,35.77,35.77V617.67z"
				/>
			<g>
				<g>
					<path class="st6" d="M1870.95,508.05c-6.64-11.73-19.24-19.66-33.66-19.66h-7.2c-14.77,0-27.74,7.88-34.92,19.66
						c-3.77,6.18-5.94,13.44-5.94,21.19v91.32h86.72v-93.51C1875.95,520.15,1874.14,513.66,1870.95,508.05z M1870.17,614.78h-75.16
						v-85.54c0-0.33,0-0.66,0.01-0.98c0.21-7.58,2.84-14.57,7.14-20.21c6.41-8.43,16.55-13.88,27.93-13.88h7.2
						c11.06,0,20.86,5.49,26.82,13.88c3.81,5.36,6.06,11.92,6.06,19V614.78z"/>
				</g>
				<rect x="1792.75" y="528.26" class="st6" width="78.99" height="5.46"/>
				<rect x="1829.6" y="530.99" class="st6" width="5.31" height="86.22"/>
			</g>
			<g>
				<path class="st4" d="M1812.31,457.95c0,0,17.29-5.79,44.07,0l-9.31,23.18c0,0-12.78-1.71-25.37,0L1812.31,457.95z"/>
				<path class="st4" d="M1818.29,481.68l-10.08-19.66c0,0-10.99,2.25-14.97,6.54l16.74,15.19L1818.29,481.68z"/>
				<path class="st4" d="M1850.35,481.78l9.18-19.44c0,0,9.57,0.96,14.97,6.54l-16.6,14.87L1850.35,481.78z"/>
			</g>
		</g>
	</g>
	<path class="st12" d="M489.4,1412.31c0,0-298.05-0.97-412.11-0.55c-0.77-3.23-1.52-6.5-2.27-9.79c-0.37-1.57-0.72-3.15-1.09-4.73
		c-0.01-0.02-0.01-0.06-0.02-0.09c-2.88-12.6-5.74-25.73-8.43-38.87c-11.24-54.19-20.77-112.5-26.39-172.31
		c23.79-6.81,119.82-31.05,181.92,1.64c71.32,37.54,59.47,93.3,128.27,77.62C418.07,1249.56,532.56,1308.54,489.4,1412.31z"/>
	<path class="st13" d="M2919.56,1466.32c-1.15,20.37-4.18,41.89-9.34,64.71c-0.49,2.09-1,4.2-1.53,6.32
		c-1.6,6.53-3.36,13.15-5.25,19.78c-2.27,8.79-5.27,18.09-8.54,27.37c-0.54,1.62-4.89,12.14-10.29,25.07
		c-14.12,33.78-47.15,55.77-83.75,55.77H2562.5l-87.37-0.24h-782.3l-127.15-0.15l-101.3-0.11H862.09l-251.56-0.25H240.77
		c-51.8,0-97.93-32.87-114.81-81.85c-1.44-4.2-2.79-8.17-3.99-11.79c-4.67-14.45-9.64-30.36-14.77-47.53
		c-4.96-16.62-10.05-34.41-15.15-53.22c-1.24-4.6-2.49-9.26-3.72-13.98c-4.52-17.33-9.04-35.4-13.31-54.23
		c-0.37-1.57-0.72-3.15-1.09-4.73c-0.01-0.02-0.01-0.06-0.02-0.09h2841.96c0,0.02,0.01,0.06,0.01,0.09
		C2919.56,1418.74,2920.93,1441.68,2919.56,1466.32z"/>
	<polygon class="st3" points="1523.21,1500.17 1361.31,1664.83 1564.63,1664.83 1690.9,1523.41 	"/>
	<g>
		<polygon class="st14" points="1578.13,1332.02 1576.62,1338.38 1574.61,1346.8 1568.35,1346.8 1567.98,1338.73 1567.69,1332.51 		
			"/>
		<path class="st15" d="M1597.97,1193.77c0,0,4.95-5.3,8.17-1.14c3.22,4.16,6.79,6.96,11.73,10.16c4.94,3.2-4.37,28.25-10.56,27.74
			S1575.86,1210.26,1597.97,1193.77z"/>
		<path class="st7" d="M1573.3,1191.25c1.24-0.92,12.62-4.83,23.72-0.99s-8.6,14.55-8.6,14.55l-6.38,0.27L1573.3,1191.25z"/>
		<path class="st16" d="M1565.88,1356.05c0,0,0-3.06,0.44-4.08c0.44-1.02,2.04-5.17,2.04-5.17h6.26c0,0,1.17,3.79,1.24,5.02
			c0.07,1.24,0,4.23,0,4.23H1565.88z"/>
		<path class="st16" d="M1605.63,1356.05c0,0,0-3.06-0.44-4.08c-0.44-1.02-2.04-5.17-2.04-5.17h-6.26c0,0-1.17,3.79-1.24,5.02
			c-0.07,1.24,0,4.23,0,4.23H1605.63z"/>
		<path class="st14" d="M1580.55,1184.01c0,0-0.22,6.83-1.09,9.88l-6.91,14.9l26.03-6.19l-6.21-8.58c0,0-1.87-9.15-0.89-12.54
			C1592.45,1178.12,1580.55,1184.01,1580.55,1184.01z"/>
		<path class="st17" d="M1580.51,1184.96c0,0,2.06,4.95,5.93,4.84c3.88-0.11,4.76-4.49,4.76-4.49L1580.51,1184.96z"/>
		<path class="st18" d="M1578.19,1180.94c0,0-1.25-6.25-2.13-8.14c-0.87-1.89-1.6-10.34,8.08-10.77c0,0,3.71,0.44,5.75-0.8
			c0,0,0,1.24-0.51,1.67c0,0,3.35-0.8,5.97,2.11c2.62,2.91-1.75,13.11-1.53,15.51L1578.19,1180.94z"/>
		<path class="st14" d="M1586,1187.89c-2.81-0.05-7.98-3.79-7.98-8.42v-7.23c0-1.69,1.18-3.08,2.62-3.08h10.72
			c1.44,0,2.62,1.38,2.62,3.08v6.82C1593.98,1183.91,1589.22,1187.94,1586,1187.89z"/>
		<path class="st18" d="M1578.02,1176.1c0,0,0.01-4.34,3.45-5.01c3.44-0.67,11.14,2.12,12.23-1.05c1.09-3.17-14.88-3.11-15.68-1.09
			C1577.21,1170.96,1578.02,1176.1,1578.02,1176.1z"/>
		<path class="st19" d="M1590.01,1251.36c1.72-5.36,1.69,22.2-5.23,53.2c-1.06,4.73-3.42,16.14-5.12,27.19h-14.17
			c-0.2-8.92-1.15-21.37-1.75-30.69c-1.89-29.23,2.92-51.16,2.92-51.16L1590.01,1251.36z"/>
		<path class="st19" d="M1608.2,1301.06c-0.16,8.94-1.97,20.81-2.14,29.51h-14.38c-0.97-6.32-2.5-12.82-3.6-18.07
			c-0.78-3.73-1.35-6.82-1.34-8.76c0.02-3.8-2.38-14.74-3.81-24.39c0-0.01,0-0.03-0.01-0.04c-0.06-0.37-0.11-0.74-0.16-1.11
			c-1.92-13.57-1.24-26.84-1.24-26.84l24.26-1.52C1605.78,1249.85,1608.61,1277.23,1608.2,1301.06z"/>
		<path class="st16" d="M1564.74,1261.14c0,0,5.46,6.61,20.29,5.66c14.83-0.95,21.9-3.53,21.9-3.53L1564.74,1261.14z"/>
		<path class="st20" d="M1606.93,1263.27c-4.84,0.66-37.79,2.37-42.19-2.12c-4.39-4.49,7.17-65.81,7.17-65.81s1.31-0.38,3.52-0.8
			c1.13-0.21,2.49-0.43,4.02-0.62c0.02,0.48,0.4,7.71,6.4,10.69c0,0,7.21-2.89,6.5-10.58c-0.01-0.09-0.02-0.18-0.03-0.26
			c0.96,0.1,1.94,0.24,2.91,0.41c1.98,0.34,3.98,0.82,5.96,1.48C1601.2,1195.66,1611.77,1262.61,1606.93,1263.27z"/>
		<path class="st20" d="M1565.02,1231.61c-0.2,0.25,1.12,2.14,2.97,4.57c3.81,4.98,9.91,12.24,9.91,12.24
			c-0.08,2.46-0.42,4.04-0.42,4.04c-8.38-3.96-14.04-7.66-17.8-10.63c-5.28-4.18-6.79-6.93-6.79-6.93
			c8.46-35.81,19.32-39.53,19.32-39.53l3.54,21.58C1575.75,1216.94,1565.61,1230.84,1565.02,1231.61z"/>
		<path class="st6" d="M1595.24,1194.18l-2.18,6.64l-2.91,4.27l-4.18,2.27l-3.93-2.27l-6.61-10.55c1.13-0.21,2.49-0.43,4.02-0.62
			c0.01,0.23,0.1,1.31,0.82,2.7c2.38,4.61,9.12,4.65,11.48,0.03c0.4-0.79,0.64-1.67,0.6-2.61c0-0.09-0.02-0.18-0.03-0.26
			C1593.29,1193.88,1594.26,1194.01,1595.24,1194.18z"/>
		<path class="st14" d="M1577.9,1248.42c0,0.07,0,0.14-0.01,0.21c-0.02,0.45-0.05,0.88-0.08,1.26c-0.21,0.29-0.44,0.56-0.7,0.82
			c-0.39,0.39-0.8,0.72-1.23,0.99c-0.21-0.1-0.42-0.21-0.63-0.31c-7.18-3.55-12.17-6.86-15.58-9.56c2.17-0.67,5.2-2.19,8.31-5.65
			C1571.8,1241.16,1577.9,1248.42,1577.9,1248.42z"/>
		<path class="st20" d="M1619.51,1233.58c0,0-1.46,2.77-6.66,7.05c-3.7,3.04-9.29,6.86-17.59,10.97c0,0-0.37-1.58-0.5-4.04
			c0,0,5.96-7.37,9.68-12.42c1.81-2.46,3.08-4.37,2.88-4.62c-0.47-0.59-6.83-8.96-9.67-12.69c-0.82-1.08-1.35-1.78-1.35-1.78
			l3.59-21.21C1599.89,1194.85,1610.36,1197.95,1619.51,1233.58z"/>
		<path class="st14" d="M1612.85,1240.64c-3.37,2.78-8.32,6.19-15.47,9.9c-0.18,0.09-0.36,0.18-0.54,0.28
			c-0.91-1.1-1.47-2.41-1.8-3.58c0.12-0.15,0.27-0.34,0.46-0.58c1.71-2.14,6.01-7.53,8.93-11.5
			C1607.6,1238.55,1610.67,1240.01,1612.85,1240.64z"/>
		<path class="st14" d="M1592.33,1193.77c-4.81-0.51-9.32-0.28-12.87,0.15c0-0.02,0-0.02,0-0.02S1591.37,1186.53,1592.33,1193.77z"
			/>
		<g>
			<g>
				<polygon class="st7" points="1580.38,1214.61 1580.13,1214.61 1579.95,1203.13 1580.57,1203.13 				"/>
			</g>
			<path class="st7" d="M1580.11,1214.32c-0.22,0.34-0.72,1.45-0.39,1.56c0.33,0.12,0.92,0.12,1.07-0.03
				C1580.95,1215.69,1580.53,1213.68,1580.11,1214.32z"/>
		</g>
		<g>
			<g>
				<polygon class="st7" points="1591.66,1214.61 1591.41,1214.61 1591.23,1203.13 1591.85,1203.13 				"/>
			</g>
			<path class="st7" d="M1591.39,1214.32c-0.22,0.34-0.72,1.45-0.39,1.56s0.92,0.12,1.07-0.03
				C1592.22,1215.69,1591.81,1213.68,1591.39,1214.32z"/>
		</g>
		<path class="st7" d="M1582.04,1205.09l-10.13-9.76c0,0-2.28-1.62,1.32-4.04C1576.84,1188.87,1582.04,1205.09,1582.04,1205.09z"/>
		<path class="st7" d="M1590.15,1205.09l10.13-9.76c0,0,2.28-1.62-1.32-4.04C1595.35,1188.87,1590.15,1205.09,1590.15,1205.09z"/>
		<g>
			<path class="st7" d="M1602.86,1252.61c-1.97,0.17-3.62-0.33-4.89-1.46c-0.21-0.19-0.41-0.4-0.59-0.61
				c-1-1.17-1.56-2.64-1.88-3.88c-0.36-1.42-0.4-2.54-0.4-2.56l-0.01-0.29h-16.36l0.01,0.3c0.06,1.76-0.22,3.27-0.85,4.51
				c-0.31,0.62-0.71,1.18-1.19,1.66c-0.45,0.45-0.94,0.81-1.44,1.1c-2.19,1.27-4.63,1.22-4.66,1.22l-0.3-0.01v6.91h32.88v-6.93
				L1602.86,1252.61z"/>
		</g>
		<path class="st7" d="M1607.31,1230.53c0,0-9.12-11.96-1.9-15.45c2.87-1.38,6.9,15.04,4.74,16.58c-2.16,1.54-5.72,3.49-5.72,3.49
			L1607.31,1230.53z"/>
		<path class="st7" d="M1566.07,1228.56c0,0,3.17-15.02,0.39-13.48c-2.78,1.55-6.9,15.04-4.74,16.58c2.16,1.54,5.72,3.49,5.72,3.49
			L1566.07,1228.56z"/>
		<g>
			<path class="st15" d="M1606.04,1230.49c-4.16-5.17-5.72-13.56-5.51-22.22c0.16-6.5,1.05-12.37,1.11-12.58l3.42,2.66
				c-0.01,0.05-1.96,3.61-2.11,9.94c-0.14,5.79-0.41,10.19,2.86,20.27L1606.04,1230.49z"/>
		</g>
		<path class="st16" d="M1574.42,1334.95l-7.34,0c-0.65,0.07-1.67-0.88-1.67-2.24c0,0-0.01-3.26-0.23-3.84
			c-0.94-2.54,0.46-2.68,1.82-2.68h13.39c1.36,0-0.72,4.2-0.72,5.56l0.48,1.78C1580.15,1334.89,1575.78,1334.95,1574.42,1334.95z"/>
		<path class="st6" d="M1576.62,1338.38l-2,8.42h-6.26l-0.37-8.07C1568.91,1339.07,1572.05,1339.95,1576.62,1338.38z"/>
		<polygon class="st14" points="1593.39,1332.02 1594.9,1338.38 1596.9,1346.8 1603.17,1346.8 1603.54,1338.73 1603.83,1332.51 		
			"/>
		<path class="st16" d="M1597.1,1334.95l7.34,0c0.65,0.07,1.67-0.88,1.67-2.24c0,0,0.02-3.26,0.23-3.84
			c0.94-2.54-0.46-2.68-1.82-2.68h-13.39c-1.36,0,0.72,4.2,0.72,5.56l-0.48,1.78C1591.37,1334.89,1595.74,1334.95,1597.1,1334.95z"
			/>
		<path class="st6" d="M1594.9,1338.38l2,8.42h6.26l0.37-8.07C1602.6,1339.07,1599.46,1339.95,1594.9,1338.38z"/>
		<path class="st6" d="M1583.33,1182.85c0,0,0.97,1.31,2.67,1.27c1.7-0.05,2.49-1.27,2.49-1.27S1585.63,1182.38,1583.33,1182.85z"/>
	</g>
	<g>
		<path class="st21" d="M1737.07,1255.54c0,0-3.57,38.51,4.39,59.48c2.2,5.8,26.62,28.41,30.46,35.99c0,0,5.25-4.56,4.57-5.64
			c-3.53-5.62-8.29-22.99-18.91-34.54c-10.62-11.55,2.2-41.41,2.2-41.41L1737.07,1255.54z"/>
		<path class="st14" d="M1740.11,1243.65c-10.04-2.56-21.08-18.13-21.08-18.13l2.83-2.45c2.93,3.45,15.1,9.39,15.1,9.39
			c-0.07-3.16,0.02-6.04,0.22-8.66c1.35-17.82,8.07-23.76,9.9-25.06c0.29-0.21,0.46-0.3,0.46-0.3s0.01,0.13,0.02,0.38
			c0.03,0.53,0.08,1.6,0.13,3.06C1748.05,1212.78,1748.5,1245.78,1740.11,1243.65z"/>
		<path class="st14" d="M1721.86,1223.06c-0.04-0.42,0.18-5.94-1.64-7.06c-1.43-0.88-3.52-3.4-4.21-3.28
			c-0.69,0.13-2.59,4.17-1.48,6.86c1.11,2.68,4.5,5.93,4.5,5.93L1721.86,1223.06z"/>
		<path class="st14" d="M1746.71,1366.36l5.11-0.59c0,0,13.34-27.49,11.54-44.55c-0.42-3.92-0.09-7.89,1.09-11.66
			c1.28-4.08,2.9-9.5,4.29-14.79c0.85-3.22,1.68-6.61,2.42-10.03c0.99-4.57,1.82-9.21,2.34-13.57c0.85-7.25,0.8-13.75-0.92-17.96
			l-23.05-2.31c0,0-1.98,18.49-2.53,36.85c-0.03,1.14-0.06,2.29-0.08,3.43c-0.19,10.03,1.31,18.36,2.29,25.65
			c0.31,2.27,0.39,4.56,0.24,6.85L1746.71,1366.36z"/>
		<path class="st16" d="M1755.44,1178.62c0,0,5.4,4.6,0.45,9.89c0,0,4.13,0.41,5.52-0.74c0,0-0.27,0.56-0.53,0.81
			c0,0,4.61,0.17,6.52-1.27c1.9-1.44,0.68-25.04-12.12-22.4c0,0-10.85-0.82-9.84,11.74c1.01,12.55-3.09,12.55-3.09,12.55
			s1.14,0.56,1.69,0.56c0,0,0.8-0.31,0.96-0.75c0,0-0.16,0.7-0.37,0.92c0,0,4.42,0.42,6.63-1.25
			C1753.47,1187.01,1756.07,1181.21,1755.44,1178.62z"/>
		<path class="st14" d="M1739.17,1206.15h29.58c-2.12-5.3-5.15-9.14-7.45-9.61c-1.23-0.33-3.31-4.76-3.28-11.9l-0.55,0.11
			l-9.29,1.84c0,0,0.21,2.92,0.22,5.68c0.01,2.3-0.12,4.63-0.64,4.9c-0.67,0.06-1.28,0.18-1.28,0.18
			S1741.45,1200.89,1739.17,1206.15z"/>
		<path class="st21" d="M1748.18,1186.59c0,0,0.21,2.92,0.22,5.68c5.2-0.15,7.95-4.89,9.07-7.52L1748.18,1186.59z"/>
		<path class="st16" d="M1758.43,1183.74c0,0,2.72-4.31,3.38-7.99c0.47-2.63-0.87-12.37-10.66-10.97c0,0-2.84,0.28-5.51,2.08
			c-2.13,1.44-5.19,4.53-1.76,13.03l0.89,2.87L1758.43,1183.74z"/>
		<path class="st14" d="M1746.45,1189.2c0,0,12.3,0.2,12.31-7.46c0.01-7.66,1.6-12.8-6.25-13.25c-7.85-0.45-9.38,2.47-10.01,5.03
			S1743.25,1188.95,1746.45,1189.2z"/>
		<path class="st16" d="M1746.9,1168.3c0,0,3.37,8.99,8.54,10.32c5.17,1.33,7.41-0.06,7.41-0.06s-3.96-3.15-4.79-8.65
			C1758.06,1169.92,1749.44,1164.02,1746.9,1168.3z"/>
		<path class="st16" d="M1747.74,1169.03c0,0-2.51,2.01-3.13,3.96c-0.61,1.95-0.89,5.97-2.06,5.83c0,0-2.54-6.11,0.31-9.57
			C1745.89,1165.59,1747.74,1169.03,1747.74,1169.03z"/>
		<path class="st14" d="M1788.86,1264.69l-3.69,1.11c0,0-12.18-20.21-13.29-25.47c-0.36-1.71-1.25-5.14-2.28-8.98
			c-2.14-7.95-4.9-17.68-4.9-17.68l-0.91-3.94l-3.1-13.43c0,0,5.94,0.61,9.41,2.06c1.15,0.48,2.03,1.05,2.33,1.72
			c2.55,5.61,5.1,19.77,6.89,29.87c1,5.63,1.76,10,2.16,10.92C1782.58,1243.47,1785.97,1257.68,1788.86,1264.69z"/>
		<path class="st16" d="M1747.27,1169.33c0,0,2.4,9.41,8.92,12.43c0,0-6.52-5.78-7.08-12
			C1748.56,1163.55,1747.27,1169.33,1747.27,1169.33z"/>
		<path class="st6" d="M1748.06,1222.26c-0.52,12.71-2.42,25.3-7.96,24.49c-6.78-0.99-8.55-7.32-8.91-12.03
			c-0.22-2.93,0.1-5.23,0.1-5.23s3.34-0.01,3.88-0.51c2.56-2.37,1.8-25.6,3.07-28.01c1.27-2.41,9.5-3.96,9.5-3.96
			S1748.58,1209.7,1748.06,1222.26z"/>
		<path class="st19" d="M1779.43,1281.42c0,0-4.84,1.69-11.97,2.8c-8.83,1.38-21.18,1.88-32.2-2.8c0,0-0.91-18.54,1.7-28.2
			c2.61-9.67,3.83-14.29,3.83-14.29s10.47,2.97,21.1,0.67c1.49-0.32,2.99-0.75,4.46-1.3c0,0,6.56,15.73,8.36,22.47
			C1776.51,1267.5,1779.43,1281.42,1779.43,1281.42z"/>
		<path class="st6" d="M1790.2,1245.91c0,3.19-3.26,5.16-6.75,6.11c-3.36,0.92-6.94,0.91-8.06,0.16c-1.93-1.29-5.08-15.69-6-20.07
			c-0.16-0.79-0.26-1.26-0.26-1.26s-2.51,5.99-2.59,6.55c-0.04,0.25-0.07,0.6-0.09,0.9c-0.03,0.37-0.04,0.67-0.04,0.67
			s-13.63,6.88-25.55,0.56c0,0-4.85-28.02-2.75-32.85c1.05-2.4,6.5-7.34,8.69-9.47c0.49-0.48,0.44-1.43,0.25-2.3
			c-0.16-0.73,0.5-1.38,1.23-1.19c1.4,0.37,3.93,0.3,6.64-0.59c1.35-0.44,2.74-1.08,4.06-1.98c0.38-0.26,0.9-0.02,0.96,0.44
			c0.21,1.67,0.71,4.72,1.63,4.72c1.27-0.01,9.93,1.06,10.57,2.13c0.22,0.37,2.47,5.47,5.32,12.22c0,0,0,0.01,0.01,0.02
			C1782.79,1223.34,1790.2,1241.82,1790.2,1245.91z"/>
		<path class="st22" d="M1769.13,1230.84c0,0-2.51,5.99-2.59,6.55c-0.04,0.25-0.07,0.6-0.09,0.9c-1.21,0.99-2.68,1.74-4.18,2.2
			c-4.25,1.29-6.09-6.85-5.84-10.92c0.25-4.06,6.26-15.66,8.26-15.9C1766.7,1213.44,1769.13,1230.84,1769.13,1230.84z"/>
		<path class="st23" d="M1769.39,1232.1c-0.16-0.79-0.26-1.26-0.26-1.26C1769.26,1231.27,1769.35,1231.69,1769.39,1232.1z"/>
		<path class="st24" d="M1798.01,1280.43c-0.26-1.29-1.16-2.33-2.39-2.79c-1.99-0.74-5.26-1.41-9.27-0.23
			c-6.77,1.99-7.44,6.16-6.99,9.15c0.45,3-0.88,7.77-0.68,11.16c0.19,3.4,1.17,11.93,6.18,11.48c5.02-0.45,21.18-4.79,21.18-4.79
			s2.79-5.32-2.94-13.01C1799.69,1286.83,1798.46,1282.67,1798.01,1280.43z"/>
		<g>
			<g>
				<path class="st25" d="M1794.9,1276.51l-1.34,0.12c0,0-0.15-0.93-0.77-1.51c-0.47-0.45-1.13-0.61-1.94-0.48
					c-0.77,0.12-1.33,0.48-1.61,1.05c-0.4,0.8-0.18,1.84-0.17,1.85l-1.31,0.3c-0.02-0.07-0.39-1.75,0.29-3.17
					c0.47-0.98,1.31-1.54,2.48-1.76c1.2-0.19,2.22,0.1,3.02,0.87C1794.66,1274.86,1794.89,1276.44,1794.9,1276.51z"/>
			</g>
			<path class="st20" d="M1809.37,1303.66c0,0-16.17,4.36-21.19,4.79c-5.02,0.46-5.99-8.07-6.18-11.48
				c-0.2-3.39,1.13-8.16,0.68-11.16c-0.09-0.57-0.14-1.2-0.1-1.83c0.13-2.67,1.63-5.71,7.08-7.31c4.02-1.19,7.28-0.51,9.28,0.23
				c1.22,0.46,2.14,1.5,2.39,2.78c0.06,0.26,0.11,0.58,0.18,0.89c0.58,2.38,1.91,6.08,4.9,10.08
				C1812.16,1298.35,1809.37,1303.66,1809.37,1303.66z"/>
			<path class="st26" d="M1784.44,1297.69l9.75-2.21c0,0,2.27,6.98-2.34,8.25C1787.24,1305,1785.33,1302.3,1784.44,1297.69z"/>
			<path class="st25" d="M1784.44,1297.69c0,0,2.25,2.17,5.29,1.4s4.46-3.61,4.46-3.61L1784.44,1297.69z"/>
			<path class="st26" d="M1796.17,1295.03l9.75-2.21c0,0,2.27,6.98-2.34,8.25C1798.97,1302.35,1797.06,1299.65,1796.17,1295.03z"/>
			<path class="st25" d="M1796.17,1295.03c0,0,2.25,2.17,5.29,1.4c3.04-0.76,4.46-3.61,4.46-3.61L1796.17,1295.03z"/>
			<path class="st7" d="M1801.33,1279.68c0.06,0.26,0.11,0.58,0.18,0.89c-1.29,2.66-3.73,6.06-7.86,6.84
				c-7.03,1.37-11.07-3.44-11.07-3.44c0.13-2.67,1.63-5.71,7.08-7.31c4.02-1.19,7.28-0.51,9.28,0.23
				C1800.17,1277.35,1801.08,1278.4,1801.33,1279.68z"/>
			<path class="st27" d="M1793.75,1288.89L1793.75,1288.89c-0.44,0.1-0.88-0.18-0.98-0.62l-0.16-0.73c-0.1-0.44,0.18-0.88,0.62-0.98
				l0,0c0.44-0.1,0.88,0.18,0.98,0.62l0.17,0.73C1794.47,1288.35,1794.19,1288.79,1793.75,1288.89z"/>
		</g>
		<path class="st14" d="M1788.6,1264.08c0,0,1.12,2.65,2.29,3.38c1.17,0.74,2.28,2.51,2.52,3.94c0.44,2.62-1.56,4.25-3.04,4.25
			s-2.89-2.01-3.76-6.82c-0.05-0.26-1.45-3.02-1.45-3.02L1788.6,1264.08z"/>
		<g>
			<path class="st28" d="M1751.97,1242.62c-7.75,0-10.95-2.67-11.19-2.85l-0.5-3.65c0.07,0.06,10.48,6.3,26.58,0.32l-0.34,2.77
				C1760.33,1241.5,1756,1242.62,1751.97,1242.62z"/>
		</g>
		<path class="st14" d="M1751.84,1366.52c0,0-0.58,1.92,0.05,3.38l-7.36,4.5l-8.67,2.26l-2.55-1.32c0,0,12.92-6.56,13.56-16.57
			C1747.36,1350.97,1751.84,1366.52,1751.84,1366.52z"/>
		<path class="st29" d="M1745.5,1376.54c-4.19,0.55-2.85,1.31-8.53,2.82c-5.68,1.51-8.12,0.12-8.6-0.62
			c-0.43-0.66,2.16-1.96,4.92-3.41l0.05,0.04c0,0,4.16,1.05,8.74-0.6c3.73-1.34,7.23-3.92,9.8-4.87c0.39,0.82,0.78,1.66,0.93,2.58
			C1753.27,1375.06,1749.69,1375.99,1745.5,1376.54z"/>
		<path class="st21" d="M1783.56,1348.24c2.16,1.12,0.83,4.28-1.12,7.67c-1.95,3.39-0.64,2.83-2.72,7.86
			c-2.08,5.03-4.48,6.04-5.29,5.98c-0.73-0.06-0.22-2.7,0.26-5.54c0.06-0.36,0.12-0.72,0.18-1.08c0.51-3.22-0.83-6.08-1.66-9.38
			c-0.79-3.13-5.99-8.96-5.99-8.96l2.63-6.96c0,0,4.6,5.39,6.65,7.55c1.21,1.27,3.14,1.78,4.65,2.11
			C1781.96,1347.66,1782.8,1347.85,1783.56,1348.24z"/>
		<path class="st29" d="M1782.44,1355.92c-1.95,3.39-0.64,2.83-2.72,7.86c-2.08,5.03-4.48,6.04-5.29,5.98
			c-0.73-0.06-0.22-2.7,0.26-5.54l0.06-0.01c0,0,3.11-2.48,4.47-6.77c1.11-3.5,1.18-7.53,1.93-9.95c0.82,0.18,1.66,0.37,2.42,0.76
			C1785.72,1349.37,1784.39,1352.52,1782.44,1355.92z"/>
		<g>
			<polygon class="st16" points="1713.61,1210.17 1713.79,1213.78 1714.03,1218.54 1714.23,1222.48 1720.79,1222.48 1721,1218.54 
				1721.26,1213.78 1721.46,1210.17 			"/>
			<polygon class="st6" points="1713.15,1210.74 1721.86,1210.74 1721.61,1209.41 1713.31,1209.41 			"/>
			<polygon class="st6" points="1716.65,1209.41 1714.63,1208.94 1714.35,1209.41 			"/>
			<polygon class="st6" points="1713.79,1213.78 1714.03,1218.54 1721,1218.54 1721.26,1213.78 			"/>
		</g>
		<path class="st14" d="M1713.79,1213.78c0,0,1.78-1.35,2.06,0.47c0.14,0.88-1.84,3.79-1.84,3.79
			C1713.32,1217.44,1712.81,1214.22,1713.79,1213.78z"/>
	</g>
	<path class="st30" d="M262.13,738.41c0,0,19.04-24.77,64.56-22.02c0,0,66.09-41.29,136.57-5.5c0,0,74.92-8.87,130.4,7.68
		c36.99,11.03,49.21,22.6,49.21,22.6L262.13,738.41z"/>
	<path class="st30" d="M1711.29,204.64c0,0,15.95-24.77,54.11-22.02c0,0,55.39-41.29,114.46-5.5c0,0,62.79-8.87,109.28,7.68
		c31,11.03,41.24,22.6,41.24,22.6L1711.29,204.64z"/>
	<path class="st30" d="M720.32,527.74c0,0,21.1-24.77,71.57-22.02c0,0,73.26-41.29,151.39-5.5c0,0,83.05-8.87,144.55,7.68
		c41.01,11.03,54.55,22.6,54.55,22.6L720.32,527.74z"/>
	<path class="st30" d="M2618.56,324.98l-591.42-3.86c0,0,32.87-38.59,111.47-34.3c0,0,114.11-64.31,235.79-8.57
		c0,0,129.35-13.81,225.14,11.95c0.11,0.02,0.22,0.06,0.32,0.09C2606.66,301.48,2612.9,313.04,2618.56,324.98z"/>
	<path class="st30" d="M675.26,439.51c0-8.76,7.1-15.86,15.86-15.86c8.76,0,15.86,7.1,15.86,15.86c0,8.76-7.1,15.86-15.86,15.86
		C682.36,455.37,675.26,448.27,675.26,439.51z"/>
	<path class="st31" d="M518.36,804.83c0,0,12.45-16.2,42.23-14.4c0,0,43.23-27.01,89.33-3.6c0,0,49-5.8,85.29,5.02
		c24.2,7.21,32.19,14.78,32.19,14.78L518.36,804.83z"/>
	<path class="st32" d="M2915.88,1397.25l-721.03,0.15c0,0-6.47-60.97,46.61-73.56c53.08-12.59,24.76-49.07,64.87-68.32
		c40.09-19.25,97.88-11.14,112.04,34.39c14.15,45.53,57.79,4.05,110.85,0c53.08-4.05,67.75,24.55,76.92,39.87
		c9.18,15.33,82.3,24.51,116.5-16.97c34.2-41.47,58.97-50.61,96.71-50.88c10.08-0.06,18.31-4.18,26.02-10.19
		c6.64,8.03,13.02,16.24,19.14,24.71C2889.01,1311.11,2907.77,1351.89,2915.88,1397.25z"/>
	<path class="st3" d="M2065.55,1492.12c0,29.06-213.11,52.62-475.99,52.62c-262.88,0-475.99-23.56-475.99-52.62
		c0-29.06,213.11-52.62,475.99-52.62C1852.44,1439.51,2065.55,1463.06,2065.55,1492.12z"/>
	<path class="st3" d="M2133.33,1502.42c0,38.59-256.46,69.87-572.82,69.87c-316.36,0-572.82-31.28-572.82-69.87
		c0-38.59,256.46-69.87,572.82-69.87C1876.87,1432.55,2133.33,1463.83,2133.33,1502.42z"/>
	<path class="st3" d="M2919.56,1466.32c-1.15,20.37-4.18,41.89-9.34,64.71c-0.49,2.09-1,4.2-1.53,6.32H1883.7l136.14-71.03H2919.56z
		"/>
	<path class="st3" d="M1326,1463.18v60.23H107.2c-4.96-16.62-10.05-34.41-15.15-53.22L1326,1463.18z"/>
	<path class="st32" d="M2091.2,1466.32c-16.38,0-24.85-19.74-13.42-31.47c7.75-7.94,17.75-15.08,30.15-18.13
		c34.9-8.57,43.47,17.76,64.29,15.31c20.82-2.45,54.16-16.27,86.78,7.48c32.62,23.75,89.97-15.64,129.16-11.56
		c13.2,1.38,21.77,6.18,27.33,11.94c9.54,9.89,2.28,26.43-11.46,26.43H2091.2z"/>
	<g>
		<polygon class="st33" points="2479.55,1396.61 2711.9,1396.61 2722.64,1342 2490.71,1342 		"/>
		<polygon class="st8" points="2475.58,1396.61 2707.93,1396.61 2718.67,1342 2486.74,1342 		"/>
		<path class="st33" d="M2643.32,1403.29h63.49c2.81,0,5.09-2.28,5.09-5.09v-1.6h-68.58V1403.29z"/>
		
			<rect x="2432.81" y="1396.61" transform="matrix(-1 -1.224647e-16 1.224647e-16 -1 5076.6445 2799.9016)" class="st34" width="211.03" height="6.69"/>
		<g>
			<path class="st34" d="M2698.03,1403.29l3.98,15.64c0,0.01,0,0.01,0,0.02l11.78,46.34c0.16,0.61,0.7,1.03,1.32,1.03
				c1.2,0,2.1-1.09,1.87-2.26l-10.51-54.05l-1.31-6.71H2698.03z"/>
		</g>
		<path class="st33" d="M2702.01,1418.94c-0.38-8,4.45-8.93,4.45-8.93l-1.31-6.71h-7.13L2702.01,1418.94z"/>
		<g>
			<path class="st34" d="M2647.63,1403.29l3.98,15.64c0,0.01,0,0.01,0,0.02l11.78,46.34c0.16,0.61,0.7,1.03,1.32,1.03
				c1.2,0,2.1-1.09,1.87-2.26l-10.51-54.05l-1.31-6.71H2647.63z"/>
		</g>
		<path class="st33" d="M2651.61,1418.94c-0.38-8,4.45-8.93,4.45-8.93l-1.31-6.71h-7.13L2651.61,1418.94z"/>
		<g>
			<path class="st34" d="M2452.07,1403.29l-3.98,15.64c0,0.01,0,0.01,0,0.02l-11.78,46.34c-0.16,0.61-0.7,1.03-1.32,1.03
				c-1.2,0-2.1-1.09-1.87-2.26l10.51-54.05l1.31-6.71H2452.07z"/>
		</g>
		<path class="st33" d="M2448.09,1418.94c0.38-8-4.45-8.93-4.45-8.93l1.31-6.71h7.13L2448.09,1418.94z"/>
		<g>
			<path class="st34" d="M2502.47,1403.29l-3.98,15.64c0,0.01,0,0.01,0,0.02l-11.78,46.34c-0.16,0.61-0.7,1.03-1.32,1.03
				c-1.2,0-2.1-1.09-1.87-2.26l10.51-54.05l1.31-6.71H2502.47z"/>
		</g>
		<path class="st33" d="M2498.49,1418.94c0.38-8-4.45-8.93-4.45-8.93l1.31-6.71h7.13L2498.49,1418.94z"/>
	</g>
	<g>
		<polygon class="st33" points="700.4,1388.89 900.39,1388.89 909.63,1341.88 710,1341.88 		"/>
		<polygon class="st8" points="696.98,1388.89 896.97,1388.89 906.21,1341.88 706.58,1341.88 		"/>
		<path class="st33" d="M841.36,1394.64h54.65c2.42,0,4.38-1.96,4.38-4.38v-1.38h-59.03V1394.64z"/>
		
			<rect x="660.17" y="1388.89" transform="matrix(-1 -1.224647e-16 1.224647e-16 -1 1501.9648 2783.5325)" class="st34" width="181.63" height="5.75"/>
		<g>
			<path class="st34" d="M888.45,1394.64l3.42,13.46c0,0.01,0,0.01,0,0.02l10.14,39.88c0.14,0.52,0.6,0.88,1.13,0.88
				c1.03,0,1.81-0.94,1.61-1.95l-9.04-46.52l-1.13-5.78H888.45z"/>
		</g>
		<path class="st33" d="M891.87,1408.11c-0.33-6.89,3.83-7.68,3.83-7.68l-1.13-5.78h-6.13L891.87,1408.11z"/>
		<g>
			<path class="st34" d="M845.07,1394.64l3.42,13.46c0,0.01,0,0.01,0,0.02l10.14,39.88c0.14,0.52,0.6,0.88,1.13,0.88
				c1.03,0,1.81-0.94,1.61-1.95l-9.04-46.52l-1.13-5.78H845.07z"/>
		</g>
		<path class="st33" d="M848.49,1408.11c-0.33-6.89,3.83-7.68,3.83-7.68l-1.13-5.78h-6.13L848.49,1408.11z"/>
		<g>
			<path class="st34" d="M676.74,1394.64l-3.42,13.46c0,0.01,0,0.01,0,0.02l-10.14,39.88c-0.14,0.52-0.6,0.88-1.13,0.88
				c-1.03,0-1.81-0.94-1.61-1.95l9.04-46.52l1.13-5.78H676.74z"/>
		</g>
		<path class="st33" d="M673.32,1408.11c0.33-6.89-3.83-7.68-3.83-7.68l1.13-5.78h6.13L673.32,1408.11z"/>
		<g>
			<path class="st34" d="M720.12,1394.64l-3.42,13.46c0,0.01,0,0.01,0,0.02l-10.14,39.88c-0.14,0.52-0.6,0.88-1.13,0.88
				c-1.03,0-1.81-0.94-1.61-1.95l9.04-46.52l1.13-5.78H720.12z"/>
		</g>
		<path class="st33" d="M716.7,1408.11c0.33-6.89-3.83-7.68-3.83-7.68l1.13-5.78h6.13L716.7,1408.11z"/>
	</g>
	<g>
		<path class="st16" d="M545.09,1177.19c2.77-4.21,13.78-1.85,24.58,5.26c10.8,7.11,17.31,16.29,14.54,20.5
			c-2.77,4.21-13.78,1.85-24.58-5.26C548.83,1190.58,542.32,1181.4,545.09,1177.19z"/>
		<g>
			<path class="st15" d="M601.53,1333.58l-2.13,0.13c0.02-0.05-0.83-37.25-4.09-52.3c-6.08-28.04-21.97-49.99-22.14-50.18l3.82-1.22
				c0.19,0.2,3.2,4.87,7.47,13.48c3.93,7.94,10.26,21.16,13.05,36.55C600.25,1295.24,601.61,1333.38,601.53,1333.58z"/>
		</g>
		<path class="st35" d="M562.98,1176.86c0,0,13.94-2.97,20.63,8.36c6.69,11.34,7.06,31.04,11.52,37.49
			c4.46,6.44,12.33,33.64,3.97,39.73c-8.36,6.09-59.89-0.22-62.79-3c-2.89-2.78,0.17-31.34,5.21-39.61
			C546.56,1211.56,534.29,1172.65,562.98,1176.86z"/>
		<path class="st14" d="M542.21,1300.98c-15.77-4.01-33.11-28.49-33.11-28.49l4.44-3.85c4.6,5.42,23.72,14.76,23.72,14.76
			c-0.1-4.96,0.03-9.49,0.34-13.61c2.12-27.99,12.67-37.32,15.56-39.37c0.46-0.33,0.73-0.47,0.73-0.47s0.01,0.2,0.03,0.59
			c0.04,0.83,0.12,2.51,0.2,4.81C554.7,1252.48,555.4,1304.33,542.21,1300.98z"/>
		<path class="st14" d="M513.54,1268.64c-0.07-0.66-0.51-10.28-2.42-12.11c-1.91-1.83-5.68-4.33-6.77-4.12
			c-1.08,0.2-4.77,6.33-3.03,10.54c1.74,4.22,7.77,9.54,7.77,9.54L513.54,1268.64z"/>
		<path class="st14" d="M576.56,1463.73c-0.96,3.82-2.02,7.46-3.1,10.84c-0.23,0.73-0.46,1.44-0.69,2.14
			c-0.12,0.35-0.23,0.69-0.34,1.03c-0.23,0.67-0.45,1.33-0.67,1.97c-0.29,0.84-0.58,1.66-0.87,2.45c-0.21,0.59-0.42,1.16-0.63,1.72
			c-3.2,8.58-5.88,14.02-5.88,14.02l-6.37-0.44c0,0,2.39-11.38,2.87-27.69c0.02-0.58,0.03-1.17,0.04-1.76
			c0.02-1.26,0.04-2.55,0.04-3.87c0-0.54,0-1.08-0.01-1.63c-0.13-14.04-1.87-30.64-7.41-46.49c-4.51-12.88-7.78-24.94-10.15-35.83
			c-7.63-35.16-5.84-58.26-5.84-58.26l35.86,4.2l1.67,0.2c0.15,16.47,0.57,38.83,0.95,56.31c0.06,3.04,0.12,5.92,0.18,8.61
			c0.25,11.22,0.43,18.9,0.43,18.9C583.54,1424.98,581.04,1445.93,576.56,1463.73z"/>
		<path class="st14" d="M593.67,1317.9c-6.78-15.2-10.02-19.49-10.13-24.28c-0.09-3.78,1.77-7.86,5.4-17.87
			c0.85-2.36,1.44-4.78,1.8-7.23c2.86-19.29-8.29-40.14-15.22-41.56c-1.93-0.51-5.2-7.48-5.16-18.7l-0.87,0.17l-14.6,2.89
			c0,0,0.33,4.59,0.34,8.92c0.01,3.61-0.19,7.28-1,7.71c-1.05,0.09-12.51,2.14-14.59,5.43c-2.05,3.23,0.23,3.53-0.56,15.3
			c-1.07,15.72,10.02,34.35,0.19,65.76C529.24,1346.53,597.42,1326.3,593.67,1317.9z"/>
		<path class="st36" d="M554.9,1211.33c0,0,0.33,4.59,0.34,8.92c8.17-0.23,12.48-7.68,14.25-11.81L554.9,1211.33z"/>
		<path class="st14" d="M552.17,1215.43c0,0,19.32,0.32,19.34-11.72s2.52-20.1-9.82-20.82s-14.74,3.88-15.72,7.89
			C544.98,1194.81,547.15,1215.04,552.17,1215.43z"/>
		<path class="st35" d="M552.89,1182.6c0,0,5.29,14.12,13.41,16.21c8.12,2.09,11.64-0.09,11.64-0.09s-6.23-4.95-7.52-13.58
			C570.42,1185.14,556.88,1175.88,552.89,1182.6z"/>
		<path class="st35" d="M554.2,1183.75c0,0-3.95,3.15-4.92,6.22c-0.96,3.07-1.4,9.38-3.24,9.16c0,0-3.99-9.6,0.49-15.03
			C551.29,1178.34,554.2,1183.75,554.2,1183.75z"/>
		<path class="st14" d="M618.8,1334.04l-5.8,1.74c0,0-19.14-31.75-20.88-40.01c-0.57-2.69-1.96-8.07-3.58-14.1
			c-3.36-12.49-7.7-27.77-7.7-27.77l-1.43-6.19l-4.87-21.1c0,0,9.33,0.95,14.78,3.23c1.81,0.75,3.18,1.65,3.67,2.71
			c4.01,8.81,8.01,31.06,10.82,46.92c1.57,8.84,2.76,15.71,3.39,17.16C608.95,1300.7,614.26,1323.03,618.8,1334.04z"/>
		<path class="st35" d="M553.46,1184.23c0,0,3.77,14.79,14.02,19.52c0,0-10.25-9.09-11.12-18.85
			C555.49,1175.14,553.46,1184.23,553.46,1184.23z"/>
		<path class="st14" d="M597.13,1460.64c-2.06,22-11.14,36.23-11.14,36.23l-3.1,2.82c0,0-2.82-16.11-4.86-34.55
			c-1.94-17.53-4.61-36.08-7.62-41.74c-4.5-8.46-7.82-25.76-10.21-44.04c-3.95-30.25-5.35-63.18-5.35-63.18l36.36-1.8
			c3.66,6.15,5.25,16.23,5.63,27.69c0.4,12.05-0.55,25.63-1.87,37.77c-1.84,16.99-4.4,31.15-4.99,34.34c0,0,0,0.01,0,0.02
			c-0.08,0.42,0.04,0.84,0.24,1.22C597.45,1429.73,598.49,1446.11,597.13,1460.64z"/>
		<path class="st37" d="M528.21,1286.96c0.56,7.39,3.34,17.34,14,18.9c3.77,0.55,6.46-2.85,8.38-8.51c2.5-7.4,3.66-18.65,4.12-29.96
			c0.44-10.71,0.26-21.49,0-29.1c-4.37-0.49-12.39-4.2-14.86-5.12c-0.07,0.07-0.14,0.15-0.2,0.23c-0.05,0.06-0.1,0.12-0.15,0.19
			c-0.09,0.12-0.16,0.23-0.22,0.35c-1.06,2.02-1.22,13.35-1.75,24.04c-0.46,9.36-1.2,18.23-3.08,19.97
			c-0.85,0.78-6.09,0.81-6.09,0.81S527.85,1282.35,528.21,1286.96z"/>
		<path class="st38" d="M554.71,1267.38c-0.82,19.97-3.81,39.74-12.5,38.47c-10.66-1.56-13.43-11.5-14-18.9
			c2.62-0.13,7.22-0.77,9.05-3.56c2.62-4,10.8-29.72,10.8-29.72S551.27,1259.45,554.71,1267.38z"/>
		<path class="st19" d="M543.39,1294.51c0,0,21.39,5.37,40.15-0.88c0,0,10.3,21.87,13.13,31.24c2.83,9.37,24.24,129.33,24.24,129.33
			s-47.11,13.63-78.42,1.86c0,0-9.23-128.25-5.12-141.68C541.48,1300.94,543.39,1294.51,543.39,1294.51z"/>
		<path class="st37" d="M537.54,1257.88c1.57,15.46,5.86,36.43,5.86,36.43c2.37,1.25,4.78,2.17,7.19,2.82
			c16.62,4.51,32.95-3.7,32.95-3.7s0.03-0.48,0.07-1.06c0.03-0.48,0.08-1.02,0.14-1.41c0.12-0.88,4.07-10.26,4.07-10.26
			s0.15,0.73,0.41,1.98c1.44,6.86,6.39,29.41,9.42,31.44c1.76,1.17,7.38,1.19,12.66-0.25c5.49-1.49,10.61-4.57,10.61-9.57
			c0-6.4-11.64-35.35-20.03-55.18c0-0.02-0.01-0.03-0.01-0.03c-4.46-10.57-7.06-17.93-10.47-18.75c0,0-22.97,9.35-35.7,7.92
			c-4.37-0.49-12.39-4.18-14.86-5.1c-0.07,0.07-0.14,0.15-0.2,0.23c-0.05,0.06-0.1,0.12-0.15,0.19c-0.05,0.07-0.09,0.14-0.13,0.2
			c-1.86,2.75-1.57,7.3-1.66,9.04C537.52,1246.21,536.84,1250.96,537.54,1257.88z"/>
		<path class="st38" d="M587.81,1280.86c0,0-3.94,9.41-4.07,10.29c-0.06,0.39-0.1,0.94-0.14,1.42c-1.91,1.55-4.21,2.74-6.56,3.45
			c-6.67,2.02-9.57-10.77-9.17-17.15c0.4-6.38,9.84-24.6,12.98-24.98C583.99,1253.52,587.81,1280.86,587.81,1280.86z"/>
		<path class="st23" d="M588.22,1282.84c-0.26-1.25-0.41-1.98-0.41-1.98C588.02,1281.54,588.15,1282.19,588.22,1282.84z"/>
		<g>
			<path class="st39" d="M560.67,1298.59c-12.18,0-17.01-3.42-17.39-3.7l-0.79-5.74c0.12,0.09,16.46,9.9,41.76,0.5l-0.54,4.35
				C573.99,1297.61,566.99,1298.59,560.67,1298.59z"/>
		</g>
		<path class="st38" d="M620.92,1304.53c0,5.02-5.12,8.1-10.61,9.6c7.57-9.01-8.99-63.56-9.42-64.95
			C609.27,1269.07,620.92,1298.11,620.92,1304.53z"/>
		<g>
			<path class="st16" d="M568.05,1503.24h-4.07c-1.36-0.21-2.37-0.61-3.77-0.79c-2.12-0.28-3.1,0.59-3.29,0.79
				c-0.03,0.03-0.04,0.04-0.04,0.04H539.6c-0.43-0.62-0.02-2.06,0.39-3.12c0.28-0.72,0.88-1.26,1.62-1.48c1.83-0.53,5.45-1,8.75-4
				c1.86-1.68,8.99-6.19,8.99-6.19l0.04-0.01c0.16,0,0.9,0.23,4.14,2.97c1.68,1.41,4.53-1.99,4.53-1.99s0.54,0.44,0.94,1.27
				c0.32,0.65,0.56,1.55,0.37,2.65c-0.26,1.56,0.57,4.45,1.24,6.41c0.4,1.19,0.74,2.03,0.74,2.03S571.55,1502.8,568.05,1503.24z"/>
			<path class="st40" d="M569,1490.74c-0.97,0.68-3.02,2.03-4.38,2.21c-1.84,0.24-5.27-4.45-5.27-4.45l0.04-0.01
				c0.16,0,0.9,0.23,4.14,2.97c1.68,1.41,4.53-1.99,4.53-1.99S568.6,1489.91,569,1490.74z"/>
			<path class="st40" d="M568.05,1503.24h-4.07c-1.36-0.21-2.37-0.61-3.77-0.79c-2.12-0.28-3.1,0.59-3.29,0.79
				c-0.03,0.03-0.04,0.04-0.04,0.04H539.6c-0.43-0.62-0.02-2.06,0.39-3.12c0.52-0.47,0.67,2.03,0.96,2.42
				c0.29,0.4,14.1,0.14,14.9-0.44c0.8-0.58,3.19-1.59,6.52-0.8c2.9,0.69,7.18-1.08,8.24-1.56c0.4,1.19,0.74,2.03,0.74,2.03
				S571.55,1502.8,568.05,1503.24z"/>
		</g>
		<g>
			<path class="st16" d="M589.76,1503.24h-4.07c-1.36-0.21-2.37-0.61-3.77-0.79c-2.12-0.28-3.1,0.59-3.29,0.79
				c-0.03,0.03-0.04,0.04-0.04,0.04h-17.28c-0.44-0.62-0.02-2.06,0.39-3.12c0.28-0.72,0.88-1.26,1.62-1.48c1.83-0.53,5.45-1,8.75-4
				c1.86-1.68,8.99-6.19,8.99-6.19l0.04-0.01c0.16,0,0.9,0.23,4.14,2.97c1.68,1.41,4.53-1.99,4.53-1.99s0.54,0.44,0.94,1.27
				c0.32,0.65,0.56,1.55,0.37,2.65c-0.26,1.56,0.57,4.45,1.24,6.41c0.4,1.19,0.74,2.03,0.74,2.03S593.26,1502.8,589.76,1503.24z"/>
			<path class="st40" d="M590.72,1490.74c-0.97,0.68-3.02,2.03-4.38,2.21c-1.84,0.24-5.27-4.45-5.27-4.45l0.04-0.01
				c0.16,0,0.9,0.23,4.14,2.97c1.68,1.41,4.53-1.99,4.53-1.99S590.31,1489.91,590.72,1490.74z"/>
			<path class="st40" d="M589.76,1503.24h-4.07c-1.36-0.21-2.37-0.61-3.77-0.79c-2.12-0.28-3.1,0.59-3.29,0.79
				c-0.03,0.03-0.04,0.04-0.04,0.04h-17.28c-0.44-0.62-0.02-2.06,0.39-3.12c0.52-0.47,0.67,2.03,0.96,2.42
				c0.29,0.4,14.1,0.14,14.9-0.44c0.8-0.58,3.19-1.59,6.52-0.8c2.9,0.69,7.18-1.08,8.24-1.56c0.4,1.19,0.74,2.03,0.74,2.03
				S593.26,1502.8,589.76,1503.24z"/>
		</g>
		<path class="st14" d="M618.39,1333.08c0,0,1.76,4.16,3.6,5.32c1.84,1.16,3.58,3.94,3.96,6.19c0.7,4.12-2.46,6.67-4.77,6.67
			c-2.32,0-4.54-3.16-5.9-10.72c-0.07-0.42-2.28-4.75-2.28-4.75L618.39,1333.08z"/>
		<g>
			<polygon class="st41" points="504.77,1247.19 505.04,1249.98 505.89,1258.76 506.44,1264.39 517.65,1264.39 518.34,1258.76 
				519.42,1249.98 519.76,1247.19 			"/>
			<polygon class="st42" points="503.97,1247.19 520.64,1247.19 520.32,1245.52 504.38,1245.52 			"/>
			<polygon class="st42" points="505.04,1249.98 505.89,1258.76 518.34,1258.76 519.42,1249.98 			"/>
		</g>
		<path class="st14" d="M503.56,1253.14c0,0,2.83-3.16,5.66-0.75c2.83,2.42-0.19,7.58-2.65,8.99c-2.46,1.41-3.24,2.15-3.24,2.15
			L503.56,1253.14z"/>
		<g>
			<path class="st15" d="M567.83,1333.75l2.13-0.16c-0.02-0.05-4.17-37.27-2.95-52.73c2.27-28.79,15.07-52.84,15.22-53.05
				l-3.95-0.71c-0.16,0.23-2.52,5.29-5.6,14.46c-2.83,8.45-7.33,22.49-8.03,38.23C563.96,1295.33,567.73,1333.56,567.83,1333.75z"/>
		</g>
		<g>
			<path class="st43" d="M593.65,1325.56c0,0-2.07-5.09-5.36-6.37l-16.81,3.17c0,0,4.15,3.95,4.54,6.52L593.65,1325.56z"/>
			<path class="st44" d="M572.55,1354.32l28.72-5.41c1.35-0.25,2.24-1.55,1.98-2.9l-3.59-19.04c-0.25-1.35-1.56-2.24-2.9-1.98
				l-28.72,5.41c-1.35,0.25-2.24,1.55-1.98,2.9l3.59,19.04C569.9,1353.68,571.2,1354.57,572.55,1354.32z"/>
			<g>
				
					<rect x="582.97" y="1315.05" transform="matrix(-1 8.743878e-03 -8.743878e-03 -1 1191.2256 2642.4922)" class="st23" width="13.74" height="17.61"/>
				
					<rect x="583.76" y="1315.04" transform="matrix(-1 8.743878e-03 -8.743878e-03 -1 1192.799 2642.4712)" class="st41" width="13.74" height="17.61"/>
			</g>
			<g>
				
					<rect x="579.26" y="1319.63" transform="matrix(-0.7941 0.6078 -0.6078 -0.7941 1858.9962 2027.0754)" class="st45" width="13.74" height="17.61"/>
				
					<rect x="580.48" y="1318.7" transform="matrix(-0.7941 0.6078 -0.6078 -0.7941 1860.6166 2024.6603)" class="st46" width="13.74" height="17.61"/>
			</g>
			<path class="st15" d="M579.57,1352.99l27.5-5.18c1.69-0.32,2.8-1.94,2.48-3.63l-3.36-17.82c-0.32-1.69-1.94-2.8-3.63-2.48
				l-27.5,5.18c-1.69,0.32-2.8,1.94-2.48,3.63l3.36,17.82C576.26,1352.2,577.88,1353.31,579.57,1352.99z"/>
		</g>
		<path class="st16" d="M586.07,1192.51c0,0,8.79-17.5-3.49-24.42c-12.29-6.92-21.28-4.2-28.04,4.26L586.07,1192.51z"/>
		<path class="st19" d="M544.58,1187.41c0.58-1.96,1.29-3.44,1.91-4.49c-0.67-1.62-0.73-3.01-0.09-4.05
			c0.83-1.32,2.7-1.85,5.25-1.69c4.38,0.28,10.74,2.63,17.13,6.62c8.32,5.19,12.87,11.92,14.67,15.64c1.27,2.63,5.77,5.79,7.33,9.16
			c1.58-0.42,2.62-1.15,3.33-2.26c2.29-3.67-1.16-10.29-8.23-17.21c-3.79-3.71-8.63-7.5-14.18-10.96
			c-4.46-2.78-8.91-5.06-13.08-6.77c-10.68-4.37-19.52-5.03-22.05-0.97C534.31,1174.06,537.66,1180.58,544.58,1187.41z"/>
	</g>
	<g>
		<path class="st39" d="M383.8,1239.55c-1.25-2.41,27.23-11.07,27.68,12.68c0,0,53.34-1.31,27.87-31.04
			c-8.82-10.29-7.91-18.8-7.65-26.72c0.27-7.92-5.49-30.95-25.23-28.63c0,0-5.17-2.1-11.62,1.24
			C380.17,1174.69,347.3,1248.31,383.8,1239.55z"/>
		<path class="st14" d="M471,1266.1c0,0,3.47-5.29,6.27-5.39c2.8-0.1,7.98-1.55,7.57-0.52c-0.41,1.04-3.63,1.14-3.94,1.76
			c-0.31,0.62,4.77,1.55,6.22,1.66c1.45,0.1,4.87,0,4.77,0.73c-0.1,0.73-6.16,3.73-10.44,3.32c-4.28-0.41-9.56,1.24-9.56,1.24
			L471,1266.1z"/>
		<path class="st3" d="M420.79,1267.81c0,0,1.89,3.74,5.31,8.03c4.13,5.17,10.49,11.14,18.47,12.31c3.81,0.56,7.55-0.26,10.98-1.78
			c0.01,0,0.01,0,0.01,0c9.7-4.31,16.99-14.21,16.99-14.21c1.71-4.66-1.09-7.83-1.09-7.83s-19.59,4.41-21.45,3.47
			c-1.87-0.93-12.75-32.28-15.34-36.22c-2.59-3.94-11.42-5.98-11.42-5.98L420.79,1267.81z"/>
		<path class="st2" d="M426.1,1275.84c4.13,5.17,10.49,11.14,18.47,12.31c3.81,0.56,7.55-0.26,10.98-1.78
			c-0.38,0.05-10.07,1.25-13.93-5.66c-3.94-7.05-8.2-18.24-14.05-14.51C425.05,1267.82,425.16,1271.82,426.1,1275.84z"/>
		<path class="st16" d="M347.71,1479.24c0,0-5.98,5.46-4.81,9.33c1.17,3.88,6.56,6.46,7.29,11.2c0.73,4.74,3.64,7.32,6.27,7.32
			c2.62,0,12.51,0,12.51,0s1.93-3.33-2.73-4.34c-4.67-1-6.42-6.57-6.13-11.74c0.29-5.17-0.44-12.06-0.44-12.06l-9.91-2.3
			L347.71,1479.24z"/>
		<path class="st16" d="M398.3,1481.56c0,0-2.15,23.11,0.47,24.4l33.58-0.07c0,0,0-3.88-5.39-4.74
			c-5.39-0.86-14.87-4.02-16.47-11.05C408.89,1483.07,398.3,1481.56,398.3,1481.56z"/>
		<path class="st14" d="M374.37,1315.79c6.91-15.5,11.14-19.95,10.33-24.76c-0.6-3.58,1.83-66.75,1.83-66.75
			c0.82-0.25,2.46-0.48,3.36-0.68c2.83-0.63,5.18-2.62,6.16-5.36c1.18-3.29,2.11-8.16,2.09-14.25l0.89,0.17l14.88,2.95
			c0,0-0.34,4.68-0.35,9.1c0,0.04,0,0.07,0,0.11c-0.02,3.83,2.5,7.21,6.18,8.28c1.88,0.54,3.52,1.01,3.52,1.01s5.47,15.6,6.51,31.63
			c1.04,16.03-9.94,22.99,0.08,55.02C440.08,1344.98,370.55,1324.35,374.37,1315.79z"/>
		<path class="st21" d="M413.91,1207.12c0,0-0.34,4.68-0.35,9.1c-8.33-0.23-12.73-7.83-14.54-12.04L413.91,1207.12z"/>
		<path class="st14" d="M416.69,1211.29c0,0-19.71,0.33-19.72-11.95c-0.01-12.27-2.57-20.5,10.02-21.23
			c12.58-0.73,15.03,3.95,16.03,8.05C424.02,1190.27,421.82,1210.89,416.69,1211.29z"/>
		<path class="st39" d="M415.96,1177.82c0,0-5.39,14.4-13.68,16.53c-8.28,2.13-11.87-0.09-11.87-0.09s6.35-5.05,7.67-13.85
			C398.08,1180.41,411.89,1170.96,415.96,1177.82z"/>
		<path class="st39" d="M414.62,1178.99c0,0,4,1.5,5.65,4.41c1.61,2.85,2.98,6.63,2.66,11.27c0,0,4.07-9.79-0.5-15.33
			C417.59,1173.47,414.62,1178.99,414.62,1178.99z"/>
		<path class="st47" d="M412.4,1203.68c0,0,1.36,1.79,4.08,1.66c2.19-0.1,3.04-2,3.04-2S415.49,1202.37,412.4,1203.68z"/>
		<path class="st3" d="M372.47,1252.23c0,0-0.5,7.05,0,15.52c0.33,5.61,6.01,13.13,6.81,14.99c2.02,4.66,4.3,5.42,4.3,5.42
			l17.63,4.32l6.2,1.52l19.55-5.84c0,0,8.9-24.85,5.33-38.84c-3.58-13.99-9.04-23.71-9.04-23.71s-15.95,15.62-36.72-1.32
			L372.47,1252.23z"/>
		<path class="st2" d="M377.63,1270.04c0.33,5.61,0.85,10.84,1.65,12.7c2.02,4.66,4.3,5.42,4.3,5.42l17.63,4.32l7.66-2.25
			c0,0-25.56-3.87-22.73-25.87L377.63,1270.04z"/>
		<path class="st7" d="M425.72,1291.93c0,0,9.68,30.13,10.3,40.39c0.62,10.26-18.51,145.75-19.28,150.48
			c-0.73,4.46-6.26,7.3-6.26,7.3s-2.54,1.5-6.18,0.48c-5.04-1.42-6.63-3.13-6.63-3.13s-7.54-96.63-2.87-131.15
			c4.66-34.52,4.72-64.37,4.72-64.37H425.72z"/>
		<path class="st20" d="M384.7,1291.03c0,0-14.77,19.82-16.14,33.21c-1.38,13.39-2.16,60.45-5.09,73.5
			c-2.93,13.06-13.71,38.19-13.71,78.92c0,0,1.12,2.33,4.58,3.58c1.11,0.4,2.59,0.78,4.03,1.11c2.85,0.65,5.78-0.74,7.08-3.36
			c7.29-14.67,30.49-61.98,31.68-71.8c0.84-6.95,8.17-52.95,24.15-79.94c3.84-6.48-2.35-32.25-2.35-32.25L384.7,1291.03z"/>
		<path class="st6" d="M412.84,1204.01c0,0,0.34,1.45,3.94,1.22c0,0,3.02-0.19,2.93-1.78
			C419.71,1203.45,416.78,1202.32,412.84,1204.01z"/>
		<path class="st16" d="M427.27,1287.28c0,0-3.89,3.07-11.61,3.23c-9.22,0.19-32.08-2.35-32.08-2.35s-1.02,2.84-0.97,5.83
			c0,0,27.91,7.04,44.08,1.03C426.69,1295.02,428.78,1291.09,427.27,1287.28z"/>
		<g>
			<path class="st6" d="M413.66,1293.69c0-2.63,1.89-4.76,4.21-4.76c2.32,0,4.21,2.14,4.21,4.76c0,2.63-1.89,4.76-4.21,4.76
				C415.55,1298.45,413.66,1296.32,413.66,1293.69z M415.06,1293.69c0,1.86,1.26,3.37,2.81,3.37c1.55,0,2.81-1.51,2.81-3.37
				c0-1.86-1.26-3.37-2.81-3.37C416.32,1290.32,415.06,1291.83,415.06,1293.69z"/>
		</g>
		
			<rect x="365.92" y="1259.66" transform="matrix(-0.7542 -0.6567 0.6567 -0.7542 -169.1056 2507.9087)" class="st48" width="37.92" height="51.9"/>
		<path class="st14" d="M390.03,1292.82c0,0,10.48,1.23,10.44,3.71c-0.03,2.49-2.61,7.6-3.9,7.82c-1.29,0.23-8.53-6.91-8.53-6.91
			L390.03,1292.82z"/>
		<path class="st3" d="M386.53,1224.28c0,0-13.99,0.98-19.35,14.02c-5.36,13.03-15.54,34.92-15.54,38.6
			c0,3.68,5.68,15.03,36.2,21.56c0,0,3.16-3.32,2.97-5.95c0,0-19.05-16.36-19-18.28c0.1-3.62,3.12-8.39,19.85-25.13
			C396.21,1244.56,386.53,1224.28,386.53,1224.28z"/>
	</g>
	<path class="st32" d="M1738.28,1665.09h-45.45l-127.15-0.15c-3.3-9.83-4.88-22.59-2.39-38.81c7.69-50.17,40.82-78.35,84.28-77.73
		c43.46,0.61,68.45,26.73,80.79,50.83C1737.03,1616.15,1740.45,1644.54,1738.28,1665.09z"/>
	<path class="st32" d="M904.66,1585.5c0,0-24.34-14.77-18.35-58.29c5.99-43.52,31.78-67.96,65.62-67.42
		c33.84,0.54,53.29,23.2,62.91,44.1c9.62,20.9,10.94,62.06,3.17,74.9C1010.25,1591.62,933.51,1595.17,904.66,1585.5z"/>
	<path class="st32" d="M1029.84,1449.42c0,0-16-9.71-12.06-38.31c3.94-28.6,20.89-44.67,43.13-44.32s35.03,15.25,41.35,28.99
		c6.32,13.74,7.19,40.79,2.08,49.23C1099.24,1453.44,1048.8,1455.77,1029.84,1449.42z"/>
	<g>
		<g>
			<path class="st32" d="M2767.59,1553.32c0,0-10.33-59.03-17.97-46.9C2741.98,1518.55,2767.59,1553.32,2767.59,1553.32z"/>
			<path class="st32" d="M2759.61,1552.03c0,0-18.48-32.11-22.38-28.29C2733.33,1527.57,2759.61,1552.03,2759.61,1552.03z"/>
			<path class="st32" d="M2772.08,1553.67c0.07-0.55-2.11-47.06,9.47-42.1C2793.14,1516.54,2772.08,1553.67,2772.08,1553.67z"/>
		</g>
		<path class="st32" d="M2743.1,1552.03c0,0,18.37-9.64,49.8-1.89c0,0,7.35,3.88,0,6.33
			C2785.55,1558.92,2731.33,1559.92,2743.1,1552.03z"/>
	</g>
	<g>
		<g>
			<path class="st32" d="M1327.1,1634.95c0,0-10.33-59.03-17.97-46.9C1301.49,1600.18,1327.1,1634.95,1327.1,1634.95z"/>
			<path class="st32" d="M1319.11,1633.66c0,0-18.48-32.11-22.38-28.29C1292.83,1609.2,1319.11,1633.66,1319.11,1633.66z"/>
			<path class="st32" d="M1331.59,1635.3c0.07-0.55-2.11-47.07,9.47-42.1C1352.64,1598.17,1331.59,1635.3,1331.59,1635.3z"/>
		</g>
		<path class="st32" d="M1302.6,1633.66c0,0,18.37-9.64,49.8-1.89c0,0,7.35,3.88,0,6.33
			C1345.06,1640.55,1290.84,1641.55,1302.6,1633.66z"/>
	</g>
	<g>
		<g>
			<path class="st32" d="M738.33,1638.69c0,0-10.33-59.03-17.97-46.9C712.71,1603.91,738.33,1638.69,738.33,1638.69z"/>
			<path class="st32" d="M730.34,1637.4c0,0-18.48-32.11-22.38-28.29C704.06,1612.93,730.34,1637.4,730.34,1637.4z"/>
			<path class="st32" d="M742.81,1639.04c0.07-0.55-2.11-47.07,9.47-42.1C763.87,1601.9,742.81,1639.04,742.81,1639.04z"/>
		</g>
		<path class="st32" d="M713.83,1637.4c0,0,18.37-9.64,49.8-1.89c0,0,7.35,3.88,0,6.33C756.28,1644.29,702.07,1645.28,713.83,1637.4
			z"/>
	</g>
	<polygon class="st4" points="2378.01,1645.22 1915.44,1645.04 2008.72,1568.18 2471.29,1568.35 	"/>
	<g>
		<path class="st49" d="M2580.7,1323.58c0,0-3.88,5.75-6.1,17.83c-1.94,10.58-3.64,14.49-6.44,16.66
			c-2.8,2.17-18.42,8.58-18.42,8.58l1.17,2.74c0,0,22.88-3.12,25.46-6.94c2.57-3.83,12.37-26.42,11.61-31.63
			S2580.7,1323.58,2580.7,1323.58z"/>
		<g>
			<path class="st14" d="M2564.9,1443.21c1.44,1.71-0.8,3.93-3.65,6.14c-2.85,2.2-1.54,2.19-5.07,5.74
				c-3.54,3.55-5.93,3.57-6.6,3.23c-0.6-0.3,0.75-2.37,2.16-4.63c0.18-0.28,0.35-0.57,0.53-0.86c1.57-2.56,1.42-5.47,1.88-8.57
				c0.43-2.94-1.95-9.73-1.95-9.73l4.68-5c0,0,2.02,6.2,3.01,8.76c0.58,1.51,2.05,2.62,3.22,3.43
				C2563.75,1442.15,2564.4,1442.6,2564.9,1443.21z"/>
			<path class="st50" d="M2561.26,1449.35c-2.85,2.2-1.54,2.19-5.07,5.74c-3.54,3.55-5.93,3.57-6.6,3.23
				c-0.6-0.3,0.75-2.37,2.16-4.63l0.06,0.01c0,0,3.52-1.01,6.18-4.19c2.17-2.59,3.65-5.99,5.13-7.79c0.64,0.44,1.29,0.89,1.79,1.5
				C2566.35,1444.92,2564.11,1447.14,2561.26,1449.35z"/>
		</g>
		<path class="st18" d="M2591.4,1370.35c0,0-44.53-3.35-52.92,1.94c-8.38,5.29,15.12,72.19,15.12,72.19s2.49-0.69,4.21-1.94
			c1.58-1.15,3.34-3.27,3.34-3.27s2.05-22.4-5.91-49.65c-0.87-2.98,36.17,6.49,42.01-3.81c5.84-10.3,1.01-20.49,1.01-20.49
			L2591.4,1370.35z"/>
		<g>
			<path class="st14" d="M2541.7,1456.98c0.21,2.23-2.9,2.77-6.5,2.95c-3.6,0.18-2.51,0.92-7.44,1.81
				c-4.93,0.89-6.91-0.46-7.27-1.12c-0.32-0.59,1.98-1.52,4.42-2.56c0.31-0.13,0.62-0.27,0.92-0.4c2.75-1.21,4.29-3.67,6.44-5.96
				c2.03-2.17,3.96-9.1,3.96-9.1l6.7-1.43c0,0-1.88,6.24-2.54,8.91c-0.38,1.57,0.18,3.32,0.69,4.65
				C2541.36,1455.45,2541.63,1456.19,2541.7,1456.98z"/>
			<path class="st50" d="M2535.2,1459.93c-3.6,0.18-2.51,0.92-7.44,1.81c-4.93,0.89-6.91-0.46-7.27-1.12
				c-0.32-0.59,1.98-1.52,4.42-2.56l0.04,0.04c0,0,3.47,1.18,7.47,0.09c3.26-0.88,6.42-2.84,8.67-3.46
				c0.27,0.73,0.54,1.47,0.62,2.25C2541.91,1459.21,2538.8,1459.75,2535.2,1459.93z"/>
		</g>
		<path class="st29" d="M2600.12,1373.11c0,0-39.56,1.87-47.73,7.49c-8.17,5.61-19.21,67.72-19.21,67.72s0.85,0.63,2.71,0.76
			c1.73,0.12,5.48-1.04,5.48-1.04s18.24-28.31,19.33-35.3c1.09-6.99,0.52-13.18,3.61-13.46c3.09-0.29,41.89,3.07,47.33-7.45
			C2617.08,1381.31,2600.12,1373.11,2600.12,1373.11z"/>
		<path class="st39" d="M2589.25,1321.85c-1-1.18-2.35-3.4-3.8-7.58c0.16,0.41,2.29,5.62,5.14,8.14
			c9.96,3.41,19.88,24.63,19.96,24.55c0,0,19.93-16.37,5.98-30.52c-5.44-5.52-7-11.88-7.86-16.33c-0.85-4.45-7.7-22.79-19.25-14.57
			c0,0-2.29-0.39-3.17-0.01c0,0,0.79-0.05,1.27,0.25c-1.51,0.29-3.6,0.95-5.12,2.41C2578.4,1292.04,2580.33,1317.05,2589.25,1321.85
			z"/>
		<path class="st14" d="M2601.78,1316.96c0,0-3.68-0.35-7.37,0c-2.5,0.24-4.98,1.01-6.39,1.6c-3.49,1.46-3.12,7.63,4.2,6.49
			C2599.53,1323.91,2602.29,1318.79,2601.78,1316.96z"/>
		<path class="st14" d="M2588.33,1321.47c-0.04,0.02-1.04,5.31,3.75,5.1c3.14-0.14,9.93-3.94,9.33-6.64
			c-0.28-1.28-2.66-4.6-3.14-12.18l-0.57,0.15l-9.63,2.58c0,0,0.43,3.05,0.63,5.95C2588.86,1318.86,2588.87,1321.17,2588.33,1321.47
			z"/>
		<path class="st49" d="M2588.07,1310.48c0,0,0.43,3.05,0.63,5.95c5.45-0.52,8-5.69,9-8.53L2588.07,1310.48z"/>
		<path class="st39" d="M2598.6,1306.22c0,0,1.65-5.1,1.36-9.02c-0.21-2.8-4.12-12.38-13.73-8.39c0,0-2.82,1.03-5.08,3.57
			c-1.79,2.02-4.11,5.98,1.61,13.75l1.66,2.69L2598.6,1306.22z"/>
		<path class="st14" d="M2587.81,1314.92c0,0,12.59-3.01,10.6-10.82c-2-7.81-1.71-13.46-9.84-11.87s-8.92,4.97-8.89,7.74
			C2579.71,1302.73,2584.48,1315.5,2587.81,1314.92z"/>
		<path class="st39" d="M2582.81,1293.5c0,0,5.78,8.28,11.4,8.29s7.54-1.99,7.54-1.99s-4.86-2.17-7.14-7.56
			C2594.61,1292.23,2584.28,1288.47,2582.81,1293.5z"/>
		<path class="st39" d="M2583.85,1294.02c0,0-2.04,2.7-2.15,4.85c-0.12,2.15,0.65,6.31-0.58,6.48c0,0-4.18-5.56-2.18-9.83
			C2581.07,1291,2583.85,1294.02,2583.85,1294.02z"/>
		<path class="st51" d="M2573.49,1371.03c1.05,1.25,4.31,1.63,7.8,2.21c2.75,0.45,5.63,1.02,7.69,2.23
			c4.66,2.74,19.89,11.98,24.35,11.56c1.73-0.16,1.41-3.47,0.36-7.85c-1.65-6.92-5.1-16.53-5.1-20.71c0-2.28-0.76-7.68-1.77-13.85
			c-0.08-0.5-0.17-1-0.25-1.51c-2.01-12-4.78-26.15-4.78-26.15s-3.1,6.76-9.13,6.76c-6.03,0-4.63-5.15-4.63-5.15
			s-5.51,0.65-6.81,2.05c-1.3,1.4-4.6,7.46-5.25,9.11c0,0-0.13,2.1,5.07,3.1c0,0-1.27,5.7-1.42,9.51c-0.11,2.81,1.92,11.6,2.5,17.07
			c0.21,1.94,0.23,3.46-0.08,4.15c-0.4,0.88-1.71,1.76-3.19,2.63C2575.91,1367.89,2572.25,1369.54,2573.49,1371.03z"/>
		<path class="st14" d="M2603.43,1321.42c0,0,4.59-2.79,9.03,2.5c4.44,5.29-3.16,43.11-9.74,45.06c-7.31,2.16-29.24,2.05-29.24,2.05
			l0.92-2.66c0,0,22.78-7.34,23.72-8.54C2599.06,1358.62,2601.1,1322.03,2603.43,1321.42z"/>
		<path class="st51" d="M2601.78,1316.96c0,0,9.43,0.85,12.17,3.95c2.74,3.1,3.54,11.51,3.54,11.51s-8.31,6.71-18.31,4.1
			L2601.78,1316.96z"/>
		<g>
			<path class="st39" d="M2543.24,1357.42l-0.9-8.27l11.7,15.42c0,0-4.9,2.44-5.19,1.97S2543.24,1357.42,2543.24,1357.42z"/>
			<polygon class="st52" points="2560.75,1357.42 2571.55,1373.92 2553.4,1373.92 2543.24,1357.42 			"/>
			<polygon class="st53" points="2543.24,1357.42 2542.39,1349.22 2548.5,1356.87 			"/>
			<polygon class="st53" points="2571,1373.07 2571.83,1372.48 2561.09,1356.52 2560.75,1357.42 			"/>
			<polygon class="st54" points="2561.09,1356.52 2543.99,1357 2543.24,1357.42 2560.75,1357.42 			"/>
		</g>
		<path class="st14" d="M2564.66,1370.64c0.33-0.04,0.76-0.04,1.17-0.01c-1.31-0.61-2.62-1.27-2.62-1.27s0.58-0.6,2.83,0.2
			c0.25,0.09,0.51,0.11,0.76,0.08l-3.15-1.41c0.56-0.5,2.07-0.1,3.24,0.33c0.84,0.31,1.77,0.17,2.48-0.38
			c0.01-0.01,0.02-0.02,0.03-0.03c-0.05-0.01-0.1-0.01-0.15-0.02c-1.84-0.27-2.3-1.32-1.79-1.2c0.51,0.12,3.59,0.34,3.59,0.34
			c1.39-0.08,4.15,0.98,4.15,0.98l-1.54,2.85c0,0-4.43,0.82-5.59,0.47c-0.09-0.03-0.21-0.07-0.33-0.12l0,0l-4.03-0.27
			C2563.7,1371.2,2563.77,1370.76,2564.66,1370.64z"/>
	</g>
	<g id="girl_2_6_">
		<path class="st17" d="M2264.35,1481.37c-0.61,0-29.39,16.74-27.15,22.04c2.25,5.31,38.78-11.82,38.78-11.82L2264.35,1481.37z"/>
		<path class="st16" d="M2269.91,1430.99c0,0-0.75-7.68,13.84-13.71c14.59-6.03,21.87,4.86,22.67,8.71
			c0.8,3.85,7.61,25.28-9.71,28.56C2279.4,1457.83,2269.91,1430.99,2269.91,1430.99z"/>
		<path class="st14" d="M2271.65,1493.29c3.24,2.25,7.31,4.11,12.42,5.29c19.14,4.42,26.48-11.76,29.23-22.86
			c-2.61-1.49-5.07-1.82-6.49-1.99c-1.38-0.16-2.84-0.27-4.04-0.33c-2.15-1.65-5.35-8.38-6.06-18.85l-0.9,0.24l-15.09,4.13
			c0,0,0.69,4.8,1.03,9.33c0.26,3.55,0.12,5.75,0.12,5.75c-1.18,0.25-2.38,2.44-2.38,2.44s0,0-0.01,0.01
			C2279.29,1476.78,2274.92,1483.98,2271.65,1493.29z"/>
		<path class="st17" d="M2280.73,1458.92c0,0,0.69,4.79,1.03,9.33c8.55-0.86,12.51-8.99,14.06-13.46L2280.73,1458.92z"/>
		<path class="st14" d="M2278.17,1463.42c0,0,20.29-1.12,19.4-13.74c-0.89-12.62,1.13-21.27-11.86-21.09
			c-12.99,0.18-15.16,5.18-15.89,9.46C2269.09,1442.34,2272.87,1463.39,2278.17,1463.42z"/>
		<path class="st16" d="M2269.91,1430.99c2.86-4.02,5.29-3.36,6.69-2.31c10.64-6.88,18.42,1.61,18.42,1.61
			c2,8.96,8.91,13.68,8.91,13.68s-3.53,2.55-12.2,0.97c-2.65-0.48-5.1-2.16-7.24-4.26c3.86,5.53,8.85,9.35,8.85,9.35
			c-10.51-3.97-15.61-17.82-16.12-19.29c-1.16,1.2-3.42,3.79-4,6.21c-0.78,3.29-1.56,6.68-3.51,6.6
			C2269.72,1443.53,2265.62,1437.02,2269.91,1430.99z"/>
		<path class="st48" d="M2319.08,1534.54c1.83-9.37,7.81-46.78,1.83-58.82c-2.15-4.33-10.56-4.72-19.8-4.34
			c-2.87,1.86-13.83,8.87-18.32,7.99c-0.05-0.01-0.14-0.03-0.25-0.06c-2.12-0.53-2.43-4.04-0.66-5.32c0,0-5.07,1.58-10.75,2.65
			c-3.21,0.6-12.9,7.15-12.9,7.15s5.4,5.8,11.82,8.52c-1.09,9.78,0.53,14.09,10.67,36.67c8.57,19.09-1.16,36.27-1.16,36.27
			s50.45,40.56,50.73,19.91C2330.51,1569.61,2316.74,1546.51,2319.08,1534.54z"/>
		<path class="st55" d="M2277.07,1609.35c-2.74-0.31-5.21-1.81-6.75-4.11c-0.24-0.37-0.5-0.76-0.78-1.17
			c-5.74-8.69-7.98-35.31-20.89-63.67c-3.15-6.9-14.44-8.15-17.52-15.95c0,0-7.58-25.3,14.51-26.04
			c22.08-0.75,59.15,70.39,59.73,77.85C2305.94,1583.48,2319.97,1614.19,2277.07,1609.35z"/>
		<path class="st56" d="M2189.29,1608.77h31.43c0,0,1.18-5.01-0.89-8.43c-1.83-3.02-1.13-4.74,0.23-7.24
			c-1.42,0.58-3.27,1.11-5.29,1c-1.57-0.09-3.22-0.8-4.67-1.64c-1.35,1.54-7.15,8.11-8.96,9.41
			C2199.08,1603.34,2189.92,1602.82,2189.29,1608.77z"/>
		<path class="st56" d="M2315.77,1485.52c0,0,4.09,37.22-22.44,45.02c-26.53,7.8-34.07-34.25-12.64-37.27
			C2302.11,1490.25,2315.77,1485.52,2315.77,1485.52z"/>
		<path class="st7" d="M2230.42,1505.71c-1.89,14.19-9.29,58.98-22.32,80.83c-4.2,7.04,10.59,11,10.67,10.97
			c1.98-0.52,5.29-3.68,6.81-5.06c10.58-9.54,32.07-36.55,32.07-58.21c0-10.56,0.19-30.73-7.49-35.85
			C2245.43,1495.24,2231.17,1500.08,2230.42,1505.71z"/>
		<path class="st20" d="M2295.81,1608.77c0,0-1.17-1.62-3.2-4.7c-2.42-3.66-5.09-10.87-8.34-20.1c-3.41-9.7-7.46-21.63-12.51-34.04
			c-1.56-3.83-3.22-7.71-4.98-11.58c-3.15-6.9-11.8-5.95-14.88-13.76c0,0-12.01-27.06,10.07-27.8
			c22.08-0.75,64.05,72.38,66.46,79.46C2331.09,1584,2343.97,1616.2,2295.81,1608.77z"/>
		<path class="st48" d="M2212.37,1608.77h31.43c0,0,1.17-5.01-0.89-8.43c-1.83-3.02-1.13-4.74,0.23-7.24
			c-1.42,0.58-3.27,1.11-5.29,1c-1.57-0.09-3.22-0.8-4.67-1.64c-1.35,1.54-7.15,8.11-8.96,9.41
			C2222.16,1603.34,2213,1602.82,2212.37,1608.77z"/>
		<path class="st7" d="M2284.28,1583.96c-3.41-9.7-7.46-21.63-12.51-34.04c1.32-9.4,4.17-17.63,8.96-20.95
			C2280.73,1528.98,2292.34,1564.97,2284.28,1583.96z"/>
		<path class="st20" d="M2248.76,1504.71c-1.89,14.19-4.56,59.99-17.6,81.84c-4.2,7.04,10.59,11,10.67,10.97
			c1.98-0.52,5.29-3.68,6.81-5.06c10.58-9.54,32.07-36.55,32.07-58.21c0-10.56-12.39-29.88-20.07-35.01
			C2255.92,1496.08,2249.52,1499.07,2248.76,1504.71z"/>
		<path class="st14" d="M2313.3,1475.72c0,0-44.62,16.43-51.32,16.09c-4.33-0.22-40.35-12.88-40.35-12.88l-3.23,6.12
			c0,0,35.06,22.53,44.69,22.42c19.03-0.22,51.13-11.9,54.75-14.19S2323.83,1478.04,2313.3,1475.72z"/>
		<path class="st14" d="M2221.64,1478.93c0,0-3.23-4.98-6.45-5.12c-3.22-0.15-8.78,2.19-10.68,2.56s-7.32,2.12-5.71,4.76
			c1.61,2.63,9.07,3.22,12.29,2.63c3.22-0.58,7.32,1.29,7.32,1.29L2221.64,1478.93z"/>
		<path class="st14" d="M2216.06,1473.96c0,0-5.12-2.35-6.58-2.79c-1.46-0.44-1.17,0.01-0.73,1.39c0.44,1.39,3.07,2.71,3.07,3.15
			C2211.82,1476.15,2216.06,1473.96,2216.06,1473.96z"/>
		<path class="st6" d="M2274.38,1456.16c0,0,1.92-0.76,7.31-0.32c0,0-0.29,2.11-4.27,2.31
			C2275.17,1458.27,2274.38,1456.16,2274.38,1456.16z"/>
		<path class="st48" d="M2290.32,1483.82c0,0,3.99,12.63,17.69,15.51c0,0,22.63-6.97,11.36-22.39
			C2319.38,1476.94,2308.23,1468.66,2290.32,1483.82z"/>
		<path class="st16" d="M2298.49,1418.05c0,0,5.21-7.35,18.52-3.52c13.32,3.83,6.58,20.21,11.02,24.8c4.44,4.59,10.41,14.04,0,17.89
			c-10.41,3.85-18.98,4.61-16.38-9.78c2.6-14.39,0.92-29.24-11.63-26.02L2298.49,1418.05z"/>
	</g>
	<g id="girl_2_3_">
		<path class="st57" d="M2085.51,1582.76c1.11-2.59,17.97-46.81,31.05-46.8c7.01,0,13.27,1.61,11.79,13.15s-14.37,74.13-22.48,73.24
			S2085.51,1582.76,2085.51,1582.76z"/>
		<path class="st57" d="M2132.91,1613.23c-0.24,1.89-0.65,5.82-0.2,8.06c0.13,0.62,0.67,1.06,1.3,1.06h21.06
			c1.01,0,1.65-1.09,1.15-1.96c-1.1-1.92-2.97-4.69-5.06-5.56c-2.63-1.1-5.04-2.63-5.93-3.21c-0.24-0.16-0.52-0.23-0.81-0.21
			l-10.29,0.68C2133.5,1612.13,2132.99,1612.6,2132.91,1613.23z"/>
		<path class="st16" d="M2138.95,1543.81c0,0,6.55,63.1,7.28,68.35c0,0-10.13,2.03-13.17,0c-3.04-2.03-15.75-35.89-15.48-41.97
			S2138.95,1543.81,2138.95,1543.81z"/>
		<path class="st16" d="M2096.02,1582.76c1.11-2.59,17.97-46.81,31.05-46.8c7.01,0,13.27,1.61,11.79,13.15
			c-1.47,11.54-14.37,74.13-22.48,73.24C2108.27,1621.46,2096.02,1582.76,2096.02,1582.76z"/>
		<path class="st16" d="M2046.22,1591.88c0,0-5.03,28.87,16.35,30.47c21.38,1.61,50.49,1.26,53.81,0s13.82-26.32-5.99-31.3
			C2090.58,1586.08,2046.22,1591.88,2046.22,1591.88z"/>
		<path class="st6" d="M2107.42,1552.34c1.74-8.9,7.42-44.44,1.74-55.88c-2.04-4.11-10.03-4.48-18.81-4.12
			c-2.73,1.76-13.13,8.42-17.41,7.59c-0.05-0.01-38.25,22.41-28.62,43.86c4.41,9.82,2.83,24.65,0.45,36.19
			c-2.04,9.92,4.11,19.67,13.96,22c22.98,5.42,51.47,2.46,51.65-10.92C2110.59,1576.29,2105.19,1563.71,2107.42,1552.34z"/>
		<path class="st14" d="M2096.73,1514.84c0,0,20.02,32.82,33.84,39.46c0,0,6.36-9.95-5.53-26.81s-16.42-34.5-20.04-32.98
			C2101.38,1496.02,2096.73,1514.84,2096.73,1514.84z"/>
		<path class="st14" d="M2127.07,1535.96c0,0,10.96-0.18,13.73,2.58c2.76,2.76-1.11,16.86-10.23,15.76L2127.07,1535.96z"/>
		<path class="st6" d="M2104.09,1493.11c0,0,5.39,0.1,10.41,11.57c0,0-5.21,20.32-15.99,18.52
			C2087.72,1521.4,2104.09,1493.11,2104.09,1493.11z"/>
		<path class="st16" d="M2085.22,1440.23c0,0-12.95-2.46-19.39,2.25c-11.68,8.53-12.3,37.93-16.68,42.31
			c-4.38,4.38-14.93,2.51-15.87,25.17s4.2,24.56-1.92,34.67c-6.12,10.12,2.59,20.24,2.59,20.24s-3.57-5.59-2.04-9.62
			c0,0,7.62,10.97,12.79,14.05c14.03,8.37,29.67,5.41,37.35,0.25c1.13-0.76,2.42-1.21,3.76-1.43c3.81-0.63,11.82-5.65,8.89-37.44
			c-1.61-17.45,9.49-34.88,4.85-42.47c0,0,2.06,3.25,2.32,6.86c0,0,2.78-5.33-2.04-10.29c-4.82-4.96,5.65-15.22,4.1-27.11
			C2102.87,1449.52,2097.14,1440.58,2085.22,1440.23z"/>
	</g>
	<path class="st32" d="M605,1664.59H240.77c-51.8,0-97.93-32.87-114.81-81.85c-1.44-4.2-2.79-8.17-3.99-11.79
		c-6.89-21.38-14.49-45.92-22.21-73.04c0,0,59.17-15.61,124.08,17.43c64.91,33.04,42.86,85.7,116.34,75.9
		c73.48-9.8,188.3-22.04,228.86,12.25C590.93,1621.99,600.68,1646.22,605,1664.59z"/>
	<path class="st32" d="M525.71,1597.97c0,0,24.32-39.19,39.1-33.37c14.78,5.82-32.98,33.37-32.98,33.37H525.71z"/>
	<path class="st32" d="M514.99,1588.78c0,0,4.29-25.98,14.7-24.78c10.41,1.2-5.2,24.78-5.2,24.78H514.99z"/>
	<path class="st32" d="M218.93,1531.25c0,0,34.29-41.04,45.92-38.29c11.63,2.75-40.21,39.64-40.21,39.64L218.93,1531.25z"/>
	<path class="st32" d="M212.05,1519.84c0,0,5.31-28.17,14.7-27.76c9.39,0.41-7.35,27.76-7.35,27.76H212.05z"/>
	<path class="st32" d="M236.74,1532.6c0,0,51.59-10.82,53.63,0C292.41,1543.42,236.74,1532.6,236.74,1532.6z"/>
	<path class="st32" d="M1879.45,1484.74c0,14.81-128.18,26.81-286.3,26.81c-158.12,0-286.3-12-286.3-26.81
		c0-14.81,128.18-26.81,286.3-26.81C1751.27,1457.92,1879.45,1469.93,1879.45,1484.74z"/>
	<path class="st58" d="M1484.63,1486.32c0,0-19.84-11.18-8.93-39.37c10.91-28.19,35.04-56.28,83.7-59.87
		c48.66-3.59,75.91-0.95,100.74,17.35c24.83,18.3,59.04,44.09,48.63,69.87S1524.8,1494.87,1484.63,1486.32z"/>
	<g>
		<path class="st39" d="M1272.75,1191.44c0,0-9.81,0.97-15.36,9.32c-3.85,5.8-3.16,19.43-8.38,24.11
			c-5.23,4.69-4.16,13.94,2.44,17.84s41.62,6.61,52.52-2.64c10.9-9.25-3.77-14.4-2.97-30
			C1301.37,1202.82,1291.14,1189.33,1272.75,1191.44z"/>
		<path class="st49" d="M1239.43,1343.67c0,0-5.31,5.32-6.11,7.08c-0.8,1.76-1.94,6.16,2.02,6.52c3.97,0.35,5.56-0.25,6.12-2.14
			c0.56-1.9,1.68-8.21,1.68-8.21L1239.43,1343.67z"/>
		<path class="st14" d="M1258.28,1252.49c0,0-10.23,2.8-13.16,16.22c-2.93,13.42-0.13,42.15-2.69,51.15
			c-2.56,9-5.75,25.46-5.75,25.46s3.61,2.9,7.43,2.72c0,0,19.55-28.63,19.72-36.36C1263.99,1303.94,1258.28,1252.49,1258.28,1252.49
			z"/>
		<path class="st16" d="M1336.06,1513.67c0,0,6.15,5.62,4.95,9.61c-1.2,3.99-6.75,6.65-7.51,11.53c-0.75,4.88-3.75,7.54-6.45,7.54
			c-2.7,0-12.88,0-12.88,0s-1.99-3.43,2.81-4.47c4.8-1.04,6.61-6.77,6.31-12.09c-0.3-5.32,0.45-12.42,0.45-12.42l10.21-2.37
			L1336.06,1513.67z"/>
		<path class="st16" d="M1283.97,1516.05c0,0,2.21,23.79-0.49,25.12l-34.58-0.07c0,0,0-3.99,5.55-4.88
			c5.55-0.89,15.31-4.14,16.96-11.38C1273.07,1517.6,1283.97,1516.05,1283.97,1516.05z"/>
		<path class="st14" d="M1308.61,1345.35c-7.12-15.96-11.47-20.54-10.64-25.49c0.62-3.69-1.88-68.73-1.88-68.73
			c-0.84-0.26-2.54-0.5-3.46-0.7c-2.92-0.65-5.33-2.7-6.34-5.51c-1.21-3.39-2.17-8.4-2.15-14.68l-0.91,0.18l-15.33,3.03
			c0,0,0.35,4.82,0.36,9.37c0,0.04,0,0.08,0,0.11c0.02,3.95-2.57,7.43-6.36,8.52c-1.94,0.56-3.62,1.04-3.62,1.04
			s-5.63,16.07-6.7,32.57s10.23,23.68-0.09,56.66C1240.95,1375.41,1312.54,1354.17,1308.61,1345.35z"/>
		<path class="st21" d="M1267.9,1233.45c0,0,0.35,4.82,0.36,9.37c8.58-0.24,13.11-8.07,14.97-12.4L1267.9,1233.45z"/>
		<path class="st14" d="M1265.04,1237.75c0,0,20.29,0.33,20.31-12.3c0.01-12.64,2.64-21.11-10.31-21.86
			c-12.96-0.75-15.48,4.07-16.51,8.29C1257.49,1216.1,1259.76,1237.34,1265.04,1237.75z"/>
		<path class="st39" d="M1265.79,1203.28c0,0,5.56,14.83,14.08,17.02c8.53,2.19,12.22-0.09,12.22-0.09s-6.54-5.2-7.9-14.26
			C1284.2,1205.95,1269.98,1196.22,1265.79,1203.28z"/>
		<path class="st39" d="M1267.16,1204.48c0,0-4.12,1.54-5.82,4.54c-1.66,2.94-3.07,6.83-2.74,11.6c0,0-4.19-10.08,0.52-15.78
			C1264.11,1198.81,1267.16,1204.48,1267.16,1204.48z"/>
		<path class="st47" d="M1269.45,1229.91c0,0-1.4,1.84-4.2,1.71c-2.26-0.11-3.13-2.06-3.13-2.06S1266.27,1228.56,1269.45,1229.91z"
			/>
		<path class="st6" d="M1305.85,1279.9c0,0-0.08,9.62-0.59,18.34c-0.34,5.78-0.87,11.16-1.7,13.08c-2.08,4.8-4.43,5.58-4.43,5.58
			l-18.16,4.45l-6.38,1.56l-20.13-6.01c0,0-9.17-25.59-5.49-40c3.68-14.41,9.31-24.41,9.31-24.41s16.43,16.08,37.82-1.36
			L1305.85,1279.9z"/>
		<path class="st7" d="M1255.74,1320.78c0,0-9.97,31.03-10.61,41.59c-0.64,10.57,19.06,150.08,19.85,154.95
			c0.75,4.59,6.44,7.51,6.44,7.51s2.62,1.55,6.36,0.49c5.19-1.46,6.83-3.22,6.83-3.22s7.76-99.5,2.96-135.05
			c-4.8-35.55-4.86-66.28-4.86-66.28H1255.74z"/>
		<path class="st20" d="M1297.97,1319.86c0,0,15.21,20.4,16.63,34.2c1.42,13.79,2.22,62.24,5.24,75.69
			c3.02,13.45,14.12,39.32,14.12,81.26c0,0-1.15,2.4-4.71,3.68c-1.14,0.41-2.66,0.81-4.15,1.15c-2.94,0.67-5.95-0.76-7.29-3.46
			c-7.5-15.11-31.4-63.82-32.63-73.94c-0.87-7.16-8.41-54.52-24.87-82.32c-3.95-6.67,2.42-33.21,2.42-33.21L1297.97,1319.86z"/>
		<path class="st6" d="M1269,1230.25c0,0-0.35,1.49-4.06,1.26c0,0-3.11-0.19-3.02-1.83
			C1261.93,1229.68,1264.94,1228.52,1269,1230.25z"/>
		<path class="st16" d="M1254.14,1315.99c0,0,4,3.17,11.95,3.33c9.5,0.19,33.03-2.42,33.03-2.42s1.05,2.92,1,6.01
			c0,0-28.74,7.25-45.39,1.06C1254.74,1323.96,1252.59,1319.92,1254.14,1315.99z"/>
		<g>
			
				<rect x="1296.64" y="1343.62" transform="matrix(0.9387 -0.3448 0.3448 0.9387 -386.8427 538.306)" class="st39" width="46.27" height="25.93"/>
			<path class="st59" d="M1293.59,1352.39c0,0,14,8.73,27.4,3.12c13.4-5.61,16.03-19.08,16.03-19.08L1293.59,1352.39z"/>
		</g>
		<g>
			<path class="st60" d="M1299.98,1352.35c-1.37,0.19-2.65-0.77-2.84-2.14c-0.19-1.37,0.77-2.64,2.14-2.84
				c1.37-0.19,2.64,0.77,2.84,2.14C1302.31,1350.89,1301.35,1352.16,1299.98,1352.35z M1299.39,1348.2
				c-0.92,0.13-1.56,0.98-1.43,1.89s0.98,1.56,1.9,1.43c0.92-0.13,1.56-0.98,1.43-1.89
				C1301.16,1348.72,1300.31,1348.07,1299.39,1348.2z"/>
		</g>
		<path class="st14" d="M1328.31,1354.82c0,0,0.02,3.67,0.71,5.45c0.7,1.77,2.79,4.13,3.48,4.13c0.7,0-0.64-3.69-0.29-3.62
			c0.35,0.07,2.03,6.14,3.25,6.29c1.22,0.15,2.33-6.81,1.69-9.54c-0.64-2.73-3.4-6.01-3.4-6.01L1328.31,1354.82z"/>
		<path class="st14" d="M1296.09,1251.13c0,0,11.23,1.52,17.27,13.43c4.67,9.2,7.87,38.13,11.17,47.24
			c3.15,8.72,6.39,23.68,8.82,37.19c0.19,1.05,0.42,2.54,0.42,2.54l-5.45,3.29c0.52,1-1.81-3.82-2.33-4.96
			c-8.49-18.68-10.92-27.21-15.94-41.48c-1.91-5.42-7.98-17.41-10.42-21.36c-5.91-9.58-10.52-13.28-7.2-24.03L1296.09,1251.13z"/>
		<path class="st49" d="M1237.36,1345.81c0,0-3.69,1.86-4.56,3.1s-2.44,2.88-1.48,3.08c0.96,0.2,3.79-1.92,3.79-1.92
			L1237.36,1345.81z"/>
		<path class="st14" d="M1233.33,1353.58c0,0,3.34-2.44,5.42-1.58c2.08,0.87,2.24,4.14,1.6,4.82c-0.64,0.68-5.87,1.44-7.27-0.4
			C1231.68,1354.58,1233.33,1353.58,1233.33,1353.58z"/>
		<path class="st6" d="M1261.9,1251.45c0,0,14.48,4.83,30.73-1.03c0,0,11.14,0.48,16.14,6.3c5,5.82,11.01,21.17,11.01,21.17
			s-5.77,12.1-21.83,12.33c-16.06,0.23-49.57-10.19-49.57-10.19s-4.24,1.35-7.7-1.21c0,0,3.52-16.75,8.75-21.52
			C1254.67,1252.54,1261.9,1251.45,1261.9,1251.45z"/>
		<g>
			<path class="st61" d="M1298.54,1348.05c-0.08-0.41-8.41-40.9-11.15-63.94c-1.44-12.1-0.77-20.86,0.05-26.08
				c0.89-5.69,3.05-8.28,3.1-8.39l0.88,0.13c-0.05,0.11-5.46,11.39-2.75,34.19c2.73,22.99,11.05,63.43,11.13,63.84L1298.54,1348.05z
				"/>
		</g>
	</g>
</g>
</svg>
