<?xml version="1.0" encoding="utf-8"?>
<!-- Generator: Adobe Illustrator 23.0.1, SVG Export Plug-In . SVG Version: 6.00 Build 0)  -->
<svg version="1.1" id="Layer_2" xmlns="http://www.w3.org/2000/svg" xmlns:xlink="http://www.w3.org/1999/xlink" x="0px" y="0px"
	 viewBox="0 0 2848 1780" style="enable-background:new 0 0 2848 1780;" xml:space="preserve">
<style type="text/css">
	.st0{fill:#FCECDB;}
	.st1{fill:#82B378;}
	.st2{fill:#FFB27D;}
	.st3{fill:#BC3F3F;}
	.st4{fill:#4A75CB;}
	.st5{fill:#233862;}
	.st6{fill:#ED985F;}
	.st7{fill:#2C3A64;}
	.st8{fill:#2B478B;}
	.st9{fill:#739AF0;}
	.st10{fill:#EE9849;}
	.st11{fill:#BBD4FF;}
	.st12{fill:#678FE5;}
	.st13{fill:#B56F40;}
	.st14{fill:#99592E;}
	.st15{fill:#74ACBE;}
	.st16{fill:#578E9B;}
	.st17{fill:#E58638;}
	.st18{fill:#FFF0E6;}
	.st19{fill:#163560;}
	.st20{fill:#5FABB7;}
	.st21{fill:#EF9E67;}
	.st22{fill:#A53D38;}
	.st23{fill:#C45446;}
	.st24{fill:#912F2F;}
	.st25{fill:#D9935C;}
	.st26{fill:#F1A34F;}
	.st27{fill:#D86713;}
	.st28{fill:#CB7D45;}
	.st29{fill:#B64C41;}
	.st30{fill:#466AA5;}
	.st31{fill:#D37129;}
	.st32{opacity:0.4;fill:#D86713;}
	.st33{fill:#FFB93E;}
	.st34{fill:#FFA412;}
	.st35{fill:#D17A33;}
	.st36{fill:#D2E4FF;}
	.st37{fill:#F9DDBF;}
</style>
<path class="st0" d="M357.14,1704.16c0,0-311.58-334.54-52.69-696.72c229.7-321.36,497.51-299.39,694-168.98
	c83.69,55.54,324.97,6.85,530.32-320.15c280.05-445.93,1250.82-175.47,1073.82,510.6c-85.66,332.01,260.68,344.08,84.21,675.95
	L357.14,1704.16z"/>
<path class="st1" d="M2609.31,1700.43h-98.72c-5.29-4.49,3.66-14.68,13.01-15.36c4.06-0.31,9.2,0.54,15.07,1.78
	c1.36-18.04,9.12-99.16,38.35-95.9c32.88,3.65,0,35.72-9.29,54.71c-6.89,14.06-14.15,34.23-17.47,43.75
	c2.67,0.58,5.43,1.14,8.25,1.66c4.36-13.38,20.57-58.38,41.19-55.76c24.21,3.07,14.48,21.11-2.68,31.82
	c-12.59,7.88-28.05,19.07-35.39,24.48c6.22,1.02,12.72,1.7,19.31,1.55C2597.86,1692.76,2606.12,1697.75,2609.31,1700.43z"/>
<path class="st1" d="M457.37,1696.91c-3.92-6.16-15.72-22.14-31.44-20.03c-17.12,2.3,18.91,13.59,29.94,20.08
	c-2.45,0.03-4.56-0.16-6.1-0.71c-7.38-2.63-20.01,2.41-24.05,4.18h70.22c-0.49-1.68-1.75-4.42-5.02-6.42
	c-1.15-0.7-3.47-0.8-6.46-0.58c4.18-4.92,7.08-20.64-4.55-16.6c-8.49,2.96-8.47,12.56-7.63,18.25c-1.81,0.28-3.64,0.57-5.45,0.83
	c-3.5-17.82-15.86-70.03-40.92-71.43c-25.41-1.41,21.55,54.15,37.18,71.92C461.08,1696.65,459.16,1696.83,457.37,1696.91z"/>
<g>
	<polygon class="st2" points="2244.84,1578.9 2237.21,1611.01 2227.07,1653.61 2195.42,1653.61 2193.53,1612.81 2192.07,1581.33 	
		"/>
	<path class="st3" d="M2345.16,879.82c0,0,25.05-26.8,41.34-5.79c16.29,21.02,34.34,35.21,59.33,51.37
		c24.99,16.16-22.09,142.87-53.39,140.26S2233.39,963.17,2345.16,879.82z"/>
	<path class="st4" d="M2220.43,867.07c6.25-4.67,63.83-24.44,119.96-5c56.13,19.44-43.48,73.59-43.48,73.59l-32.28,1.39
		L2220.43,867.07z"/>
	<path class="st5" d="M2182.9,1700.4c0,0,0-15.5,2.21-20.65s10.31-26.14,10.31-26.14h31.66c0,0,5.89,19.14,6.26,25.4
		c0.37,6.26,0,21.39,0,21.39H2182.9z"/>
	<path class="st5" d="M2383.91,1700.4c0,0,0-15.5-2.21-20.65c-2.21-5.15-10.31-26.14-10.31-26.14h-31.66c0,0-5.89,19.14-6.26,25.4
		c-0.37,6.26,0,21.39,0,21.39H2383.91z"/>
	<path class="st2" d="M2257.08,830.47c0,0-1.12,34.51-5.53,49.97l-34.96,75.36l131.61-31.28l-31.39-43.37c0,0-9.48-46.27-4.51-63.39
		C2317.26,800.65,2257.08,830.47,2257.08,830.47z"/>
	<path class="st6" d="M2256.88,835.23c0-0.01,10.41,25.05,30.01,24.5c19.6-0.55,24.06-22.72,24.06-22.72L2256.88,835.23z"/>
	<path class="st7" d="M2245.18,814.95c0,0-6.33-31.6-10.75-41.17c-4.42-9.57-8.1-52.27,40.86-54.48c0,0,18.77,2.21,29.08-4.05
		c0,0,0,6.26-2.58,8.47c0,0,16.93-4.05,30.19,10.68c13.25,14.73-8.83,66.27-7.73,78.41L2245.18,814.95z"/>
	<path class="st2" d="M2284.65,850.05c-14.2-0.25-40.35-19.17-40.35-42.59v-36.55c0-8.55,5.96-15.55,13.25-15.55h54.19
		c7.29,0,13.25,7,13.25,15.55v34.48C2325,829.96,2300.94,850.34,2284.65,850.05z"/>
	<path class="st7" d="M2244.3,790.43c0,0,0.07-21.96,17.47-25.34c17.39-3.38,56.32,10.7,61.85-5.31
		c5.52-16.01-75.25-15.74-79.31-5.52C2240.23,764.48,2244.3,790.43,2244.3,790.43z"/>
	<path class="st8" d="M2304.95,1171.01c8.71-27.12,8.54,112.26-26.44,269.03c-5.34,23.93-17.29,81.62-25.87,137.46h-71.66
		c-0.99-45.09-5.82-108.04-8.87-155.18c-9.54-147.78,14.75-258.69,14.75-258.69L2304.95,1171.01z"/>
	<path class="st8" d="M2396.9,1422.32c-0.79,45.19-9.97,105.21-10.8,149.21h-72.7c-4.88-31.94-12.64-64.83-18.21-91.36
		c-3.97-18.84-6.83-34.47-6.79-44.29c0.08-19.19-12.06-74.53-19.29-123.33c-0.01-0.07-0.02-0.14-0.03-0.2
		c-0.28-1.87-0.55-3.75-0.81-5.6c-9.68-68.6-6.27-135.74-6.27-135.74l122.67-7.67C2384.67,1163.35,2399.01,1301.81,2396.9,1422.32z"
		/>
	<path class="st5" d="M2177.15,1220.48c0,0,27.6,33.44,102.58,28.61c74.98-4.83,110.75-17.88,110.75-17.88L2177.15,1220.48z"/>
	<path class="st9" d="M2390.48,1231.22c-24.49,3.33-191.12,11.99-213.33-10.74c-22.21-22.73,36.26-332.78,36.26-332.78
		s6.62-1.92,17.8-4.02c5.7-1.07,12.57-2.19,20.35-3.12c0.09,2.42,2.02,38.97,32.37,54.07c0,0,36.45-14.6,32.88-53.48
		c-0.04-0.46-0.09-0.9-0.16-1.33c4.86,0.52,9.79,1.2,14.74,2.05c10,1.72,20.12,4.15,30.16,7.47
		C2361.54,889.34,2414.97,1227.9,2390.48,1231.22z"/>
	<path class="st9" d="M2178.55,1071.15c-0.99,1.29,5.66,10.83,15.03,23.1c19.28,25.2,50.12,61.87,50.12,61.87
		c-0.41,12.43-2.15,20.45-2.15,20.45c-42.36-20.02-71-38.74-89.99-53.78c-26.69-21.15-34.35-35.02-34.35-35.02
		c42.8-181.06,97.71-199.91,97.71-199.91l17.92,109.1C2232.85,996.97,2181.55,1067.22,2178.55,1071.15z"/>
	<path class="st10" d="M2331.38,881.87l-11.04,33.58l-14.71,21.61l-21.12,11.45l-19.88-11.45l-33.42-53.37
		c5.7-1.07,12.57-2.19,20.35-3.12c0.09,2.42,2.02,38.97,32.37,54.07c0,0,36.45-14.6,32.88-53.48c-0.04-0.46-0.09-0.9-0.16-1.33
		C2321.51,880.34,2326.43,881.02,2331.38,881.87z"/>
	<path class="st2" d="M2243.71,1156.12c-0.01,0.35-0.02,0.7-0.04,1.04c-0.09,2.29-0.23,4.44-0.4,6.38
		c-1.06,1.47-2.24,2.85-3.52,4.15c-1.95,1.97-4.05,3.62-6.2,5.02c-1.07-0.51-2.15-1.04-3.2-1.56
		c-36.28-17.96-61.53-34.68-78.79-48.35c10.96-3.37,26.31-11.08,42.02-28.56C2212.86,1119.45,2243.71,1156.12,2243.71,1156.12z"/>
	<path class="st9" d="M2454.08,1081.12c0,0-7.39,14.02-33.67,35.67c-18.7,15.4-46.97,34.66-88.95,55.49c0,0-1.89-7.99-2.54-20.41
		c0,0,30.13-37.26,48.93-62.82c9.13-12.45,15.59-22.11,14.58-23.38c-2.39-3-34.54-45.29-48.89-64.15c-4.16-5.48-6.82-8.98-6.82-8.98
		l18.16-107.27C2354.89,885.27,2407.83,900.91,2454.08,1081.12z"/>
	<path class="st2" d="M2420.41,1116.79c-17.06,14.04-42.09,31.3-78.22,50.05c-0.89,0.46-1.8,0.93-2.72,1.4
		c-4.61-5.57-7.42-12.21-9.12-18.12c0.6-0.75,1.39-1.74,2.34-2.92c8.66-10.8,30.4-38.08,45.16-58.15
		C2393.88,1106.22,2409.39,1113.62,2420.41,1116.79z"/>
	<path class="st2" d="M2316.64,879.82c-24.31-2.6-47.11-1.42-65.09,0.74c-0.01-0.08-0.01-0.13-0.01-0.13
		S2311.79,843.17,2316.64,879.82z"/>
	<g>
		<g>
			<polygon class="st11" points="2256.22,985.2 2254.99,985.2 2254.08,927.13 2257.2,927.13 			"/>
		</g>
		<path class="st10" d="M2254.86,983.69c-1.13,1.7-3.66,7.31-1.98,7.91c1.68,0.59,4.63,0.63,5.42-0.16
			C2259.1,990.64,2256.99,980.48,2254.86,983.69z"/>
	</g>
	<g>
		<g>
			<polygon class="st11" points="2313.25,985.2 2312.02,985.2 2311.11,927.13 2314.23,927.13 			"/>
		</g>
		<path class="st10" d="M2311.89,983.69c-1.13,1.7-3.66,7.31-1.98,7.91c1.68,0.59,4.63,0.63,5.42-0.16
			C2316.12,990.64,2314.02,980.48,2311.89,983.69z"/>
	</g>
	<path class="st4" d="M2264.63,937.06l-51.21-49.35c0,0-11.53-8.18,6.69-20.42C2238.33,855.05,2264.63,937.06,2264.63,937.06z"/>
	<path class="st4" d="M2305.62,937.06l51.21-49.35c0,0,11.53-8.18-6.69-20.42C2331.92,855.05,2305.62,937.06,2305.62,937.06z"/>
	<g>
		<path class="st12" d="M2369.9,1177.32c-9.98,0.84-18.3-1.66-24.72-7.39c-1.08-0.97-2.07-2-2.99-3.08
			c-5.06-5.92-7.9-13.36-9.5-19.64c-1.83-7.17-2.03-12.82-2.03-12.93l-0.04-1.45h-82.72l0.05,1.54c0.32,8.89-1.11,16.53-4.29,22.81
			c-1.57,3.14-3.58,5.95-6.02,8.4c-2.25,2.27-4.74,4.1-7.29,5.58c-11.07,6.41-23.39,6.17-23.55,6.17l-1.53-0.05v34.95h166.24v-35.03
			L2369.9,1177.32z"/>
	</g>
	<path class="st12" d="M2392.44,1065.67c0,0-46.11-60.5-9.61-78.12c14.49-6.99,34.89,76.04,23.95,83.84
		c-10.93,7.81-28.93,17.65-28.93,17.65L2392.44,1065.67z"/>
	<path class="st12" d="M2183.86,1055.69c0,0,16.02-75.97,1.96-68.14c-14.06,7.82-34.89,76.04-23.95,83.84
		c10.93,7.81,28.93,17.65,28.93,17.65L2183.86,1055.69z"/>
	<g>
		<path class="st3" d="M2385.97,1065.49c-21.06-26.14-28.92-68.58-27.85-112.38c0.81-32.89,5.32-62.57,5.61-63.61l17.27,13.45
			c-0.07,0.25-9.91,18.24-10.67,50.25c-0.7,29.27-2.08,51.55,14.46,102.5L2385.97,1065.49z"/>
	</g>
	<path class="st5" d="M2226.1,1593.67l-37.1-0.02c-3.28,0.37-8.42-4.44-8.42-11.31c0,0-0.08-16.48-1.17-19.41
		c-4.77-12.84,2.33-13.54,9.2-13.54h67.69c6.87,0-3.66,21.24-3.66,28.12l2.44,9.01C2255.08,1593.4,2232.97,1593.67,2226.1,1593.67z"
		/>
	<path class="st5" d="M2237.21,1611.01l-10.13,42.59h-31.66l-1.88-40.8C2198.25,1614.54,2214.13,1618.96,2237.21,1611.01z"/>
	<polygon class="st2" points="2322.03,1578.9 2329.66,1610.53 2339.79,1652.48 2371.45,1652.48 2373.34,1612.3 2374.8,1581.3 	"/>
	<path class="st5" d="M2340.77,1593.67l37.1-0.02c3.28,0.37,8.42-4.44,8.42-11.31c0,0,0.08-16.48,1.17-19.41
		c4.77-12.84-2.33-13.54-9.2-13.54h-67.69c-6.87,0,3.66,21.24,3.66,28.12l-2.44,9.01C2311.79,1593.4,2333.9,1593.67,2340.77,1593.67
		z"/>
	<path class="st5" d="M2329.66,1611.01l10.13,42.59h31.66l1.88-40.8C2368.62,1614.54,2352.74,1618.96,2329.66,1611.01z"/>
</g>
<g>
	<path class="st7" d="M755.45,749.87c-2.49-2.71-8.06-5.78-15.4-8.29c12.88-5.8,23.85-12.63,16.27-16.8
		c-3.28-1.81-7.19-1.55-11.32-0.05c6.35-6.42,9.4-11.94,3.21-13.39c-9.4-2.2-19.19,9.91-26.02,21.08
		c4.43-9.58,6.71-19.07-1.55-19.21c-9.52-0.16-11.38,12.47-11.22,23.4c-0.79,0-1.58,0.02-2.37,0.05
		c-2.68-12.08-7.89-27.11-16.76-23.1c-4.47,2.02-4.31,6.36-1.97,11.37c-4.2-3.22-8.35-4.33-11.64-0.92
		c-5.02,5.2,1.15,11.36,9.32,16.52c-5.78,2.1-11.25,5.14-16.08,9.36c-27.72,24.21,2.5,79.03,2.5,79.03l79.15-2.03
		C776.39,787.39,764.43,759.63,755.45,749.87z"/>
	<path class="st8" d="M674.72,1127.23l-47.27,5.96c-31.08,3.92-59.18-14-62.43-39.82l-17.98-142.66
		c-3.26-25.82,10.35-46.17,41.6-47.45c18.52-0.76,49.42-4.84,82.67-15.9c29.48-9.81,32.78,17.33,36.03,43.15l17.98,142.66
		C728.58,1098.98,705.81,1123.31,674.72,1127.23z"/>
	<path class="st5" d="M612.22,1704.73c0,0,0-15.2,2.17-20.26c2.17-5.06,10.11-25.64,10.11-25.64h31.05c0,0,5.78,18.78,6.14,24.92
		c0.36,6.14,0,20.98,0,20.98H612.22z"/>
	<path class="st5" d="M809.38,1704.73c0,0,0-15.2-2.17-20.26c-2.17-5.06-10.11-25.64-10.11-25.64h-31.05c0,0-5.78,18.78-6.14,24.92
		c-0.36,6.14,0,20.98,0,20.98H809.38z"/>
	<path class="st13" d="M684.97,851.46c0,0-1.09,33.85-5.43,49.02l-34.29,23.92l129.08,19.32l-30.78-42.54c0,0-9.29-45.39-4.42-62.18
		C744.01,822.21,684.97,851.46,684.97,851.46z"/>
	<path class="st14" d="M684.79,856.13c0-0.01,10.21,24.57,29.44,24.03c19.23-0.54,23.6-22.28,23.6-22.28L684.79,856.13z"/>
	<path class="st13" d="M712.02,870.67c-13.93-0.25-39.57-18.8-39.57-41.77v-35.85c0-8.39,5.85-15.25,13-15.25h53.15
		c7.15,0,13,6.86,13,15.25v33.82C751.59,850.96,728,870.95,712.02,870.67z"/>
	<path class="st10" d="M616.11,1178.25c0,0,5.43,165.9-2.69,260.57c-8.12,94.66,0.06,226.4,0.06,226.4s25.98,14.33,54.15,0
		c0,0,30.89-182.88,30.69-226.4c-0.21-46.35,33.62-253.33,33.62-253.33L616.11,1178.25z"/>
	<path class="st10" d="M808.26,1665.21c0,0-25.98,14.33-54.14,0c0,0-30.88-182.87-30.69-226.4c0.09-19.57-5.89-67.81-12.84-116.99
		c-9.5-67.28-20.79-136.34-20.79-136.34l120.32-7.52c0,0-9.92,166.19-1.8,260.84C816.45,1533.48,808.26,1665.21,808.26,1665.21z"/>
	<path class="st15" d="M787.44,909.21l0,0.07c-15.62-3.93-30.31-6.52-43.88-8.1c-11.98,15.91-20.58,19.61-31.53,23.94
		c-17.62-2.44-32.47-24.15-32.47-24.64c-25.59,2.62-40.07,8.01-40.07,8.01c-9.74,4.08-22.52,80.16-24.51,122.42
		c-0.25,5.31-0.33,10.07-0.22,14.1c1.04,36.25,2.5,71.47-2.17,110.49c-6.14,51.27,4.26,50.36,4.26,50.36s14,2.74,33.52,5.33
		c17.66,2.36,39.83,4.6,60.24,4.6c46.8,0,98.09-9.93,98.09-9.93c14.76,0.18-4.14-91.87-6.9-147.26
		c-0.64-12.86-1.24-24.61-1.79-35.33c17.73,15.28,69.91,43.12,71.1,46.67c0,0-11.39,20.78-14.85,31.86
		c-13.28,42.54-36.13,70.66-36.13,70.66c3.11,11.8,2.24,17.03,2.24,17.03c36.14-28.39,59.44-52.55,74.31-71.07
		c20.91-26.05,25.2-40.99,25.2-40.99C841.39,913.64,787.44,909.21,787.44,909.21z"/>
	<path class="st16" d="M650.35,1211.18c-19.52-2.59-33.52-5.33-33.52-5.33s-10.4,0.91-4.26-50.36c4.67-39.02,3.21-74.25,2.17-110.49
		c-0.12-4.03-0.03-8.8,0.22-14.1c2.99,4.79,36.31,58.6,45.28,98.6C666.78,1158.67,656.93,1193.03,650.35,1211.18z"/>
	<path class="st17" d="M723.43,1438.81c0.09-19.57-5.89-67.81-12.84-116.99c7.2-29.38,24.75-57.65,24.75-57.65
		C757.55,1326.46,723.43,1438.81,723.43,1438.81z"/>
	<path class="st13" d="M820.11,1172.46c0,0-19.5-18.05-27.44-7.94c-7.94,10.11-9.39,26-3.25,24.91c6.14-1.08,18.78-6.86,20.58-3.97
		c1.81,2.89,9.89,8.41,12.35,4.02C824.8,1185.1,820.11,1172.46,820.11,1172.46z"/>
	<path class="st13" d="M820.11,1172.46c3.11,11.8,2.24,17.03,2.24,17.03c36.14-28.39,59.44-52.55,74.31-71.07
		c-11.21-0.83-21.58-3.34-40.42-16.62C840.69,1149.24,820.11,1172.46,820.11,1172.46z"/>
	<path class="st16" d="M866.58,1066.26c-2.89-2.41-49.24-27.92-66.79-43.17c0,0,17.52-13.13,28.35,6.01
		C838.98,1048.25,866.58,1066.26,866.58,1066.26z"/>
	<path class="st16" d="M921.86,1077.42c0,0-4.29,14.94-25.2,40.99C872.46,1118.08,921.86,1077.42,921.86,1077.42z"/>
	<path class="st7" d="M672.44,807.59c0,0,9.67-29.52,41.35-24.91c31.68,4.6,34.43,11.37,37.79,19.23
		c3.37,7.85,9.87-28.71,9.87-28.71l-37.37-11.1c0,0-45.22,5.15-48.47,12.73c-3.25,7.58-3.25,7.58-3.25,7.58L672.44,807.59z"/>
	<g>
		<path class="st8" d="M615.27,1122.07l0.54-25.16c35.86-27.23,50.44-59.49,51.82-115.3c1.05-42.32-13.17-76.83-13.27-77.18
			c0,0,6.34-1.52,8.5-1.89c2.33-0.4,9.46-1.22,9.46-1.22c0.43,1.48,9.88,35.88,8.85,80.24
			C679.79,1041.03,654.1,1092.59,615.27,1122.07z"/>
	</g>
	<path class="st15" d="M714.68,1114.79c-12.11,1.82-74.17,16.22-118.4,21.81c-24.93,3.14-44.2,3.5-45.69-2.78
		c-4.11-17.42,9.88-128.4,32.13-173.07c22.24-44.68,63.47-54.32,63.47-54.32l11.73,70.73l-59.62,118.74l14.52,0.26l99.63,1.77
		L714.68,1114.79z"/>
	<g>
		<path class="st5" d="M745.92,1121.11H723.5c-2.72,0-4.94-2.22-4.94-4.94v-40.57c0-2.72,2.22-4.94,4.94-4.94h22.43
			c2.71,0,4.94,2.22,4.94,4.94v40.57C750.86,1118.89,748.64,1121.11,745.92,1121.11z"/>
		<path class="st8" d="M745.92,1125.17H723.5c-2.72,0-4.94-2.22-4.94-4.94v-40.57c0-2.72,2.22-4.94,4.94-4.94h22.43
			c2.71,0,4.94,2.22,4.94,4.94v40.57C750.86,1122.95,748.64,1125.17,745.92,1125.17z"/>
	</g>
	<path class="st13" d="M700.8,1101.82c0,0,32.78-22.59,43.52-14.74c10.75,7.84,11.6,26.54-32.96,28.08L700.8,1101.82z"/>
	<path class="st13" d="M714.68,1114.79c-12.11,1.82-74.17,16.22-118.4,21.81c3.87-18.87,9.97-31.71,16.54-40.45l99.63,1.77
		L714.68,1114.79z"/>
	<path class="st7" d="M746.75,810.81c-1.68-2.05-4.45-3.23-7.59-3.23H723.2c-3.03,0-5.15,0.87-6.3,2.59c-0.53,0.8-0.8,1.71-0.9,2.65
		c-2.68-0.67-5.28-0.33-7.09,0.13c-0.09-0.98-0.36-1.94-0.91-2.77c-1.14-1.72-3.27-2.59-6.3-2.59h-15.96
		c-3.15,0-5.92,1.18-7.59,3.23c-1.52,1.86-2.04,4.29-1.49,7.02c1.82,9.02,12.2,10.17,17.39,10.17c1.6,0,2.71-0.11,2.91-0.13
		c4.86-0.01,8.27-2.78,10.76-8.71c0.42-1.01,1.1-2.92,1.21-4.9c1.72-0.46,4.37-0.88,7.03-0.14c0.08,2.04,0.78,4.01,1.21,5.04
		c2.48,5.93,5.9,8.7,10.76,8.71c0.21,0.02,1.31,0.13,2.91,0.13c5.19,0,15.57-1.15,17.39-10.17
		C748.79,815.1,748.27,812.67,746.75,810.81z M706.75,818.75c-2.3,5.51-5.42,8.07-9.82,8.07l-0.06,0c-0.04,0-4.34,0.5-8.85-0.41
		c-5.92-1.2-9.4-4.16-10.33-8.79c-0.49-2.41-0.05-4.54,1.27-6.15c1.48-1.81,3.95-2.84,6.78-2.84h15.96c2.66,0,4.49,0.71,5.42,2.13
		c0.48,0.73,0.7,1.59,0.75,2.48c-0.81,0.26-1.33,0.49-1.4,0.52c-0.32,0.14-0.45,0.52-0.31,0.83c0.11,0.23,0.33,0.37,0.57,0.37
		c0.09,0,0.17-0.02,0.26-0.06c0.01-0.01,0.33-0.15,0.85-0.33C707.68,816.37,707.05,818.05,706.75,818.75z M747.21,817.63
		c-0.93,4.62-4.41,7.58-10.33,8.79c-4.51,0.92-8.81,0.42-8.85,0.41l-0.06,0c-4.39,0-7.51-2.56-9.82-8.07
		c-0.3-0.72-0.95-2.45-1.1-4.28c0.3,0.12,0.61,0.26,0.91,0.42c0.31,0.16,0.69,0.05,0.85-0.26c0.16-0.31,0.05-0.69-0.26-0.85
		c-0.5-0.26-1-0.47-1.51-0.64c0.06-0.85,0.28-1.68,0.74-2.37c0.94-1.41,2.76-2.13,5.42-2.13h15.96c2.83,0,5.3,1.04,6.78,2.84
		C747.25,813.09,747.69,815.21,747.21,817.63z"/>
	<path class="st18" d="M699.27,847.5c0,0,17.53-1.91,25.69,0c0,0-4.34,7.12-11.46,7.12C706.39,854.61,701.01,852.01,699.27,847.5z"
		/>
</g>
<g>
	<g>
		<path class="st19" d="M1504.23,792.38c-8.55-2.81-17.83-1.44-24.18,0.24c1.31-2.04,4.44-3.32,4.44-3.32
			c-4.11,0.21-12.21,5.96-12.21,5.96c-59.75-10.19-52.01,73.21-47.02,91.94c4.98,18.73-23.88,73.03-43.79,99.52
			c-55.88,74.33,33.47,151.74,33.47,151.74c72.43,60.83,39.52-57.13,39.52-57.13c-4.49-15.04,49.93-110.18,81.94-141.84
			c6.32-15.03,4.8-39.04,4.67-40.92c2.18,18.83,1.11,29.86-0.54,36.28C1565.96,899.79,1526.89,799.83,1504.23,792.38z"/>
		<path class="st3" d="M1652.93,1066.43c0,8.06-4.05,18.38-9.84,29.01c-14.41,26.49-39.6,54.9-39.6,54.9l-14.6-20.79
			c0,0,8.87-22.02,14.76-40.18c3.54-10.92,5.99-20.43,4.8-22.94c-3.19-6.68-66.41-81.46-66.41-81.46l-17.18-57.86
			c0,0,42.05,2.22,59.96,28.44C1602.73,981.78,1652.93,1044.72,1652.93,1066.43z"/>
		<path class="st2" d="M1643.09,1095.44c-14.41,26.49-39.6,54.9-39.6,54.9l-14.6-20.79c0,0,8.87-22.02,14.76-40.18
			C1610.73,1093.56,1622.99,1097.55,1643.09,1095.44z"/>
		<polygon class="st2" points="1468.35,1587.92 1483.48,1651.63 1506.14,1651.51 1506.97,1587.92 		"/>
		<polygon class="st2" points="1658.96,1590.63 1702.01,1651.63 1718.79,1630.09 1692.88,1582.25 		"/>
		<path class="st2" d="M1527.88,945.8c0.19,0.08-18.17,9.62-31.98,5.84c-12.99-3.54-21.48-20.39-21.3-20.42
			c5.5-1.09,7.09-8.65,6.97-41.14l2.49,0.49l41.82,8.28c0,0-0.95,13.16-0.98,25.56C1524.86,934.81,1525.49,944.69,1527.88,945.8z"/>
		<path class="st20" d="M1460.79,815.04c0,0,15.88-25.61,45.39-10.3C1506.19,804.75,1490.89,805.17,1460.79,815.04z"/>
		<path class="st21" d="M1525.87,898.84c0,0-0.95,13.16-0.98,25.56c-23.4-0.66-35.77-22.01-40.84-33.84L1525.87,898.84z"/>
		<path class="st19" d="M1475.44,892.03c0,0-15.85-16.57-22.01-32.23c-4.4-11.18-7.15-55.35,37.29-57.87c0,0,12.79-1.29,26.19,4.3
			c10.65,4.44,26.94,15.39,19.37,55.95l-1.38,13.46L1475.44,892.03z"/>
		<path class="st22" d="M1714.75,1616.16c0,0-11.12,1.92-20.24,2.61c-2.03,0.15-3.95,0.24-5.63,0.24c-4.39,0-12.31-1.65-17.63-2.89
			l-0.4-0.09c-2.33-0.55-4.11-1-4.78-1.18l-0.28-0.07c0,0-55.43-61.71-86.51-160.62c-0.72-2.31-1.49-4.63-2.3-6.98
			c-17.02-49.61-52.29-111.88-70.88-168.25c-2.96-8.97-5.62-17.43-8-25.42c-0.77-2.56-1.51-5.07-2.22-7.55
			c-13.7-47.6-17.66-78.84-21.32-112.23l111.75,28.43C1586.34,1162.16,1633.26,1365.56,1714.75,1616.16z"/>
		<path class="st2" d="M1533.19,905.46c0,0-54.09,11.83-60.95-21.97c-6.85-33.8-18.45-55.04,15.8-64.02s43.59,2.55,48.63,13.27
			C1541.7,843.47,1547.08,901.51,1533.19,905.46z"/>
		<path class="st19" d="M1512.59,813.66c0,0-6.87,42.66-28.49,53.12c-21.62,10.46-32.75,6.35-32.75,6.35s14.69-17.42,13.43-42.41
			C1464.79,830.71,1497.58,797.04,1512.59,813.66z"/>
		<path class="st19" d="M1509.56,817.62c0,0,12.88,6.62,17.32,14.68c4.44,8.06,9.23,25.54,14.27,23.9c0,0,5.76-29.22-9.89-41.93
			C1514.66,800.79,1509.56,817.62,1509.56,817.62z"/>
		<path class="st2" d="M1482.72,1648.07c0,0,1.82,12.62-2.88,26.12c0,0-3.71,16.9,12.93,17.21c16.64,0.31,20.73-1.26,18.84-11.62
			c-1.88-10.36-5.47-28.28-5.47-28.28L1482.72,1648.07z"/>
		<path class="st23" d="M1479.84,1674.2c0,0-3.69,17.75-1.81,26.23c0,0,5.63,1.97,17.72,1.97c11.46,0,18.2-1.97,18.2-1.97
			s-0.42-19.28-3.48-26.66C1510.47,1673.76,1498.68,1691.47,1479.84,1674.2z"/>
		<path class="st2" d="M1758.89,1681.48c0,0-30.68-34.06-40.1-51.39l-22.82,11.69l51,47.9l11.93-1.57L1758.89,1681.48z"/>
		<path class="st23" d="M1778.38,1701.44c0,0-32.97,0-38.63-0.63c-5.65-0.62-10.2-8.79-16.33-21.04c-2.51-5.01-8.13-7.77-13.9-9.29
			l0.11,29.94h-9.07l-8-31.72c-5.44-9.99-0.43-19.04,3.39-26.92c4.45-0.01,16.41,3.03,39.08,28.57
			c7.45,8.38,15.68,11.38,23.84,11.13c0.11,0.08,0.23,0.13,0.34,0.18C1778.07,1690.14,1778.38,1701.44,1778.38,1701.44z"/>
		<path class="st24" d="M1694.51,1618.77c-2.03,0.15-3.95,0.24-5.63,0.24c-4.39,0-12.31-1.65-17.63-2.89l-0.4-0.09l-4.78-1.18
			l-0.28-0.07c0,0-55.43-61.71-86.51-160.62c-0.72-2.31-1.49-4.63-2.3-6.98c-17.02-49.61-52.29-111.88-70.88-168.25
			c-2.96-8.97-5.62-17.43-8-25.42c-0.77-2.56-1.51-5.07-2.22-7.55l19.76-15c0,0,59.35,96.09,77.71,186.52
			C1608.6,1492.43,1674.16,1589.61,1694.51,1618.77z"/>
		<path class="st22" d="M1517.73,1425.9c0.34,43.97-1.89,145.07-7.61,186.94c0,0-5.43,4.8-18.9,4.86
			c-13.79,0.06-19.96-5.03-19.96-5.03c-14.37-72.78-24.59-132.99-32.03-184.88c-6.11-42.58-11.53-79.09-15.7-110.52
			c-3.7-27.85-6.41-51.71-7.71-72.29c-0.17-2.79-0.33-5.53-0.45-8.19c-0.16-3.53-0.29-6.95-0.35-10.27
			c-0.06-3.35-0.08-6.6-0.05-9.76l0.48-0.04l27.76-2.7l87.73-8.56C1529.45,1282.5,1517.54,1400.34,1517.73,1425.9z"/>
		<path class="st24" d="M1491.22,1617.7c-11.73,0.68-19.96-5.03-19.96-5.03c-14.37-72.78-24.59-132.99-32.03-184.88
			c-6.11-42.58-11.53-79.09-15.7-110.52c-3.7-27.85-6.41-51.71-7.71-72.29c-0.15-10.14-0.26-19.85-0.38-28.27
			c-0.13-8.54-0.26-15.76-0.5-20.79l28.26,18.09l29.74,19.02c0,0-42.18,38.37-31.82,110.91
			C1451.47,1416.48,1476.79,1607.43,1491.22,1617.7z"/>
		<path class="st3" d="M1601.77,1225.14c-33.65,8.75-190.69,26.01-192.05-13.32c-0.33-9.6,0-21.18,0.76-33.72
			c2.34-38.85,8.72-86.87,11.78-113.28c1.4-12.11-3.26-66.35,0.32-95.9c0.52-4.38,1.23-8.22,2.17-11.3
			c6.78-22.3,37.26-28.35,52.91-28.88l47.21-1.61c0,0,48.75,54.46,55.54,71.19s9,74.01,14.27,101.74
			C1599.94,1127.79,1618.14,1220.89,1601.77,1225.14z"/>
		<path class="st22" d="M1509.02,1092.21c0,0-26.25,80.61-98.54,85.88c2.34-38.85,8.72-86.87,11.78-113.28
			c1.4-12.11-3.26-66.35,0.32-95.9c0.94,0.2,1.79,0.72,2.78,0.91C1504.96,985.2,1516.26,1075.41,1509.02,1092.21z"/>
		<g>
			
				<rect x="1482.2" y="1006.04" transform="matrix(0.9944 0.1059 -0.1059 0.9944 121.9174 -155.424)" class="st8" width="84.32" height="128.33"/>
			<polygon class="st19" points="1489.23,1001.94 1483.85,1001.51 1471.22,1129.02 1475.64,1129.54 			"/>
		</g>
		<g>
			<path class="st2" d="M1418.53,1058.43c0,0,59.16,18.08,115.69,26.16c0,0,18.66,8.07,9.9,10.28
				c-2.24,0.57-115.46,25.25-132.25,9.24L1418.53,1058.43z"/>
			<path class="st3" d="M1477.65,928.73c0,0-31.1,0.17-44.38,15.32c-24.25,27.66-29.04,145.29-21.4,160.06
				c3.29,6.35,28.53,6.87,39.17-23.89C1456.57,1064.26,1480.68,957.73,1477.65,928.73z"/>
		</g>
		<path class="st2" d="M1528.65,1083.77c0,0,6.95-0.65,8.27-2.87c2.64-4.44,6.81-4.39,10.28-4.97c3.48-0.59,7.38-4.39,8.07-3.63
			s-2.56,4.96-4.38,6.53c0,0,3.73,0.23,6.2-0.95c2.47-1.18,9.99-10.9,11.18-6.81c3.12,10.76-0.12,21.1-8.75,21.94
			c-9.31,0.91-32.42,5.37-32.42,5.37L1528.65,1083.77z"/>
	</g>
</g>
<g>
	<g>
		<path class="st25" d="M1819.31,1133.72c-44.19-11.25-92.76-79.8-92.76-79.8l12.44-10.79c12.88,15.19,66.44,41.34,66.44,41.34
			c-0.29-13.9,0.08-26.57,0.95-38.11c5.94-78.42,35.51-104.54,43.57-110.28c1.3-0.93,2.05-1.32,2.05-1.32s0.03,0.57,0.08,1.65
			c0.12,2.33,0.33,7.03,0.55,13.47C1854.27,997.88,1856.23,1143.13,1819.31,1133.72z"/>
		<path class="st25" d="M1738.99,1043.13c-0.19-1.85-1.43-28.79-6.78-33.92c-5.35-5.13-15.92-12.11-18.96-11.55
			c-3.04,0.57-13.35,17.72-8.48,29.54c4.87,11.82,21.78,26.73,21.78,26.73L1738.99,1043.13z"/>
		<g>
			<path class="st26" d="M1749.97,1046.27l-29.1,1.22c-0.97,0.04-1.78-0.71-1.82-1.68l-2.32-55.49c-0.04-0.97,0.71-1.78,1.68-1.82
				l29.1-1.22c0.97-0.04,1.78,0.71,1.82,1.67l2.32,55.49C1751.68,1045.41,1750.93,1046.22,1749.97,1046.27z"/>
			<path class="st27" d="M1742.41,1046.58l-26.4,1.1c-1.71,0.07-3.16-1.26-3.23-2.97l-2.21-52.79c-0.07-1.71,1.26-3.16,2.97-3.23
				l26.4-1.1c1.71-0.07,3.16,1.26,3.23,2.97l2.21,52.79C1745.45,1045.06,1744.12,1046.51,1742.41,1046.58z"/>
		</g>
		<path class="st25" d="M1711.04,999.72c0,0,7.93-8.86,15.87-2.09c7.93,6.77-0.53,21.22-7.41,25.17c-6.88,3.95-9.09,6.01-9.09,6.01
			L1711.04,999.72z"/>
	</g>
	<path class="st28" d="M1915.53,1589.63c-2.69,10.7-5.65,20.89-8.67,30.38c-0.65,2.03-1.28,4.03-1.93,5.99
		c-0.32,0.97-0.65,1.93-0.96,2.88c-0.64,1.88-1.26,3.72-1.89,5.52c-0.82,2.35-1.63,4.64-2.44,6.85c-0.59,1.64-1.18,3.25-1.77,4.83
		c-8.96,24.03-16.47,39.26-16.47,39.26l-17.85-1.23c0,0,6.7-31.89,8.04-77.56c0.04-1.63,0.09-3.27,0.12-4.94
		c0.07-3.54,0.11-7.15,0.11-10.84c0-1.51-0.01-3.04-0.02-4.58c-0.36-39.34-5.23-85.83-20.77-130.22
		c-12.64-36.09-21.8-69.85-28.42-100.36c-21.38-98.5-16.36-163.21-16.36-163.21l100.44,11.75l4.68,0.55
		c0.42,46.13,1.61,108.77,2.65,157.74c0.18,8.5,0.35,16.59,0.51,24.11c0.69,31.44,1.22,52.94,1.22,52.94
		C1935.08,1481.07,1928.06,1539.77,1915.53,1589.63z"/>
	<path class="st5" d="M1886.77,847.53c0,0,23.76,20.23,1.97,43.52c0,0,18.16,1.78,24.3-3.25c0,0-1.21,2.45-2.33,3.55
		c0,0,20.3,0.73,28.68-5.6c8.38-6.33,3-110.18-53.34-98.57c0,0-47.75-3.61-43.3,51.65c4.45,55.25-13.58,55.25-13.58,55.25
		s5.01,2.47,7.43,2.47c0,0,3.54-1.35,4.24-3.31c0,0-0.7,3.07-1.61,4.05c0,0,19.46,1.84,29.18-5.5
		C1878.13,884.46,1889.54,858.93,1886.77,847.53z"/>
	<path class="st25" d="M1963.45,1181.13c-18.98-42.57-28.06-54.61-28.38-68c-0.25-10.59,4.97-22.02,15.12-50.04
		c2.39-6.6,4.04-13.39,5.05-20.26c8.02-54.03-23.22-112.43-42.63-116.41c-5.4-1.43-14.56-20.94-14.45-52.38l-2.43,0.48l-40.89,8.1
		c0,0,0.93,12.87,0.96,24.99c0.03,10.1-0.52,20.38-2.81,21.58c-2.94,0.27-5.62,0.8-5.62,0.8s-34.6,24.3-36.84,57.26
		c-2.99,44.03,28.05,96.22,0.53,184.21C1782.96,1261.33,1973.94,1204.65,1963.45,1181.13z"/>
	<path class="st28" d="M1854.84,882.61c0,0,0.93,12.87,0.96,24.99c22.88-0.65,34.97-21.52,39.93-33.09L1854.84,882.61z"/>
	<path class="st5" d="M1899.95,870.06c0,0,11.99-18.94,14.87-35.14c2.05-11.57-3.84-54.43-46.92-48.26c0,0-12.51,1.23-24.27,9.18
		c-9.35,6.32-22.85,19.95-7.76,57.36l3.92,12.64L1899.95,870.06z"/>
	<path class="st25" d="M1847.2,894.09c0,0,54.13,0.89,54.17-32.83c0.04-33.72,7.05-56.31-27.51-58.31
		c-34.56-2-41.29,10.86-44.04,22.12C1827.07,836.32,1833.12,892.99,1847.2,894.09z"/>
	<path class="st5" d="M1849.2,802.13c0,0,14.82,39.56,37.57,45.41c22.75,5.85,32.61-0.25,32.61-0.25s-17.45-13.86-21.07-38.05
		C1898.31,809.24,1860.38,783.3,1849.2,802.13z"/>
	<path class="st5" d="M1852.88,805.34c0,0-11.07,8.83-13.77,17.42c-2.7,8.59-3.91,26.26-9.06,25.66c0,0-11.17-26.89,1.38-42.1
		C1844.73,790.19,1852.88,805.34,1852.88,805.34z"/>
	<path class="st25" d="M2033.85,1226.35l-16.25,4.87c0,0-53.61-88.95-58.48-112.09c-1.59-7.54-5.49-22.61-10.04-39.51
		c-9.41-34.99-21.56-77.79-21.56-77.79l-4-17.33l-13.65-59.1c0,0,26.13,2.67,41.41,9.06c5.06,2.11,8.92,4.63,10.27,7.59
		c11.23,24.69,22.44,86.99,30.32,131.44c4.39,24.77,7.74,44,9.49,48.07C2006.24,1132.94,2021.13,1195.48,2033.85,1226.35z"/>
	<path class="st5" d="M1850.82,806.67c0,0,10.56,41.43,39.26,54.69c0,0-28.7-25.45-31.14-52.8
		C1856.51,781.22,1850.82,806.67,1850.82,806.67z"/>
	<path class="st25" d="M1973.14,1580.99c-5.78,61.63-31.21,101.49-31.21,101.49l-8.68,7.9c0,0-7.91-45.13-13.62-96.79
		c-5.44-49.1-12.9-101.07-21.34-116.93c-12.61-23.7-21.91-72.17-28.6-123.37c-11.06-84.73-14.98-176.99-14.98-176.99l101.84-5.05
		c10.25,17.22,14.71,45.46,15.77,77.57c1.12,33.76-1.54,71.81-5.23,105.81c-5.15,47.6-12.32,87.27-13.99,96.19
		c0,0.01,0,0.02-0.01,0.04c-0.22,1.17,0.12,2.35,0.67,3.41C1974.03,1494.38,1976.95,1540.26,1973.14,1580.99z"/>
	<path class="st10" d="M1854.3,1039.61c-2.29,55.94-10.66,111.34-35.02,107.77c-29.85-4.36-37.63-32.22-39.22-52.94
		c-0.98-12.89,0.44-23.02,0.44-23.02s14.69-0.07,17.07-2.26c11.28-10.42,7.93-112.65,13.52-123.27
		c5.59-10.61,41.83-17.43,41.83-17.43S1856.58,984.32,1854.3,1039.61z"/>
	<path class="st17" d="M1854.3,1039.61c-2.29,55.94-10.66,111.34-35.02,107.77c-29.85-4.36-37.63-32.22-39.22-52.94
		c7.33-0.37,20.23-2.16,25.36-9.98c7.34-11.2,30.24-83.26,30.24-83.26S1844.68,1017.39,1854.3,1039.61z"/>
	<path class="st5" d="M1915.53,1589.63c-2.69,10.7-5.65,20.89-8.67,30.38c-0.65,2.03-1.28,4.03-1.93,5.99
		c-0.32,0.97-0.65,1.93-0.96,2.88c-0.64,1.88-1.26,3.72-1.89,5.52c-0.82,2.35-1.63,4.64-2.44,6.85c-0.59,1.64-1.18,3.25-1.77,4.83
		c-8.96,24.03-16.47,39.26-16.47,39.26l-17.85-1.23c0,0,6.7-31.89,8.04-77.56c0.04-1.63,0.09-3.27,0.12-4.94
		c0.07-3.54,0.11-7.15,0.11-10.84c0-1.51-0.01-3.04-0.02-4.58c-0.36-39.34-5.23-85.83-20.77-130.22
		c-12.64-36.09-21.8-69.85-28.42-100.36c10.61,2.19,19.96-0.05,47.08-2.32c2.85-0.24,16.48,16.64,29.94,38.97
		c0.69,31.44,16.12,47.23,16.12,47.23C1935.08,1481.07,1928.06,1539.77,1915.53,1589.63z"/>
	<path class="st8" d="M1973.14,1580.99c-5.78,61.63-31.21,101.49-31.21,101.49l-8.68,7.9c0,0-7.91-45.13-13.62-96.79
		c-5.44-49.1-12.9-101.07-21.34-116.93c-12.61-23.7-21.91-72.17-28.6-123.37c9.38,3.9,41.27,14.03,97.39,1.34
		c-5.15,47.6-12.32,87.27-13.99,96.19c0,0.01,0,0.02-0.01,0.04c-0.22,1.17,0.12,2.35,0.67,3.41
		C1974.03,1494.38,1976.95,1540.26,1973.14,1580.99z"/>
	<path class="st8" d="M1992.65,1281.09c0,0-21.31,6.58-52.69,10.92c-38.86,5.37-93.19,7.31-141.71-10.92c0,0-4-72.2,7.5-109.83
		c11.5-37.65,16.87-55.65,16.87-55.65s46.06,11.55,92.84,2.59c6.57-1.25,13.15-2.92,19.62-5.07c0,0,28.86,61.27,36.79,87.52
		S1992.65,1281.09,1992.65,1281.09z"/>
	<path class="st5" d="M1992.65,1281.09c0,0-21.31,6.58-52.69,10.92c-57.56-32.64-29.49-169.98-29.49-169.98
		c1.71-1.39,3.38-2.67,4.99-3.84c6.57-1.25,13.15-2.92,19.62-5.07c0,0,28.86,61.27,36.79,87.52S1992.65,1281.09,1992.65,1281.09z"/>
	<path class="st10" d="M2039.77,1143.67c0,14.05-14.33,22.69-29.72,26.89c-14.79,4.04-30.55,3.99-35.47,0.69
		c-8.5-5.7-22.36-69.05-26.4-88.33c-0.73-3.5-1.14-5.54-1.14-5.54s-11.05,26.37-11.4,28.83c-0.16,1.11-0.29,2.63-0.39,3.97
		c-0.11,1.62-0.18,2.96-0.18,2.96s-59.96,30.27-112.45,2.47c0,0-21.34-123.33-12.08-144.55c4.6-10.55,28.61-32.31,38.22-41.7
		c2.16-2.11,1.94-6.29,1.11-10.11c-0.69-3.23,2.21-6.07,5.41-5.24c6.18,1.61,17.29,1.33,29.21-2.58c5.93-1.93,12.06-4.77,17.85-8.73
		c1.69-1.15,3.98-0.09,4.23,1.93c0.91,7.35,3.13,20.78,7.18,20.78c5.59-0.03,43.71,4.65,46.5,9.36
		c0.97,1.64,10.88,24.07,23.39,53.77c0,0,0.01,0.02,0.02,0.08C2007.15,1044.35,2039.77,1125.69,2039.77,1143.67z"/>
	<path class="st17" d="M1947.03,1077.38c0,0-11.05,26.37-11.4,28.83c-0.16,1.11-0.29,2.63-0.39,3.97
		c-5.34,4.36-11.8,7.67-18.38,9.67c-18.69,5.66-26.81-30.17-25.7-48.04c1.12-17.88,27.55-68.9,36.36-69.96
		C1936.32,1000.78,1947.03,1077.38,1947.03,1077.38z"/>
	<path class="st17" d="M1948.17,1082.92c-0.73-3.5-1.14-5.54-1.14-5.54C1947.61,1079.26,1947.99,1081.11,1948.17,1082.92z"/>
	<g>
		<path class="st29" d="M1871.53,1129.19c-34.12,0-48.19-11.74-49.23-12.54l-2.21-16.07c0.33,0.24,46.11,27.73,116.97,1.4
			l-1.5,12.17C1908.31,1124.29,1889.25,1129.19,1871.53,1129.19z"/>
	</g>
	<path class="st17" d="M2039.77,1143.67c0,14.05-14.33,22.69-29.72,26.89c21.21-25.25-25.19-178.04-26.38-181.94
		C2007.15,1044.35,2039.77,1125.69,2039.77,1143.67z"/>
	<path class="st17" d="M1913.75,925.4c0,0-28.55,18.08-50.14,13.8c0,0-5.18-3.27,1.97-6.57c6.71-3.08,22.33-12.21,18.9-21.22
		c5.93-1.93,12.06-4.77,17.85-8.73c1.69-1.15,3.98-0.09,4.23,1.93C1907.47,911.98,1909.69,925.4,1913.75,925.4z"/>
	<g>
		<path class="st5" d="M1891.68,1700.31h-11.4c-3.82-0.6-6.64-1.71-10.55-2.22c-5.95-0.78-8.68,1.66-9.23,2.22
			c-0.07,0.07-0.11,0.11-0.11,0.11h-48.41c-1.22-1.74-0.05-5.77,1.1-8.73c0.77-2.01,2.45-3.54,4.53-4.14
			c5.13-1.49,15.25-2.81,24.52-11.2c5.21-4.71,25.18-17.33,25.18-17.33l0.1-0.02c0.44,0.01,2.53,0.65,11.61,8.32
			c4.7,3.96,12.7-5.59,12.7-5.59s1.5,1.24,2.62,3.56c0.9,1.83,1.56,4.34,1.04,7.43c-0.72,4.36,1.61,12.47,3.47,17.95
			c1.13,3.32,2.08,5.68,2.08,5.68S1901.49,1699.09,1891.68,1700.31z"/>
		<path class="st30" d="M1894.35,1665.29c-2.72,1.92-8.46,5.69-12.27,6.19c-5.14,0.67-14.76-12.45-14.76-12.45l0.1-0.02
			c0.44,0.01,2.53,0.65,11.61,8.32c4.7,3.96,12.7-5.59,12.7-5.59S1893.23,1662.97,1894.35,1665.29z"/>
		<path class="st30" d="M1891.68,1700.31h-11.4c-3.82-0.6-6.64-1.71-10.55-2.22c-5.95-0.78-8.68,1.66-9.23,2.22
			c-0.07,0.07-0.11,0.11-0.11,0.11h-48.41c-1.22-1.74-0.05-5.77,1.1-8.73c1.47-1.31,1.88,5.68,2.7,6.79
			c0.81,1.11,39.49,0.41,41.73-1.22c2.23-1.63,8.93-4.47,18.28-2.23c8.13,1.94,20.11-3.04,23.08-4.36c1.13,3.32,2.08,5.68,2.08,5.68
			S1901.49,1699.09,1891.68,1700.31z"/>
	</g>
	<g>
		<path class="st5" d="M1952.5,1700.31h-11.4c-3.82-0.6-6.64-1.71-10.55-2.22c-5.95-0.78-8.68,1.66-9.23,2.22
			c-0.07,0.07-0.1,0.11-0.1,0.11h-48.41c-1.22-1.74-0.05-5.77,1.1-8.73c0.77-2.01,2.45-3.54,4.53-4.14
			c5.13-1.49,15.25-2.81,24.52-11.2c5.21-4.71,25.18-17.33,25.18-17.33l0.11-0.02c0.44,0.01,2.53,0.65,11.61,8.32
			c4.7,3.96,12.7-5.59,12.7-5.59s1.5,1.24,2.62,3.56c0.9,1.83,1.56,4.34,1.04,7.43c-0.72,4.36,1.61,12.47,3.47,17.95
			c1.13,3.32,2.08,5.68,2.08,5.68S1962.3,1699.09,1952.5,1700.31z"/>
		<path class="st30" d="M1955.17,1665.29c-2.72,1.92-8.46,5.69-12.27,6.19c-5.14,0.67-14.76-12.45-14.76-12.45l0.11-0.02
			c0.44,0.01,2.53,0.65,11.61,8.32c4.7,3.96,12.7-5.59,12.7-5.59S1954.05,1662.97,1955.17,1665.29z"/>
		<path class="st30" d="M1952.5,1700.31h-11.4c-3.82-0.6-6.64-1.71-10.55-2.22c-5.95-0.78-8.68,1.66-9.23,2.22
			c-0.07,0.07-0.1,0.11-0.1,0.11h-48.41c-1.22-1.74-0.05-5.77,1.1-8.73c1.47-1.31,1.88,5.68,2.7,6.79
			c0.81,1.11,39.49,0.41,41.73-1.22c2.23-1.63,8.93-4.47,18.28-2.23c8.13,1.94,20.11-3.04,23.08-4.36c1.13,3.32,2.08,5.68,2.08,5.68
			S1962.3,1699.09,1952.5,1700.31z"/>
	</g>
	<g>
		<path class="st31" d="M2074.12,1295.6c-1.13-5.66-5.1-10.26-10.51-12.27c-8.77-3.25-23.14-6.19-40.8-1
			c-29.81,8.76-32.73,27.09-30.76,40.27s-3.87,34.18-3.01,49.13c0.86,14.95,5.14,52.49,27.21,50.52
			c22.08-1.97,93.23-21.09,93.23-21.09s12.29-23.39-12.96-57.28C2081.54,1323.78,2076.09,1305.47,2074.12,1295.6z"/>
		<g>
			<g>
				<path class="st31" d="M2060.46,1278.33l-5.9,0.53c0-0.01-0.68-4.08-3.39-6.65c-2.08-1.97-4.97-2.68-8.56-2.1
					c-3.4,0.54-5.85,2.1-7.09,4.62c-1.75,3.53-0.78,8.09-0.77,8.14l-5.75,1.33c-0.07-0.31-1.74-7.71,1.28-13.93
					c2.07-4.29,5.78-6.77,10.91-7.73c5.29-0.85,9.76,0.44,13.3,3.84C2059.36,1271.07,2060.42,1278.04,2060.46,1278.33z"/>
			</g>
			<g>
				<path class="st26" d="M2124.1,1397.82c0,0-71.16,19.17-93.25,21.1c-22.07,2.01-26.37-35.54-27.18-50.53
					c-0.87-14.9,4.95-35.92,3.01-49.13c-0.4-2.5-0.63-5.27-0.45-8.06c0.57-11.76,7.15-25.11,31.16-32.16
					c17.71-5.22,32.03-2.24,40.84,1.01c5.38,2.01,9.4,6.59,10.52,12.24c0.26,1.15,0.5,2.55,0.81,3.93
					c2.54,10.49,8.4,26.77,21.59,44.37C2136.41,1374.44,2124.1,1397.82,2124.1,1397.82z"/>
				<path class="st32" d="M2014.42,1371.54l42.89-9.71c0,0,9.98,30.71-10.29,36.31C2026.75,1403.74,2018.34,1391.85,2014.42,1371.54
					z"/>
				<path class="st31" d="M2014.42,1371.54c0,0,9.9,9.54,23.27,6.17c13.37-3.36,19.62-15.88,19.62-15.88L2014.42,1371.54z"/>
				<path class="st32" d="M2066.01,1359.87l42.89-9.7c0,0,9.98,30.71-10.29,36.31C2078.34,1392.07,2069.93,1380.18,2066.01,1359.87z
					"/>
				<path class="st31" d="M2066.01,1359.87c0,0,9.9,9.54,23.27,6.17c13.37-3.36,19.62-15.88,19.62-15.88L2066.01,1359.87z"/>
				<path class="st32" d="M2088.76,1292.29c0.26,1.15,0.5,2.55,0.81,3.93c-5.67,11.7-16.42,26.65-34.61,30.12
					c-30.93,6.03-48.72-15.14-48.72-15.14c0.57-11.76,7.15-25.11,31.16-32.16c17.71-5.22,32.03-2.24,40.84,1.01
					C2083.62,1282.06,2087.64,1286.65,2088.76,1292.29z"/>
				<path class="st27" d="M2055.4,1332.82L2055.4,1332.82c-1.94,0.44-3.88-0.79-4.32-2.72l-0.72-3.2c-0.44-1.94,0.79-3.88,2.72-4.32
					l0,0c1.94-0.44,3.88,0.79,4.32,2.72l0.72,3.2C2058.56,1330.44,2057.33,1332.38,2055.4,1332.82z"/>
			</g>
		</g>
	</g>
	<path class="st25" d="M2032.7,1223.64c0,0,4.94,11.64,10.08,14.89s10.03,11.05,11.1,17.33c1.96,11.53-6.88,18.68-13.38,18.68
		s-12.71-8.86-16.53-30.02c-0.21-1.16-6.38-13.3-6.38-13.3L2032.7,1223.64z"/>
</g>
<g>
	<path class="st5" d="M1183.07,786.98c-7.76-11.79-38.59-5.19-68.85,14.74c-30.26,19.93-48.5,45.64-40.74,57.43
		c7.77,11.79,38.59,5.19,68.85-14.74C1172.6,824.48,1190.84,798.77,1183.07,786.98z"/>
	<g>
		<path class="st3" d="M1024.97,1225.04l5.97,0.36c-0.05-0.13,2.32-104.34,11.47-146.5c17.03-78.55,61.54-140.05,62.03-140.57
			l-10.7-3.43c-0.53,0.57-8.97,13.64-20.92,37.77c-11.02,22.23-28.73,59.27-36.55,102.4
			C1028.55,1117.65,1024.75,1224.48,1024.97,1225.04z"/>
	</g>
	<path class="st22" d="M1132.95,786.05c0,0-39.05-8.33-57.8,23.43c-18.75,31.76-19.79,86.96-32.28,105.01
		c-12.5,18.05-34.54,94.24-11.11,111.29c23.43,17.05,167.78-0.63,175.88-8.4c8.1-7.77-0.49-87.78-14.59-110.96
		C1178.95,883.25,1213.31,774.25,1132.95,786.05z"/>
	<path class="st2" d="M1191.13,1133.72c44.19-11.25,92.76-79.8,92.76-79.8l-12.44-10.79c-12.88,15.19-66.44,41.34-66.44,41.34
		c0.29-13.9-0.08-26.57-0.95-38.11c-5.94-78.42-35.5-104.54-43.57-110.28c-1.3-0.93-2.05-1.32-2.05-1.32s-0.03,0.57-0.08,1.65
		c-0.12,2.33-0.33,7.03-0.55,13.47C1156.16,997.88,1154.21,1143.13,1191.13,1133.72z"/>
	<path class="st2" d="M1271.45,1043.13c0.19-1.85,1.43-28.79,6.78-33.92c5.35-5.13,15.92-12.11,18.95-11.55
		c3.04,0.57,13.35,17.72,8.48,29.54c-4.87,11.82-21.78,26.73-21.78,26.73L1271.45,1043.13z"/>
	<path class="st2" d="M1094.91,1589.63c2.69,10.7,5.65,20.89,8.67,30.38c0.65,2.03,1.28,4.03,1.93,5.99
		c0.32,0.97,0.65,1.93,0.96,2.88c0.64,1.88,1.26,3.72,1.89,5.52c0.82,2.35,1.63,4.64,2.44,6.85c0.59,1.64,1.18,3.25,1.76,4.83
		c8.96,24.03,16.47,39.26,16.47,39.26l17.85-1.23c0,0-6.7-31.89-8.04-77.56c-0.04-1.63-0.09-3.27-0.12-4.94
		c-0.07-3.54-0.11-7.15-0.11-10.84c0-1.51,0.01-3.04,0.02-4.58c0.36-39.34,5.23-85.83,20.77-130.22
		c12.64-36.09,21.8-69.85,28.42-100.36c21.38-98.5,16.36-163.21,16.36-163.21l-100.44,11.75l-4.68,0.55
		c-0.43,46.13-1.61,108.77-2.65,157.74c-0.18,8.5-0.35,16.59-0.51,24.11c-0.69,31.44-1.22,52.94-1.22,52.94
		C1075.36,1481.07,1082.38,1539.77,1094.91,1589.63z"/>
	<path class="st2" d="M1046.98,1181.13c18.98-42.57,28.06-54.61,28.38-68c0.25-10.59-4.97-22.02-15.12-50.04
		c-2.39-6.6-4.04-13.39-5.05-20.26c-8.02-54.03,23.22-112.43,42.63-116.41c5.4-1.43,14.56-20.94,14.45-52.38l2.43,0.48l40.89,8.1
		c0,0-0.93,12.87-0.96,24.99c-0.03,10.1,0.52,20.38,2.81,21.58c2.94,0.27,35.04,6,40.88,15.21c5.74,9.06-0.66,9.89,1.58,42.85
		c2.98,44.03-28.05,96.22-0.53,184.21C1227.48,1261.33,1036.5,1204.65,1046.98,1181.13z"/>
	<path class="st21" d="M1155.6,882.61c0,0-0.93,12.87-0.96,24.99c-22.88-0.65-34.97-21.52-39.93-33.09L1155.6,882.61z"/>
	<path class="st2" d="M1163.24,894.09c0,0-54.13,0.89-54.17-32.83c-0.04-33.72-7.05-56.31,27.51-58.31
		c34.56-2,41.29,10.86,44.04,22.12C1183.37,836.32,1177.32,892.99,1163.24,894.09z"/>
	<path class="st22" d="M1161.23,802.13c0,0-14.82,39.56-37.57,45.41c-22.75,5.85-32.61-0.25-32.61-0.25s17.45-13.86,21.07-38.05
		C1112.12,809.24,1150.05,783.3,1161.23,802.13z"/>
	<path class="st22" d="M1157.56,805.34c0,0,11.07,8.83,13.77,17.42c2.7,8.59,3.91,26.26,9.07,25.66c0,0,11.17-26.89-1.38-42.1
		C1165.7,790.19,1157.56,805.34,1157.56,805.34z"/>
	<path class="st2" d="M976.58,1226.35l16.25,4.87c0,0,53.61-88.95,58.48-112.09c1.59-7.54,5.49-22.61,10.04-39.51
		c9.41-34.99,21.56-77.79,21.56-77.79l4-17.33l13.65-59.1c0,0-26.13,2.67-41.41,9.06c-5.06,2.11-8.92,4.63-10.27,7.59
		c-11.23,24.69-22.44,86.99-30.32,131.44c-4.39,24.77-7.74,44-9.49,48.07C1004.2,1132.94,989.31,1195.48,976.58,1226.35z"/>
	<path class="st22" d="M1159.62,806.67c0,0-10.56,41.43-39.26,54.69c0,0,28.7-25.45,31.14-52.8
		C1153.93,781.22,1159.62,806.67,1159.62,806.67z"/>
	<path class="st2" d="M1037.29,1580.99c5.78,61.63,31.21,101.49,31.21,101.49l8.68,7.9c0,0,7.91-45.13,13.62-96.79
		c5.44-49.1,12.9-101.07,21.34-116.93c12.61-23.7,21.91-72.17,28.6-123.37c11.06-84.73,14.98-176.99,14.98-176.99l-101.84-5.05
		c-10.25,17.22-14.7,45.46-15.76,77.57c-1.12,33.76,1.54,71.81,5.23,105.81c5.15,47.6,12.32,87.27,13.99,96.19
		c0,0.01,0,0.02,0.01,0.04c0.22,1.17-0.12,2.35-0.67,3.41C1036.41,1494.38,1033.48,1540.26,1037.29,1580.99z"/>
	<path class="st33" d="M1230.37,1094.45c-1.58,20.71-9.36,48.58-39.21,52.93c-10.56,1.54-18.11-7.99-23.47-23.85
		c-7.01-20.72-10.26-52.24-11.55-83.93c-1.24-30.01-0.73-60.2,0-81.52c12.25-1.38,34.72-11.76,41.61-14.34
		c0.2,0.21,0.4,0.43,0.57,0.65c0.14,0.17,0.28,0.34,0.41,0.52c0.24,0.33,0.44,0.66,0.61,0.99c2.98,5.66,3.42,37.39,4.89,67.34
		c1.28,26.21,3.36,51.06,8.62,55.93c2.39,2.19,17.07,2.26,17.07,2.26S1231.36,1081.56,1230.37,1094.45z"/>
	<path class="st34" d="M1156.14,1039.61c2.29,55.94,10.66,111.34,35.01,107.77c29.85-4.36,37.63-32.22,39.22-52.94
		c-7.33-0.37-20.23-2.16-25.36-9.98c-7.34-11.2-30.25-83.26-30.25-83.26S1165.76,1017.39,1156.14,1039.61z"/>
	<path class="st8" d="M1187.82,1115.6c0,0-59.91,15.03-112.46-2.47c0,0-28.85,61.26-36.79,87.52
		c-7.94,26.25-67.9,362.29-67.9,362.29s131.97,38.17,219.67,5.21c0,0,25.85-359.25,14.35-396.89
		C1193.2,1133.61,1187.82,1115.6,1187.82,1115.6z"/>
	<path class="st33" d="M1204.24,1013.01c-4.38,43.31-16.41,102.05-16.41,102.05c-6.63,3.51-13.39,6.08-20.14,7.91
		c-46.55,12.65-92.31-10.37-92.31-10.37s-0.07-1.34-0.19-2.96c-0.09-1.34-0.23-2.84-0.39-3.96c-0.34-2.45-11.39-28.74-11.39-28.74
		s-0.42,2.05-1.15,5.54c-4.04,19.22-17.9,82.38-26.4,88.07c-4.93,3.28-20.68,3.33-35.47-0.7c-15.39-4.18-29.72-12.8-29.72-26.81
		c0-17.93,32.61-99.02,56.1-154.58c0.01-0.06,0.02-0.08,0.02-0.08c12.51-29.62,19.77-50.23,29.34-52.53c0,0,64.35,26.19,100,22.17
		c12.25-1.38,34.72-11.72,41.61-14.3c0.2,0.21,0.4,0.43,0.57,0.64c0.14,0.17,0.28,0.34,0.41,0.52c0.14,0.19,0.26,0.38,0.38,0.57
		c5.22,7.7,4.4,20.46,4.67,25.33C1204.29,980.31,1206.19,993.63,1204.24,1013.01z"/>
	<path class="st34" d="M1063.4,1077.38c0,0,11.05,26.37,11.4,28.83c0.16,1.11,0.29,2.63,0.39,3.97c5.34,4.36,11.8,7.67,18.38,9.67
		c18.69,5.66,26.81-30.17,25.7-48.04c-1.12-17.88-27.55-68.9-36.36-69.96C1074.12,1000.78,1063.4,1077.38,1063.4,1077.38z"/>
	<path class="st17" d="M1062.26,1082.92c0.73-3.5,1.14-5.54,1.14-5.54C1062.82,1079.26,1062.44,1081.11,1062.26,1082.92z"/>
	<g>
		<path class="st19" d="M1139.44,1127.03c34.12,0,47.66-9.58,48.7-10.38l2.21-16.07c-0.33,0.24-46.11,27.73-116.97,1.4l1.5,12.17
			C1102.13,1124.29,1121.71,1127.03,1139.44,1127.03z"/>
	</g>
	<path class="st34" d="M970.67,1143.67c0,14.05,14.33,22.69,29.72,26.89c-21.21-25.25,25.19-178.04,26.38-181.94
		C1003.28,1044.35,970.67,1125.69,970.67,1143.67z"/>
	<g>
		<path class="st5" d="M1118.76,1700.31h11.4c3.82-0.6,6.64-1.71,10.55-2.22c5.95-0.78,8.68,1.66,9.23,2.22
			c0.07,0.07,0.11,0.11,0.11,0.11h48.41c1.22-1.74,0.05-5.77-1.1-8.73c-0.77-2.01-2.45-3.54-4.53-4.14
			c-5.13-1.49-15.25-2.81-24.52-11.2c-5.21-4.71-25.18-17.33-25.18-17.33l-0.1-0.02c-0.44,0.01-2.53,0.65-11.61,8.32
			c-4.7,3.96-12.7-5.59-12.7-5.59s-1.5,1.24-2.62,3.56c-0.9,1.83-1.56,4.34-1.04,7.43c0.72,4.36-1.61,12.47-3.47,17.95
			c-1.13,3.32-2.08,5.68-2.08,5.68S1108.95,1699.09,1118.76,1700.31z"/>
		<path class="st30" d="M1116.08,1665.29c2.72,1.92,8.46,5.69,12.27,6.19c5.14,0.67,14.76-12.45,14.76-12.45l-0.1-0.02
			c-0.44,0.01-2.53,0.65-11.61,8.32c-4.7,3.96-12.7-5.59-12.7-5.59S1117.2,1662.97,1116.08,1665.29z"/>
		<path class="st30" d="M1118.76,1700.31h11.4c3.82-0.6,6.64-1.71,10.55-2.22c5.95-0.78,8.68,1.66,9.23,2.22
			c0.07,0.07,0.11,0.11,0.11,0.11h48.41c1.22-1.74,0.05-5.77-1.1-8.73c-1.47-1.31-1.88,5.68-2.7,6.79
			c-0.81,1.11-39.49,0.41-41.73-1.22c-2.23-1.63-8.94-4.47-18.28-2.23c-8.13,1.94-20.11-3.04-23.08-4.36
			c-1.13,3.32-2.08,5.68-2.08,5.68S1108.95,1699.09,1118.76,1700.31z"/>
	</g>
	<g>
		<path class="st5" d="M1057.94,1700.31h11.4c3.82-0.6,6.64-1.71,10.55-2.22c5.95-0.78,8.68,1.66,9.23,2.22
			c0.07,0.07,0.11,0.11,0.11,0.11h48.41c1.22-1.74,0.05-5.77-1.1-8.73c-0.77-2.01-2.45-3.54-4.53-4.14
			c-5.13-1.49-15.26-2.81-24.52-11.2c-5.21-4.71-25.18-17.33-25.18-17.33l-0.1-0.02c-0.44,0.01-2.53,0.65-11.61,8.32
			c-4.7,3.96-12.7-5.59-12.7-5.59s-1.5,1.24-2.62,3.56c-0.9,1.83-1.56,4.34-1.04,7.43c0.72,4.36-1.61,12.47-3.47,17.95
			c-1.13,3.32-2.08,5.68-2.08,5.68S1048.14,1699.09,1057.94,1700.31z"/>
		<path class="st30" d="M1055.27,1665.29c2.72,1.92,8.46,5.69,12.27,6.19c5.14,0.67,14.76-12.45,14.76-12.45l-0.1-0.02
			c-0.44,0.01-2.53,0.65-11.61,8.32c-4.7,3.96-12.7-5.59-12.7-5.59S1056.39,1662.97,1055.27,1665.29z"/>
		<path class="st30" d="M1057.94,1700.31h11.4c3.82-0.6,6.64-1.71,10.55-2.22c5.95-0.78,8.68,1.66,9.23,2.22
			c0.07,0.07,0.11,0.11,0.11,0.11h48.41c1.22-1.74,0.05-5.77-1.1-8.73c-1.47-1.31-1.88,5.68-2.7,6.79
			c-0.81,1.11-39.49,0.41-41.73-1.22c-2.23-1.63-8.93-4.47-18.28-2.23c-8.13,1.94-20.11-3.04-23.08-4.36
			c-1.13,3.32-2.08,5.68-2.08,5.68S1048.14,1699.09,1057.94,1700.31z"/>
	</g>
	<path class="st2" d="M977.73,1223.64c0,0-4.94,11.64-10.09,14.89c-5.14,3.25-10.03,11.05-11.1,17.33
		c-1.96,11.53,6.88,18.68,13.38,18.68c6.5,0,12.71-8.86,16.53-30.02c0.21-1.16,6.38-13.3,6.38-13.3L977.73,1223.64z"/>
	<g>
		<polygon class="st10" points="1296.03,983.06 1295.27,990.87 1292.87,1015.46 1291.34,1031.22 1259.93,1031.22 1258,1015.46 
			1254.98,990.87 1254.03,983.06 		"/>
		<polygon class="st35" points="1298.26,983.06 1251.55,983.06 1252.46,978.37 1297.11,978.37 		"/>
		<polygon class="st35" points="1295.27,990.87 1292.87,1015.46 1258,1015.46 1254.98,990.87 		"/>
	</g>
	<path class="st2" d="M1299.4,999.72c0,0-7.93-8.86-15.87-2.09c-7.93,6.77,0.53,21.22,7.41,25.17c6.88,3.95,9.09,6.01,9.09,6.01
		L1299.4,999.72z"/>
	<g>
		<path class="st3" d="M1119.37,1225.52l-5.97-0.45c0.07-0.13,11.68-104.4,8.27-147.7c-6.35-80.66-42.22-148.01-42.63-148.6
			l11.06-1.98c0.45,0.64,7.06,14.82,15.67,40.5c7.94,23.66,20.53,63,22.5,107.08C1130.21,1117.91,1119.66,1224.99,1119.37,1225.52z"
			/>
	</g>
	<g>
		<path class="st36" d="M1047.04,1202.59c0,0,5.8-14.27,15.02-17.83l47.08,8.87c0,0-11.62,11.06-12.71,18.27L1047.04,1202.59z"/>
		<path class="st24" d="M1106.14,1283.14l-80.46-15.16c-3.78-0.71-6.27-4.36-5.56-8.13l10.05-53.34c0.71-3.78,4.36-6.27,8.14-5.56
			l80.46,15.16c3.78,0.71,6.27,4.35,5.56,8.13l-10.05,53.34C1113.57,1281.36,1109.92,1283.85,1106.14,1283.14z"/>
		<g>
			
				<rect x="1038.49" y="1173.13" transform="matrix(1 8.756091e-03 -8.756091e-03 1 10.5286 -9.2157)" class="st17" width="38.48" height="49.32"/>
			
				<rect x="1036.29" y="1173.11" transform="matrix(1 8.732906e-03 -8.732906e-03 1 10.5003 -9.1721)" class="st10" width="38.48" height="49.32"/>
		</g>
		<g>
			
				<rect x="1048.88" y="1185.98" transform="matrix(0.7941 0.6078 -0.6078 0.7941 955.7958 -399.9215)" class="st16" width="38.48" height="49.32"/>
			
				<rect x="1045.47" y="1183.37" transform="matrix(0.7941 0.6078 -0.6078 0.7941 953.4677 -398.3818)" class="st15" width="38.48" height="49.32"/>
		</g>
		<path class="st3" d="M1086.49,1279.43l-77.04-14.52c-4.72-0.89-7.83-5.44-6.94-10.17l9.41-49.92c0.89-4.73,5.44-7.83,10.17-6.94
			l77.04,14.52c4.72,0.89,7.83,5.44,6.94,10.17l-9.41,49.92C1095.77,1277.21,1091.21,1280.32,1086.49,1279.43z"/>
	</g>
	<path class="st5" d="M1068.28,829.88c0,0-24.63-49.02,9.79-68.4c34.42-19.38,59.61-11.77,78.54,11.93L1068.28,829.88z"/>
	<path class="st8" d="M1206.92,768.03c-7.08-11.35-31.87-9.52-61.78,2.73c-11.7,4.78-24.15,11.16-36.65,18.95
		c-15.55,9.7-29.08,20.31-39.71,30.69c-19.81,19.37-29.47,37.91-23.06,48.2c1.97,3.13,4.91,5.17,9.32,6.34
		c4.38-9.45,16.97-18.29,20.54-25.65c5.04-10.4,17.78-29.25,41.09-43.8c17.91-11.17,35.73-17.75,47.99-18.54
		c7.13-0.46,12.39,1.03,14.7,4.74c1.8,2.89,1.61,6.81-0.25,11.34c1.75,2.94,3.73,7.08,5.36,12.58
		C1203.88,796.47,1213.28,778.2,1206.92,768.03z"/>
</g>
<path class="st37" d="M2017.61,426.18c-79.24,0-143.71,64.47-143.71,143.71c0,79.24,64.47,143.7,143.71,143.7
	c79.24,0,143.71-64.46,143.71-143.7C2161.31,490.65,2096.85,426.18,2017.61,426.18z M2017.61,704.22
	c-74.07,0-134.33-60.26-134.33-134.33c0-74.07,60.26-134.33,134.33-134.33c74.07,0,134.33,60.26,134.33,134.33
	C2151.94,643.96,2091.68,704.22,2017.61,704.22z"/>
<path class="st37" d="M2017.61,680.68c-3.16,0-5.73,2.57-5.73,5.73c0,3.16,2.56,5.73,5.73,5.73c3.16,0,5.73-2.56,5.73-5.73
	C2023.33,683.24,2020.77,680.68,2017.61,680.68z"/>
<path class="st37" d="M2127.47,565.08c-3.16,0-5.73,2.56-5.73,5.73c0,3.16,2.56,5.73,5.73,5.73c3.16,0,5.73-2.56,5.73-5.73
	C2133.2,567.65,2130.64,565.08,2127.47,565.08z"/>
<path class="st37" d="M2071.07,661.78c-2.18,2.29-2.1,5.92,0.19,8.1c2.29,2.18,5.91,2.1,8.1-0.19c2.18-2.29,2.1-5.92-0.19-8.1
	C2076.88,659.4,2073.25,659.49,2071.07,661.78z"/>
<path class="st37" d="M2108.56,626.14c-2.18,2.29-2.1,5.92,0.19,8.1c2.29,2.18,5.92,2.1,8.1-0.19c2.18-2.29,2.1-5.92-0.19-8.1
	C2114.37,623.77,2110.74,623.85,2108.56,626.14z"/>
<path class="st37" d="M1916.04,563.17c-3.16,0-5.73,2.56-5.73,5.73c0,3.16,2.56,5.73,5.73,5.73c3.16,0,5.73-2.56,5.73-5.73
	C1921.77,565.73,1919.21,563.17,1916.04,563.17z"/>
<path class="st37" d="M1964.35,659.67c-2.29,2.18-2.38,5.81-0.19,8.1c2.18,2.29,5.81,2.38,8.1,0.19c2.29-2.18,2.38-5.81,0.19-8.1
	C1970.27,657.57,1966.64,657.48,1964.35,659.67z"/>
<path class="st37" d="M1926.86,624.03c-2.29,2.18-2.38,5.81-0.19,8.1c2.18,2.29,5.81,2.38,8.1,0.19c2.29-2.18,2.38-5.81,0.19-8.1
	C1932.78,621.93,1929.15,621.85,1926.86,624.03z"/>
<path class="st37" d="M2071.6,527.87l-46.82,32.35c-0.17-0.1-0.34-0.2-0.52-0.29l-5.02-88.45v88.45c-1.9,0.93-3.21,2.88-3.21,5.14
	c0,3.16,2.56,5.73,5.73,5.73c3.16,0,5.73-2.56,5.73-5.73c0-0.29-0.03-0.57-0.07-0.85L2071.6,527.87z"/>
</svg>
