<?xml version="1.0" encoding="utf-8"?>
<!-- Generator: Adobe Illustrator 23.0.1, SVG Export Plug-In . SVG Version: 6.00 Build 0)  -->
<svg version="1.1" id="Слой_1" xmlns="http://www.w3.org/2000/svg" xmlns:xlink="http://www.w3.org/1999/xlink" x="0px" y="0px"
	 viewBox="0 0 2726.23 1560.14" style="enable-background:new 0 0 2726.23 1560.14;" xml:space="preserve">
<style type="text/css">
	.st0{fill:#EBF3FA;}
	.st1{opacity:0.5;}
	.st2{fill:#C8DBF4;}
	.st3{fill:#D2E3FC;}
	.st4{fill:#95C0F4;}
	.st5{fill:#B7D3F3;}
	.st6{fill:#C1D9F4;}
	.st7{fill:#E4EEF9;}
	.st8{fill:#AFCDFB;}
	.st9{fill:#C0D8FB;}
	.st10{fill:#DFEBFD;}
	.st11{fill:#CDE0FB;}
	.st12{fill:#FCECDB;}
	.st13{fill:#B5453C;}
	.st14{fill:#F4D2B8;}
	.st15{fill:#2B478B;}
	.st16{fill:#699DEE;}
	.st17{fill:#568CDB;}
	.st18{fill:#7EB2FC;}
	.st19{fill:#F99746;}
	.st20{fill:#ED7D2B;}
	.st21{fill:#F4A269;}
	.st22{fill:#FFB27D;}
	.st23{fill:#C65447;}
	.st24{fill:#163560;}
	.st25{fill:#1C468A;}
	.st26{fill:#2C3A64;}
	.st27{fill:#EFDECE;}
	.st28{fill:#ED985F;}
	.st29{fill:#233862;}
	.st30{fill:#FFFFFF;}
	.st31{fill:#DD6D22;}
	.st32{fill:#EBEEF2;}
</style>
<g>
	<path class="st0" d="M45.96,1564.41l905.31-4.17l241.32-0.06l79.95-0.03l241.77-0.06l1104.58-0.27c0,0,252.65-287.51-17.22-560.58
		c-279.81-283.12-415.87-52.55-501.88-451.07C1883.28-454.99-257.2,128.87,304.24,982.51
		C506.39,1289.88-93.69,1126.51,45.96,1564.41z"/>
	<g class="st1">
		<g>
			<g>
				<path class="st2" d="M1646.48,1560.31H405.37V487.83c0-47.35,38.52-85.88,85.88-85.88H1574.4c39.75,0,72.08,32.34,72.08,72.08
					V1560.31z M424.89,1540.79h1202.07V474.04c0-28.98-23.58-52.56-52.56-52.56H491.25c-36.59,0-66.36,29.77-66.36,66.35V1540.79z"
					/>
			</g>
			<rect x="415.13" y="626.82" class="st2" width="1221.59" height="21.71"/>
			<rect x="415.13" y="801.62" class="st2" width="1221.59" height="21.71"/>
			<rect x="415.13" y="976.43" class="st2" width="1221.59" height="21.71"/>
			<rect x="415.13" y="1151.88" class="st2" width="1221.59" height="21.71"/>
		</g>
		<g>
			
				<rect x="681.59" y="1038.36" transform="matrix(-1 -1.224647e-16 1.224647e-16 -1 1393.6797 2190.2356)" class="st2" width="30.51" height="113.52"/>
			
				<rect x="648.03" y="1028.49" transform="matrix(-1 -1.224647e-16 1.224647e-16 -1 1322.5038 2180.3723)" class="st2" width="26.43" height="123.38"/>
			
				<rect x="614.21" y="1028.49" transform="matrix(-0.9926 -0.1214 0.1214 -0.9926 1117.8191 2248.4946)" class="st3" width="26.43" height="123.38"/>
			
				<rect x="1533.94" y="1038.36" transform="matrix(-1 -1.224647e-16 1.224647e-16 -1 3098.3804 2190.2356)" class="st2" width="30.5" height="113.52"/>
			
				<rect x="1500.39" y="1028.49" transform="matrix(-1 -1.224647e-16 1.224647e-16 -1 3027.2046 2180.3723)" class="st2" width="26.43" height="123.38"/>
			
				<rect x="1466.56" y="1028.5" transform="matrix(-0.9926 -0.1214 0.1214 -0.9926 2816.2095 2352.0007)" class="st3" width="26.43" height="123.38"/>
			
				<rect x="458.11" y="1129.68" transform="matrix(-1 -1.224647e-16 1.224647e-16 -1 1040.9609 2281.5549)" class="st4" width="124.73" height="22.2"/>
			
				<rect x="442.86" y="1114.41" transform="matrix(-1 -1.224647e-16 1.224647e-16 -1 1010.4555 2244.0881)" class="st5" width="124.73" height="15.27"/>
			
				<rect x="455.13" y="1099.14" transform="matrix(-1 -1.224647e-16 1.224647e-16 -1 1029.8394 2213.5549)" class="st3" width="119.59" height="15.27"/>
			
				<rect x="452.23" y="1087.48" transform="matrix(-1 -1.224647e-16 1.224647e-16 -1 1012.4614 2186.6282)" class="st2" width="108" height="11.66"/>
			
				<rect x="1056.82" y="1129.68" transform="matrix(-1 -1.224647e-16 1.224647e-16 -1 2238.3813 2281.5549)" class="st3" width="124.73" height="22.2"/>
			
				<rect x="1041.57" y="1114.41" transform="matrix(-1 -1.224647e-16 1.224647e-16 -1 2207.876 2244.0881)" class="st5" width="124.73" height="15.27"/>
			
				<rect x="1053.84" y="1099.14" transform="matrix(-1 -1.224647e-16 1.224647e-16 -1 2227.2593 2213.5549)" class="st3" width="119.59" height="15.27"/>
			
				<rect x="1050.94" y="1087.48" transform="matrix(-1 -1.224647e-16 1.224647e-16 -1 2209.8818 2186.6282)" class="st2" width="108" height="11.66"/>
			
				<rect x="1037.46" y="1072.22" transform="matrix(-1 -1.224647e-16 1.224647e-16 -1 2199.6606 2159.7014)" class="st5" width="124.73" height="15.27"/>
			
				<rect x="1049.73" y="1056.95" transform="matrix(-1 -1.224647e-16 1.224647e-16 -1 2219.0444 2129.1682)" class="st3" width="119.59" height="15.27"/>
			
				<rect x="1046.83" y="1045.29" transform="matrix(-1 -1.224647e-16 1.224647e-16 -1 2201.6665 2102.2422)" class="st2" width="108" height="11.66"/>
			
				<rect x="963.32" y="1028.49" transform="matrix(-1 -1.224647e-16 1.224647e-16 -1 1947.9054 2179.8828)" class="st6" width="21.26" height="122.89"/>
			
				<rect x="1224.79" y="1022.86" transform="matrix(-1 -1.224647e-16 1.224647e-16 -1 2470.8345 2174.2522)" class="st6" width="21.26" height="128.52"/>
			
				<rect x="1289.2" y="1028.49" transform="matrix(-1 -1.224647e-16 1.224647e-16 -1 2599.6592 2179.8828)" class="st6" width="21.26" height="122.89"/>
			
				<rect x="936.45" y="1018.36" transform="matrix(-1 -1.224647e-16 1.224647e-16 -1 1899.7695 2169.7512)" class="st7" width="26.87" height="133.03"/>
			
				<rect x="1314.89" y="1018.36" transform="matrix(-1 -1.224647e-16 1.224647e-16 -1 2656.6538 2169.7512)" class="st7" width="26.87" height="133.03"/>
			
				<rect x="909.58" y="1024.7" transform="matrix(-1 -1.224647e-16 1.224647e-16 -1 1846.0249 2176.0911)" class="st5" width="26.87" height="126.69"/>
			
				<rect x="1172.88" y="1006.39" transform="matrix(-0.9851 0.172 -0.172 -0.9851 2540.3933 1936.4633)" class="st5" width="26.87" height="143.76"/>
			
				<rect x="882.7" y="1044.13" transform="matrix(-1 -1.224647e-16 1.224647e-16 -1 1792.2809 2195.5178)" class="st2" width="26.87" height="107.26"/>
			
				<rect x="1350.05" y="1044.13" transform="matrix(-1 -1.224647e-16 1.224647e-16 -1 2726.9741 2195.5178)" class="st2" width="26.87" height="107.26"/>
			
				<rect x="855.83" y="1038.36" transform="matrix(-1 -1.224647e-16 1.224647e-16 -1 1738.5361 2189.7461)" class="st4" width="26.87" height="113.03"/>
			
				<rect x="824.66" y="1038.36" transform="matrix(-1 -1.224647e-16 1.224647e-16 -1 1676.1968 2189.7461)" class="st3" width="26.87" height="113.03"/>
			
				<rect x="1380.66" y="1038.36" transform="matrix(-1 -1.224647e-16 1.224647e-16 -1 2788.189 2189.7461)" class="st3" width="26.87" height="113.03"/>
			
				<rect x="792.77" y="1028.49" transform="matrix(-1 -1.224647e-16 1.224647e-16 -1 1612.4077 2179.8828)" class="st8" width="26.87" height="122.89"/>
			
				<rect x="1259.59" y="1028.49" transform="matrix(-1 -1.224647e-16 1.224647e-16 -1 2546.0605 2179.8828)" class="st8" width="26.87" height="122.89"/>
		</g>
		<g>
			<rect x="1295.21" y="513.79" class="st2" width="30.51" height="113.52"/>
			<rect x="1332.84" y="503.92" class="st2" width="26.43" height="123.38"/>
			
				<rect x="1366.66" y="503.92" transform="matrix(0.9926 -0.1214 0.1214 0.9926 -58.4718 171.7461)" class="st3" width="26.43" height="123.38"/>
			<rect x="804.3" y="688.12" class="st2" width="30.51" height="113.52"/>
			<rect x="841.93" y="678.26" class="st2" width="26.43" height="123.38"/>
			
				<rect x="875.76" y="678.26" transform="matrix(0.9926 -0.1214 0.1214 0.9926 -83.2847 113.4413)" class="st3" width="26.43" height="123.38"/>
			<rect x="442.86" y="513.79" class="st2" width="30.51" height="113.52"/>
			<rect x="480.48" y="503.92" class="st2" width="26.43" height="123.38"/>
			
				<rect x="514.31" y="503.92" transform="matrix(0.9926 -0.1214 0.1214 0.9926 -64.7793 68.2442)" class="st3" width="26.43" height="123.38"/>
			<rect x="1424.46" y="605.11" class="st4" width="124.73" height="22.2"/>
			<rect x="1439.71" y="589.84" class="st5" width="124.73" height="15.27"/>
			<rect x="1432.59" y="574.57" class="st3" width="119.59" height="15.27"/>
			<rect x="1447.07" y="562.91" class="st2" width="108" height="11.66"/>
			<rect x="825.75" y="605.11" class="st3" width="124.73" height="22.2"/>
			<rect x="841" y="589.84" class="st5" width="124.73" height="15.27"/>
			<rect x="833.88" y="574.57" class="st3" width="119.59" height="15.27"/>
			<rect x="848.36" y="562.91" class="st2" width="108" height="11.66"/>
			<rect x="845.11" y="547.65" class="st5" width="124.73" height="15.27"/>
			<rect x="837.99" y="532.38" class="st3" width="119.59" height="15.27"/>
			<rect x="852.47" y="520.72" class="st2" width="108" height="11.66"/>
			<rect x="1022.72" y="503.92" class="st6" width="21.26" height="122.89"/>
			<rect x="761.26" y="498.29" class="st6" width="21.26" height="128.52"/>
			<rect x="696.84" y="503.92" class="st6" width="21.26" height="122.89"/>
			<rect x="1043.98" y="493.79" class="st7" width="26.87" height="133.03"/>
			<rect x="665.54" y="493.79" class="st7" width="26.87" height="133.03"/>
			<rect x="1070.86" y="500.13" class="st5" width="26.87" height="126.69"/>
			
				<rect x="807.55" y="481.81" transform="matrix(0.9851 0.172 -0.172 0.9851 107.4455 -132.9313)" class="st5" width="26.87" height="143.76"/>
			<rect x="1216.16" y="779.42" class="st3" width="124.73" height="22.2"/>
			<rect x="1231.42" y="764.16" class="st5" width="124.73" height="15.27"/>
			<rect x="1224.3" y="748.89" class="st3" width="119.59" height="15.27"/>
			<rect x="1238.78" y="737.23" class="st2" width="108" height="11.66"/>
			<rect x="1235.52" y="721.96" class="st5" width="124.73" height="15.27"/>
			<rect x="1228.41" y="706.7" class="st3" width="119.59" height="15.27"/>
			<rect x="1242.89" y="695.04" class="st2" width="108" height="11.66"/>
			
				<rect x="1197.96" y="656.13" transform="matrix(0.9851 0.172 -0.172 0.9851 143.238 -197.4721)" class="st5" width="26.87" height="143.76"/>
			<rect x="1097.73" y="519.56" class="st2" width="26.87" height="107.26"/>
			<rect x="630.38" y="519.56" class="st2" width="26.87" height="107.26"/>
			<rect x="1124.6" y="513.79" class="st4" width="26.87" height="113.03"/>
			<rect x="1155.77" y="513.79" class="st3" width="26.87" height="113.03"/>
			<rect x="599.77" y="513.79" class="st3" width="26.87" height="113.03"/>
			<rect x="1116.09" y="668.6" class="st7" width="26.87" height="133.03"/>
			<rect x="1080.93" y="694.37" class="st2" width="26.87" height="107.26"/>
			<rect x="1050.33" y="688.59" class="st3" width="26.87" height="113.03"/>
			<rect x="960.52" y="688.59" class="st3" width="26.87" height="113.03"/>
			<rect x="923.01" y="688.59" class="st3" width="26.87" height="113.03"/>
			<rect x="499.93" y="668.6" class="st7" width="26.87" height="133.03"/>
			
				<rect x="534.83" y="668.6" transform="matrix(0.9926 -0.1215 0.1215 0.9926 -85.2344 72.042)" class="st7" width="26.87" height="133.03"/>
			<rect x="464.77" y="694.37" class="st2" width="26.87" height="107.26"/>
			<rect x="434.16" y="688.59" class="st3" width="26.87" height="113.03"/>
			<rect x="1187.66" y="503.92" class="st8" width="26.87" height="122.89"/>
			<rect x="901.24" y="853.54" class="st6" width="21.26" height="122.89"/>
			<rect x="922.5" y="843.41" class="st7" width="26.87" height="133.03"/>
			<rect x="949.37" y="849.75" class="st5" width="26.87" height="126.69"/>
			<rect x="976.24" y="869.17" class="st2" width="26.87" height="107.26"/>
			<rect x="1003.12" y="863.4" class="st4" width="26.87" height="113.03"/>
			<rect x="1034.29" y="863.4" class="st3" width="26.87" height="113.03"/>
			<rect x="1066.18" y="853.54" class="st8" width="26.87" height="122.89"/>
			<rect x="1387.8" y="678.73" class="st8" width="26.87" height="122.89"/>
			<rect x="1417.07" y="678.73" class="st8" width="26.87" height="122.89"/>
			<rect x="720.84" y="503.92" class="st8" width="26.87" height="122.89"/>
			<rect x="1353.89" y="954.78" class="st3" width="124.73" height="22.2"/>
			<rect x="1369.15" y="939.51" class="st5" width="124.73" height="15.27"/>
			<rect x="1362.03" y="924.24" class="st3" width="119.59" height="15.27"/>
			<rect x="1376.51" y="912.58" class="st2" width="108" height="11.66"/>
			<rect x="1373.25" y="897.32" class="st5" width="124.73" height="15.27"/>
			<rect x="1366.14" y="882.05" class="st3" width="119.59" height="15.27"/>
			<rect x="1380.62" y="870.39" class="st2" width="108" height="11.66"/>
			<rect x="1289.4" y="847.96" class="st6" width="21.26" height="128.52"/>
			<rect x="1224.99" y="853.59" class="st6" width="21.26" height="122.89"/>
			<rect x="1193.69" y="843.46" class="st7" width="26.87" height="133.03"/>
			
				<rect x="1335.69" y="831.48" transform="matrix(0.9851 0.172 -0.172 0.9851 175.4402 -218.5407)" class="st5" width="26.87" height="143.76"/>
			<rect x="1158.53" y="869.23" class="st2" width="26.87" height="107.26"/>
			<rect x="1127.92" y="863.46" class="st3" width="26.87" height="113.03"/>
			<rect x="845.19" y="843.46" class="st7" width="26.87" height="133.03"/>
			<rect x="810.03" y="869.23" class="st2" width="26.87" height="107.26"/>
			<rect x="779.43" y="863.46" class="st3" width="26.87" height="113.03"/>
			<rect x="737.55" y="843.46" class="st7" width="26.87" height="133.03"/>
			<rect x="702.39" y="869.23" class="st2" width="26.87" height="107.26"/>
			<rect x="671.79" y="863.46" class="st3" width="26.87" height="113.03"/>
			<rect x="1248.98" y="853.59" class="st8" width="26.87" height="122.89"/>
		</g>
	</g>
	<g>
		<path class="st9" d="M1941.37,599.1h-157.75c-7.24,0-13.17-5.93-13.17-13.17V433.68c0-7.24,5.93-13.17,13.17-13.17h157.75
			c7.24,0,13.17,5.93,13.17,13.17v152.25C1954.54,593.18,1948.61,599.1,1941.37,599.1z"/>
		<path class="st10" d="M1934.54,591.37h-144.08c-6.61,0-12.03-5.41-12.03-12.03V440.28c0-6.61,5.41-12.03,12.03-12.03h144.08
			c6.61,0,12.03,5.41,12.03,12.03v139.06C1946.56,585.95,1941.15,591.37,1934.54,591.37z"/>
		<g>
			<g>
				<path class="st5" d="M1858.68,444.55c0-2.11,1.71-3.81,3.81-3.81c2.11,0,3.81,1.71,3.81,3.81c0,2.11-1.71,3.81-3.81,3.81
					C1860.39,448.36,1858.68,446.66,1858.68,444.55z"/>
				<path class="st5" d="M1889.45,449.94c1.02-1.84,3.34-2.5,5.19-1.48c1.84,1.02,2.5,3.34,1.48,5.19c-1.02,1.84-3.34,2.5-5.18,1.48
					C1889.09,454.1,1888.43,451.78,1889.45,449.94z"/>
				<path class="st5" d="M1915.81,470.88c1.77-1.14,4.13-0.63,5.27,1.14c1.14,1.77,0.63,4.13-1.14,5.27s-4.13,0.63-5.27-1.14
					C1913.53,474.38,1914.04,472.02,1915.81,470.88z"/>
				<path class="st5" d="M1928.87,503.3c2.11,0,3.81,1.71,3.81,3.81c0,2.11-1.71,3.81-3.81,3.81c-2.11,0-3.81-1.71-3.81-3.81
					C1925.06,505,1926.76,503.3,1928.87,503.3z"/>
				<path class="st5" d="M1922.2,540.91c1.49,1.49,1.49,3.9,0,5.39c-1.49,1.49-3.9,1.49-5.39,0c-1.49-1.49-1.49-3.9,0-5.39
					C1918.3,539.43,1920.71,539.43,1922.2,540.91z"/>
				<circle class="st5" cx="1895.56" cy="567.62" r="3.81"/>
				<path class="st5" d="M1858.68,577.3c0-2.11,1.71-3.81,3.81-3.81c2.11,0,3.81,1.71,3.81,3.81c0,2.11-1.71,3.81-3.81,3.81
					C1860.39,581.11,1858.68,579.4,1858.68,577.3z"/>
			</g>
			<g>
				<path class="st5" d="M1835.42,449.94c-1.02-1.84-3.34-2.5-5.18-1.48c-1.84,1.02-2.5,3.34-1.48,5.19
					c1.02,1.84,3.34,2.5,5.19,1.48C1835.78,454.1,1836.44,451.78,1835.42,449.94z"/>
				<path class="st5" d="M1809.06,470.88c-1.77-1.14-4.13-0.63-5.27,1.14c-1.14,1.77-0.63,4.13,1.14,5.27s4.13,0.63,5.27-1.14
					C1811.34,474.38,1810.83,472.02,1809.06,470.88z"/>
				<path class="st5" d="M1796,503.3c-2.11,0-3.81,1.71-3.81,3.81c0,2.11,1.71,3.81,3.81,3.81s3.81-1.71,3.81-3.81
					C1799.81,505,1798.11,503.3,1796,503.3z"/>
				<path class="st5" d="M1802.67,540.91c-1.49,1.49-1.49,3.9,0,5.39c1.49,1.49,3.9,1.49,5.39,0c1.49-1.49,1.49-3.9,0-5.39
					C1806.57,539.43,1804.16,539.43,1802.67,540.91z"/>
				<circle class="st5" cx="1829.31" cy="567.62" r="3.81"/>
			</g>
		</g>
		<g>
			<path class="st5" d="M1861.47,507.11c0-2.11,1.71-3.81,3.81-3.81c2.11,0,3.81,1.71,3.81,3.81c0,2.11-1.71,3.81-3.81,3.81
				C1863.18,510.92,1861.47,509.22,1861.47,507.11z"/>
			<g>
				<rect x="1864.76" y="459.47" class="st5" width="1.04" height="47.64"/>
			</g>
			<g>
				
					<rect x="1861.37" y="495.57" transform="matrix(0.7866 -0.6175 0.6175 0.7866 93.6859 1265.3348)" class="st5" width="32.11" height="3.12"/>
			</g>
		</g>
	</g>
	<g>
		<path class="st11" d="M2145.57,1445.07c0,0,174.43-165.91,223.38-127.34C2417.89,1356.3,2145.57,1445.07,2145.57,1445.07z"/>
		<path class="st11" d="M2132.97,1476.98c0,0,324.54-145.29,401.33-68.47c76.79,76.82-89.06,67.34-150.47,58.75
			C2322.41,1458.67,2132.97,1476.98,2132.97,1476.98z"/>
		<path class="st11" d="M2119.34,1441.42c0,0,1.53-8.17,3.61-20.13c4.06-23.33,10.23-61.08,11.31-80.74
			c1.63-29.74,25.55-50.85,51.81-20.58c26.25,30.27-56.63,113.28-56.63,113.28L2119.34,1441.42z"/>
	</g>
	<path class="st10" d="M2211.41,873.38c-23.74-62.14-129.54-31.31-129.54-31.31s-61.93,119.18-82.96,123.99
		c-21.03,4.81,33.06-112.23,33.06-112.23c-41.66,0.17-141.71,61.34-141.71,61.34s19.8,129.76-1.76,129.25
		c-21.56-0.52-11.67-115.79-11.67-115.79c-38.72,16-71.29,66.34-71.29,66.34c-38.94,80.56,66.52,126.4,66.52,126.4
		s5.89,45.12-16.83,99.84l0,0c0,0-5.34,10.22-10.11,27.16l10.89-1.1c0.59-3.01,1.29-5.93,2.1-8.75c0-0.02,0-0.04,0.02-0.05
		c0.01-0.04,0.02-0.08,0.04-0.12c0.58-1.76,1.41-4.26,2.45-7.31c0,0,0-0.01,0-0.01c0-0.01,0.01-0.01,0.01-0.01
		c2.67-6.85,4.43-11.88,5.5-15.5c0-0.01,0.01-0.02,0.01-0.03c7.91-21.44,19.58-49.52,28.59-56.07c0,0-1.38-1.57-2.83-4.76
		c0.9,1.52,1.84,3.1,2.83,4.76c22.66,38.05,116.5,35.32,167.33,19.44c50.83-15.88,26.73-28.24-3.61-49.18
		c-30.34-20.94-88.28-8.78-106.52-16.35c-18.24-7.57,6.11-19.44,40.98-20.26c34.87-0.83,55.66,32.04,112.1,31.73
		c56.44-0.31,88.43-109.75,88.43-109.75c-37.39,15.87-108.75,1.55-112.75-11.49c-4-13.04,98.61-22.04,114.18-27.64
		C2210.42,970.28,2235.15,935.52,2211.41,873.38z"/>
	<path class="st11" d="M506.32,1422.11c-48.87-59.75,43.21-148.48,43.21-148.48s155.72,6.4,172.69-12
		c16.97-18.4-132.07-31.47-132.07-31.47c24.2-41.85,143.51-107.29,143.51-107.29s119.22,94.8,131.14,72.79
		c11.92-22.01-109.85-78.55-109.85-78.55c38.45-29.75,107.93-33.5,107.93-33.5c103.57,7.27,88.88,139.89,88.88,139.89
		s42.03,31.96,110.23,40.66h0c0,0,13.37,0.52,33.17,5.49l-7.39,10.33c-3.37-1.14-6.71-2.12-10.02-2.93
		c-0.02-0.01-0.04-0.02-0.06-0.01c-0.05-0.01-0.1-0.02-0.14-0.03c-2.1-0.43-5.1-1.04-8.77-1.75c0,0-0.01,0-0.01,0
		c-0.01,0-0.01,0-0.02,0c-8.43-1.26-14.52-2.39-18.78-3.4c-0.01,0-0.03-0.01-0.04-0.01c-26.15-4.41-61.15-8.86-72.94-3.56
		c0,0-0.79-2.29-3.16-5.6c1.01,1.79,2.06,3.65,3.16,5.6c25.24,44.76-31.65,137.66-76.97,179.68
		c-45.32,42.02-43.85,10.62-47.43-32.01c-3.58-42.64,42.09-93.94,44.99-116.68c2.9-22.73-23.09-5.06-44.05,29.57
		c-20.95,34.63,0.14,74.52-32.73,131.17c-32.87,56.64-161.51,25.72-161.51,25.72c37.55-28.49,64.3-108.59,53.48-120.15
		c-10.82-11.55-79.08,86.57-93.71,99.01C604.45,1477.02,555.19,1481.86,506.32,1422.11z"/>
	<g>
		<path class="st12" d="M1408.6,1402.07H913.92V1160h496.57c45.96,0,83.21,37.26,83.21,83.21v73.75
			C1493.7,1363.96,1455.6,1402.07,1408.6,1402.07z"/>
		<path class="st13" d="M1926.13,1259.6v36.42c0,19.46-3.87,37.68-10.63,53.34c-13.58,31.52-38.85,52.7-67.77,52.7H898.39
			c-6.28,0-11.37-6.88-11.37-15.37v-5.45c0-8.49,5.09-15.37,11.37-15.37h562.46c10.67,0,20.4-6.41,24.3-16.33
			c0.02-0.06,0.05-0.12,0.07-0.18c5.42-13.81,8.48-29.56,8.48-46.28v-46.29c0-8.51-0.81-16.78-2.34-24.63
			c-0.03-0.13-0.05-0.27-0.08-0.4c-4.1-20.73-22.51-35.54-43.64-35.54H898.39c-6.28,0-11.37-6.89-11.37-15.38v-5.44
			c0-8.5,5.09-15.38,11.37-15.38h954.12c33.62,0,61.98,30.49,70.78,72.15C1925.14,1240.87,1926.13,1250.08,1926.13,1259.6z"/>
		<polygon class="st14" points="913.92,1281.03 984.21,1285.1 913.92,1287.55 		"/>
		<polygon class="st14" points="913.92,1319.02 1081.15,1323.08 913.92,1325.53 		"/>
	</g>
	<g>
		<path class="st12" d="M1386.21,965.37H977.35v-204h410.44c38.39,0,69.5,31.12,69.5,69.5v63.41
			C1457.29,933.55,1425.47,965.37,1386.21,965.37z"/>
		<path class="st8" d="M1815.24,845.31V876c0,16.4-3.2,31.76-8.8,44.96c-11.24,26.56-32.16,44.42-56.1,44.42H964.5
			c-5.2,0-9.41-5.8-9.41-12.95v-4.6c0-7.15,4.21-12.95,9.41-12.95h479.05c2.56-4.3,4.82-8.96,6.72-13.91
			c4.49-11.64,7.02-24.91,7.02-39v-39.01c0-7.17-0.67-14.14-1.94-20.76c-2.15-11.23-5.98-21.51-11.11-30.29H964.5
			c-5.2,0-9.41-5.8-9.41-12.97v-4.58c0-7.16,4.21-12.97,9.41-12.97h789.8c27.83,0,51.31,25.7,58.59,60.81
			C1814.43,829.53,1815.24,837.29,1815.24,845.31z"/>
		<polygon class="st14" points="977.35,863.37 1035.54,866.8 977.35,868.87 		"/>
		<polygon class="st14" points="977.35,895.38 1115.78,898.81 977.35,900.88 		"/>
	</g>
	<g>
		<g>
			<g>
				<path class="st15" d="M1027.63,1560.31h564.17v-158.67h-568.96c-40.76,0-73.81,33.04-73.81,73.81v6.26
					C949.03,1525.12,984.22,1560.31,1027.63,1560.31z"/>
				<path class="st12" d="M1562.27,1560.31h642.58v-158.67h-644.28c-41.45,0-75.05,33.6-75.05,75.04v6.88
					C1485.52,1525.95,1519.89,1560.31,1562.27,1560.31z"/>
				<path class="st15" d="M1442.87,1560.31h783.96c6.29,0,11.4-5.1,11.4-11.4v-0.94c0-6.29-5.1-11.4-11.4-11.4h-783.96
					c-6.29,0-11.4,5.1-11.4,11.4v0.94C1431.47,1555.21,1436.57,1560.31,1442.87,1560.31z"/>
				<path class="st15" d="M1442.87,1425.37h783.96c6.29,0,11.4-5.1,11.4-11.4v-0.94c0-6.29-5.1-11.4-11.4-11.4h-783.96
					c-6.29,0-11.4,5.1-11.4,11.4v0.94C1431.47,1420.27,1436.57,1425.37,1442.87,1425.37z"/>
			</g>
			<polygon class="st14" points="2204.85,1480.97 2117.64,1483.64 2204.85,1485.25 			"/>
			<polygon class="st14" points="2204.85,1444.46 1997.38,1447.12 2204.85,1448.73 			"/>
		</g>
		<g>
			<path class="st16" d="M1999.51,1446.59c0,0,8.89,6.82,11.83,18.02c0.52,1.96,0.85,4.06,0.92,6.27c0.49,14.89,0,48.59,0,48.59
				l26.25-16.85l26.18,16.85v-45.67c0-8.64-2.25-17.04-6.42-22.54c-2.02-2.66-4.47-4.67-7.25-4.67H1999.51z"/>
			<path class="st17" d="M1999.51,1446.59c0,0,8.89,6.82,11.83,18.02l52.61,0.67c0,0-2.06-16.05-12.92-18.69H1999.51z"/>
		</g>
	</g>
	<g>
		<path class="st12" d="M1394.25,1160h636.25V965.37h-638.14c-45.97,0-83.23,37.26-83.23,83.23v26.28
			C1309.13,1121.89,1347.24,1160,1394.25,1160z"/>
		<path class="st18" d="M1308.77,1040.88v41.9c0.05,6.43,1.62,12.54,4.42,18.14c4.98,9.98,13.86,18.26,25.02,23.58
			c8.58,4.07,18.5,6.39,29.04,6.39h682.23c7.99,0,14.47,5.41,14.47,12.09v4.94c0,6.68-6.48,12.09-14.47,12.09H870.92
			c-33.82,0-63.7-14.03-81.76-35.51c-11.38-13.53-18.06-30.02-18.06-47.83v-33.04c0-12.2,3.34-23.74,9.31-34.03
			c15.15-26.17,47.25-44.22,84.4-44.22h1184.66c7.99,0,14.47,5.4,14.47,12.08v4.94c0,6.68-6.48,12.09-14.47,12.09h-684.32
			c-16.35,0-31.15,5.82-41.49,15.11c-4.47,4.03-8.11,8.71-10.68,13.85C1310.32,1028.82,1308.82,1034.7,1308.77,1040.88z"/>
		<polygon class="st14" points="2030.5,1062.69 1943.04,1065.96 2030.5,1067.93 		"/>
		<polygon class="st14" points="2030.5,1017.89 1822.43,1021.16 2030.5,1023.14 		"/>
		<g>
			<path class="st19" d="M1824.57,1020.51c0,0,13.73,6.17,18.28,16.32c0.8,1.77,1.32,3.67,1.43,5.67c0.76,13.48,0,43.98,0,43.98
				l40.54-15.25l40.44,15.25v-41.34c0-7.82-3.47-15.42-9.91-20.4c-3.12-2.41-6.91-4.23-11.2-4.23H1824.57z"/>
			<path class="st20" d="M1824.57,1020.51c0,0,13.73,6.17,18.28,16.32l81.25,0.6c0,0-3.19-14.53-19.95-16.92H1824.57z"/>
		</g>
	</g>
	<g>
		<path class="st21" d="M1238.05,482.77c0,0,14.76,21.85,23.18,67.77c7.37,40.22,13.84,55.07,24.49,63.32
			c10.65,8.25,69.99,32.6,69.99,32.6l-4.44,10.39c0,0-86.97-11.84-96.74-26.38c-9.77-14.54-47.01-100.42-44.12-120.2
			C1213.3,490.51,1238.05,482.77,1238.05,482.77z"/>
		<g>
			<path class="st22" d="M1451.02,962.55c-0.78,8.48,11.03,10.54,24.7,11.23s9.54,3.48,28.29,6.88c18.74,3.39,26.25-1.73,27.61-4.27
				c1.21-2.25-7.51-5.76-16.79-9.73c-1.17-0.5-2.34-1.01-3.51-1.52c-10.45-4.6-16.32-13.97-24.46-22.66
				c-7.72-8.23-15.05-34.59-15.05-34.59l-25.47-5.44c0,0,7.15,23.72,9.63,33.85c1.46,5.96-0.69,12.62-2.61,17.69
				C1452.33,956.74,1451.29,959.57,1451.02,962.55z"/>
			<path class="st23" d="M1475.72,973.78c13.68,0.68,9.54,3.48,28.29,6.88c18.74,3.39,26.25-1.73,27.61-4.27
				c1.21-2.25-7.51-5.76-16.79-9.73l-0.14,0.16c0,0-13.18,4.47-28.39,0.34c-12.4-3.37-24.39-10.78-32.93-13.17
				c-1.03,2.76-2.07,5.58-2.34,8.57C1450.24,971.04,1462.05,973.1,1475.72,973.78z"/>
		</g>
		<path class="st20" d="M1197.39,660.52c0,0,169.25-12.74,201.12,7.37c31.86,20.11,82.97,254.35,82.97,254.35s-3.15,2.53-10.2,3.29
			c-6.55,0.71-20.98-3.14-20.98-3.14s-73.44-104.81-78.62-131.21c-5.17-26.4-3.91-49.96-15.69-50.59
			c-11.78-0.63-158.62,17.85-180.83-21.28c-22.21-39.13-3.85-77.87-3.85-77.87L1197.39,660.52z"/>
		<g>
			<path class="st22" d="M1386.26,989.74c-0.78,8.48,11.03,10.54,24.7,11.23c13.68,0.68,9.54,3.48,28.29,6.88
				c18.74,3.39,26.25-1.73,27.61-4.27c1.21-2.25-7.51-5.76-16.79-9.73c-1.17-0.5-2.34-1.01-3.51-1.52
				c-10.45-4.6-16.32-13.97-24.46-22.66c-7.72-8.23-15.05-34.59-15.05-34.59l-25.47-5.44c0,0,7.15,23.72,9.63,33.85
				c1.46,5.96-0.7,12.62-2.61,17.68C1387.57,983.93,1386.53,986.75,1386.26,989.74z"/>
			<path class="st23" d="M1410.96,1000.97c13.68,0.68,9.54,3.48,28.29,6.88c18.74,3.39,26.25-1.73,27.61-4.27
				c1.21-2.25-7.51-5.76-16.79-9.73l-0.14,0.16c0,0-13.18,4.47-28.39,0.34c-12.4-3.37-24.39-10.78-32.93-13.17
				c-1.03,2.76-2.07,5.58-2.34,8.57C1385.48,998.22,1397.28,1000.28,1410.96,1000.97z"/>
		</g>
		<path class="st19" d="M1164.24,671.01c0,0,150.35,7.12,181.41,28.45c31.06,21.33,73,257.38,73,257.38s-3.25,2.4-10.32,2.89
			c-6.57,0.45-20.84-3.96-20.84-3.96s-69.31-107.58-73.45-134.17c-4.14-26.58-1.96-50.08-13.71-51.17
			c-11.75-1.09-159.2,11.66-179.87-28.3C1099.79,702.17,1164.24,671.01,1164.24,671.01z"/>
		<path class="st24" d="M1231.55,348.17c-5.75-5.55-13.71-8.04-19.44-9.15c1.84-1.13,4.84-0.94,4.84-0.94
			c-3.37-1.42-12.07,0.05-12.07,0.05c-43.86-31.24-69.9,38.47-73.14,55.38c-3.25,16.91-9.21,41.1-29.88,62.07
			c-53.01,53.78,22.72,116.01,22.72,116.01c0.32,0.32,38.01-80.34,75.86-93.3c10.86-9.59,18.92-29.37,19.55-30.93
			c-5.53,15.91-10.65,24.32-14.45,28.81C1239.43,457.95,1246.8,362.88,1231.55,348.17z"/>
		<path class="st22" d="M1157.92,457.61c0,0,14-1.33,28,0c9.51,0.9,18.94,3.86,24.3,6.1c13.25,5.54,11.86,29-15.94,24.65
			C1166.47,484.02,1155.97,464.57,1157.92,457.61z"/>
		<path class="st22" d="M1209.05,474.72c0.16,0.09,3.97,20.18-14.24,19.38c-11.95-0.53-37.73-14.99-35.45-25.22
			c1.08-4.86,10.11-17.48,11.93-46.29l2.18,0.58l36.58,9.81c0,0-1.62,11.61-2.38,22.6C1207.02,464.8,1207,473.59,1209.05,474.72z"/>
		<path class="st21" d="M1210.04,432.98c0,0-1.62,11.61-2.38,22.6c-20.71-1.97-30.41-21.62-34.2-32.41L1210.04,432.98z"/>
		<path class="st24" d="M1170.01,416.77c0,0-6.28-19.38-5.15-34.29c0.8-10.64,15.67-47.05,52.19-31.89c0,0,10.73,3.91,19.29,13.56
			c6.81,7.67,15.61,22.72-6.12,52.24l-6.3,10.24L1170.01,416.77z"/>
		<path class="st22" d="M1211.02,449.82c0,0-47.85-11.43-40.27-41.12s6.51-51.16,37.38-45.11c30.87,6.05,33.89,18.88,33.77,29.41
			C1241.78,403.52,1223.66,452.03,1211.02,449.82z"/>
		<path class="st24" d="M1230.02,368.43c0,0-21.98,31.48-43.32,31.49c-21.34,0.01-28.65-7.58-28.65-7.58s18.49-8.26,27.14-28.74
			C1185.18,363.6,1224.43,349.33,1230.02,368.43z"/>
		<path class="st24" d="M1226.06,370.42c0,0,7.75,10.27,8.19,18.44c0.44,8.17-2.49,24,2.19,24.63c0,0,15.9-21.15,8.29-37.37
			C1236.65,358.93,1226.06,370.42,1226.06,370.42z"/>
		<path class="st25" d="M1265.44,663.07c-3.98,4.75-16.39,6.21-29.66,8.4c-10.44,1.72-21.41,3.89-29.21,8.47
			c-17.71,10.4-75.58,45.54-92.54,43.95c-6.58-0.62-5.35-13.17-1.36-29.83c6.27-26.3,19.39-62.83,19.39-78.72
			c0-8.67,2.88-29.18,6.74-52.64c0.31-1.89,0.63-3.8,0.95-5.72c7.62-45.6,18.17-99.37,18.17-99.37s11.77,25.68,34.7,25.68
			c22.93,0,17.6-19.58,17.6-19.58s20.92,2.46,25.87,7.79c4.95,5.32,17.48,28.34,19.97,34.62c0,0,0.51,7.99-19.27,11.79
			c0,0,4.82,21.68,5.39,36.13c0.42,10.68-7.28,44.09-9.5,64.88c-0.79,7.36-0.89,13.14,0.31,15.76c1.53,3.36,6.48,6.7,12.11,9.98
			C1256.26,651.16,1270.16,657.42,1265.44,663.07z"/>
		<path class="st26" d="M1245.09,644.65c12.69,21.64-34.42,28.15-42.22,32.73c-17.71,10.4-71.88,48.1-88.84,46.5
			c-6.58-0.62-5.35-13.17-1.36-29.83c6.27-26.3,19.39-62.83,19.39-78.72c0-8.67,2.88-29.18,6.74-52.64l20.42-19.6
			c0,0,21.88,56.54,42.73,65.81c10.93,4.85,22.34,8.06,30.73,10c-0.79,7.36-0.89,13.14,0.31,15.76
			C1234.51,638.03,1239.46,641.37,1245.09,644.65z"/>
		<path class="st22" d="M1151.64,474.54c0,0-17.46-10.6-34.33,9.51s12,163.86,37,171.25c27.78,8.2,111.13,7.78,111.13,7.78
			l-3.48-10.11c0,0-86.59-27.9-90.14-32.47C1168.26,615.93,1160.52,476.86,1151.64,474.54z"/>
		<path class="st25" d="M1157.92,457.61c0,0-35.85,3.23-46.26,15.03c-10.41,11.79-13.45,43.74-13.45,43.74s31.57,25.48,69.61,15.6
			L1157.92,457.61z"/>
		<g>
			<path class="st24" d="M1380.43,611.35l3.42-31.44l-44.47,58.59c0,0,18.62,9.27,19.71,7.5
				C1360.18,644.23,1380.43,611.35,1380.43,611.35z"/>
			<polygon class="st25" points="1313.88,611.35 1272.8,674.08 1341.79,674.08 1380.43,611.35 			"/>
			<polygon class="st27" points="1380.43,611.35 1383.65,580.21 1360.41,609.29 			"/>
			<polygon class="st27" points="1274.91,670.86 1271.76,668.6 1312.58,607.95 1313.88,611.35 			"/>
			<polygon class="st12" points="1312.58,607.95 1377.57,609.77 1380.43,611.35 1313.88,611.35 			"/>
		</g>
		<path class="st22" d="M1299.01,661.63c-1.27-0.17-2.9-0.14-4.43-0.04c4.96-2.31,9.96-4.82,9.96-4.82s-2.22-2.28-10.75,0.75
			c-0.96,0.34-1.92,0.42-2.87,0.32l11.96-5.38c-2.13-1.92-7.86-0.39-12.32,1.25c-3.19,1.17-6.74,0.65-9.42-1.44
			c-0.04-0.03-0.09-0.07-0.13-0.1c0.2-0.02,0.38-0.03,0.59-0.06c6.98-1.03,8.76-5.02,6.82-4.56c-1.94,0.46-13.64,1.31-13.64,1.31
			c-5.29-0.31-15.77,3.73-15.77,3.73l5.86,10.82c0,0,16.85,3.13,21.23,1.78c0.35-0.11,0.78-0.26,1.25-0.44l0,0l15.31-1.01
			C1302.66,663.74,1302.39,662.08,1299.01,661.63z"/>
	</g>
	<g id="girl_2_5_">
		<path class="st28" d="M1891.53,1084.01c0,0,88.41,38.52,104.46,37.82s114.94-30.12,114.94-30.12l-2.52,17.01
			c0,0-76.32,43.89-103,46.38c-26.27,2.45-116.09-23.58-124.76-29.07C1871.98,1120.53,1866.33,1089.57,1891.53,1084.01z"/>
		<path class="st29" d="M1878.24,942.3c0,0-32.62-6.2-48.86,5.67c-29.43,21.49-31.01,95.57-42.04,106.61
			c-11.03,11.04-37.61,6.33-39.98,63.43c-2.37,57.1,10.58,61.88-4.84,87.37c-15.42,25.49,6.52,51,6.52,51s-8.99-14.07-5.14-24.23
			c0,0,3.74,22.42,17.98,27.67c14.24,5.25,16.35,9.11,18.62,16.81c0,0,121.49-62.25,121.62-106.41
			c0.13-44.16,23.91-87.89,12.23-107.03c0,0,5.2,8.19,5.84,17.29c0,0,7-13.42-5.14-25.92c-12.14-12.49,14.24-38.35,10.34-68.3
			C1922.73,965.72,1908.3,943.2,1878.24,942.3z"/>
		<path class="st22" d="M1902.27,1126.07c-7.76,5.39-17.5,9.83-29.72,12.65c-45.82,10.59-63.38-28.14-69.97-54.72
			c6.25-3.58,12.13-4.36,15.52-4.77c3.31-0.39,6.79-0.65,9.68-0.79c5.14-3.94,12.81-20.07,14.51-45.11l2.16,0.58l36.11,9.88
			c0,0-1.65,11.48-2.46,22.33c-0.63,8.49-0.73,16.6,0.88,18.59c2.82,0.61,4.51,1.01,4.51,1.01s0,0.01,0.02,0.03
			C1883.98,1086.55,1894.45,1103.78,1902.27,1126.07z"/>
		<path class="st28" d="M1880.55,1043.8c0,0-1.66,11.47-2.46,22.33c-20.46-2.05-29.95-21.53-33.65-32.21L1880.55,1043.8z"/>
		<path class="st22" d="M1886.66,1054.58c0,0-48.56-2.68-46.42-32.89c2.13-30.21-2.7-50.91,28.4-50.47
			c31.09,0.43,36.3,12.39,38.04,22.64C1908.41,1004.11,1899.35,1054.5,1886.66,1054.58z"/>
		<path class="st29" d="M1906.43,976.95c-6.85-9.62-12.65-8.04-16.02-5.53c-25.46-16.48-44.09,3.85-44.09,3.85
			c-4.8,21.44-21.32,32.74-21.32,32.74s8.45,6.09,29.2,2.32c6.34-1.15,12.22-5.18,17.32-10.21c-9.24,13.23-21.18,22.39-21.18,22.39
			c25.15-9.51,37.35-42.66,38.58-46.17c2.77,2.87,8.19,9.07,9.57,14.85c1.87,7.87,9.92,20.16,14.57,19.96
			C1913.06,1011.15,1916.7,991.39,1906.43,976.95z"/>
		<path class="st30" d="M1788.75,1224.8c-4.38-22.42-18.68-111.98-4.38-140.79c5.13-10.35,25.28-11.29,47.39-10.38
			c6.88,4.44,33.09,21.22,43.86,19.13c0.12-0.02,0.33-0.07,0.6-0.14c5.07-1.27,6.98-4.83,2.75-7.9c-0.01-0.01,10.95-1.06,24.55,1.5
			c7.68,1.45,28.39,12.16,28.39,12.16s-10.43,18.84-25.81,25.35c2.62,23.4-1.27,33.72-25.55,87.76
			c-20.51,45.68,2.77,86.81,2.77,86.81s-120.74,97.08-121.41,47.65C1761.4,1308.73,1794.35,1253.45,1788.75,1224.8z"/>
		<path class="st31" d="M1889.3,1403.85c6.57-0.74,12.48-4.33,16.15-9.83c0.58-0.87,1.21-1.81,1.87-2.81
			c13.74-20.8,19.09-84.52,50-152.4c7.53-16.53,34.56-19.5,41.93-38.18c0,0,18.14-60.55-34.72-62.33
			c-52.86-1.79-141.57,168.48-142.97,186.33C1820.2,1341.93,1786.61,1415.44,1889.3,1403.85z"/>
		<path class="st29" d="M2099.4,1402.46h-75.24c0,0-2.81-12,2.13-20.17c4.37-7.22,2.7-11.34-0.54-17.32
			c3.41,1.4,7.82,2.66,12.67,2.39c3.75-0.22,7.71-1.92,11.19-3.94c3.24,3.69,17.1,19.41,21.44,22.52
			C2075.96,1389.48,2097.88,1388.22,2099.4,1402.46z"/>
		<path class="st32" d="M1796.68,1107.48c0,0-9.79,89.09,53.71,107.76c63.5,18.67,81.53-81.97,30.26-89.21
			C1829.38,1118.79,1796.68,1107.48,1796.68,1107.48z"/>
		<path class="st20" d="M2000.97,1155.8c4.53,33.96,22.22,141.16,53.43,193.46c10.06,16.86-25.35,26.31-25.54,26.26
			c-4.75-1.24-12.66-8.81-16.31-12.1c-25.34-22.83-76.77-87.49-76.77-139.33c0-25.28-0.44-73.55,17.94-85.82
			C1965.04,1130.73,1999.17,1142.31,2000.97,1155.8z"/>
		<path class="st19" d="M1844.44,1402.46c0,0,2.79-3.88,7.65-11.25c5.79-8.76,12.19-26.01,19.96-48.12
			c8.16-23.21,17.84-51.76,29.94-81.47c3.73-9.17,7.7-18.45,11.92-27.72c7.53-16.53,28.24-14.24,35.61-32.92
			c0,0,28.76-64.76-24.1-66.55c-52.86-1.79-153.3,173.24-159.08,190.19C1760.01,1343.18,1729.18,1420.24,1844.44,1402.46z"/>
		<path class="st15" d="M2044.17,1402.46h-75.24c0,0-2.81-12,2.13-20.17c4.37-7.22,2.7-11.34-0.54-17.32
			c3.41,1.4,7.82,2.66,12.67,2.39c3.75-0.22,7.71-1.92,11.19-3.94c3.24,3.69,17.1,19.41,21.44,22.52
			C2020.73,1389.48,2042.65,1388.22,2044.17,1402.46z"/>
		<path class="st20" d="M1872.05,1343.09c8.16-23.21,17.84-51.76,29.94-81.47c-3.16-22.51-9.98-42.2-21.44-50.13
			C1880.55,1211.49,1852.75,1297.62,1872.05,1343.09z"/>
		<path class="st19" d="M1957.05,1153.39c4.53,33.96,10.91,143.57,42.12,195.87c10.06,16.86-25.35,26.31-25.54,26.26
			c-4.75-1.24-12.66-8.81-16.31-12.1c-25.34-22.83-76.77-87.49-76.77-139.33c0-25.28,29.66-71.52,48.04-83.79
			C1939.91,1132.75,1955.25,1139.9,1957.05,1153.39z"/>
		<path class="st30" d="M1895.75,1037.2c0,0-4.59-1.82-17.51-0.77c0,0,0.69,5.04,10.21,5.54
			C1893.85,1042.25,1895.75,1037.2,1895.75,1037.2z"/>
		<g>
			<g>
				<polygon class="st24" points="2120.37,1056.11 2104.77,1027.97 2071.02,1122.13 2090.93,1143.5 				"/>
				<polygon class="st25" points="2038.92,1072.6 2007.55,1162.21 2090.93,1143.5 2120.37,1056.11 				"/>
				<polygon class="st27" points="2009.22,1157.69 2007.76,1155.13 2037.44,1070.33 2038.92,1072.6 				"/>
				<polygon class="st12" points="2037.44,1070.33 2116.48,1054.95 2120.37,1056.11 2038.92,1072.6 				"/>
			</g>
			<polygon class="st27" points="2120.37,1056.11 2103.5,1029.34 2092.75,1059.57 2116.48,1054.95 			"/>
		</g>
		<path class="st22" d="M2062.99,1085.57c-2.71-0.52-8.53-2.71-14.42-4.33c1.76-1.37,3.72-3.04,4.26-4.76
			c1.05-3.32,1.75-4.39-1.75-3.34c-3.5,1.05-15.76,6.67-15.76,6.67s0.03,0.01,0.03,0.02c-6.96,2.03-13.38,11.88-13.38,11.88
			s-86.2,30.3-96.57,30.82c-16.04,0.81-122.83-38.52-122.83-38.52c-25.2,5.56-19.55,36.53-10.88,42.02
			c8.67,5.5,85.51,33.45,131.05,33.97c23.07,0.27,106.97-53.66,106.97-53.66s9.81-4.48,17.51-3.08c7.71,1.4,25.57,0,29.42-6.3
			C2080.51,1090.65,2067.55,1086.45,2062.99,1085.57z"/>
		<path class="st30" d="M1857.6,1103.4c0,0-9.55,30.23-42.35,37.11c0,0-54.17-16.69-27.2-53.59
			C1788.05,1086.92,1814.71,1067.11,1857.6,1103.4z"/>
		<path class="st22" d="M2118.96,1087.85L2118.96,1087.85c0.02-0.83-0.07-1.66-0.29-2.45c0,0-7.73-12.22-10.26-12.72
			c-7.71-1.52-7.71,8.63-6.07,15.17c1.14,4.56,4.04,8.94,6.38,11.3l0,0l-0.31,9.56C2121.43,1101.56,2118.96,1087.85,2118.96,1087.85
			z"/>
	</g>
	<g>
		<path class="st19" d="M1436.56,1236.77c0,0-13.73,8.39-18.28,22.17c-0.8,2.41-1.32,4.99-1.42,7.71c-0.76,18.31,0,59.76,0,59.76
			l-40.54-20.72l-40.44,20.72v-56.18c0-10.62,3.47-20.96,9.91-27.72c3.12-3.28,6.91-5.75,11.2-5.75H1436.56z"/>
		<path class="st20" d="M1436.56,1236.77c0,0-13.73,8.39-18.28,22.17l-81.24,0.82c0,0,3.19-19.74,19.95-22.99H1436.56z"/>
	</g>
	<g>
		<path class="st19" d="M638.5,968.61c0,0,8.61,37.36,33.71,37.36c21.52,0,51.03-48.63,51.03-48.63L638.5,968.61z"/>
		<path class="st15" d="M925.28,1523.83l-14.4,7.64c0,0-77.88-82.58-96.6-161.82c-3.34-14.15-4.69-28.1-3.26-41.34
			c0,0-1.13-3.59-3.11-9.93c-0.09-0.28-0.18-0.56-0.26-0.85c-0.87-2.78-1.91-6.06-3.06-9.77c-3.76-11.97-8.93-28.36-14.81-47.02
			c-13.55-42.93-44.56-139.75-57.8-180.03l95.22-34.45c0,0,10.81,24.66,26.36,91.69c2.39,8.75,4.79,18.42,7.03,28.96
			c2.54,11.94,4.91,25,6.88,39.1c3.34,23.89,5.57,50.77,5.71,80.26c0.05,11.99-0.24,24.43-0.95,37.26
			c-0.52,9.41,0.88,21.95,3.5,36.21C887.69,1424.99,925.28,1523.83,925.28,1523.83z"/>
		<path class="st29" d="M977.41,1560.31h-76.98c0,0-2.88-12.28,2.18-20.63c4.47-7.39,2.76-11.6-0.55-17.72
			c3.49,1.43,8,2.73,12.97,2.44c3.84-0.22,7.89-1.96,11.45-4.03c3.31,3.78,17.5,19.86,21.93,23.04
			C953.43,1547.03,975.86,1545.74,977.41,1560.31z"/>
		<path class="st29" d="M867.44,1206.03l-59.81,111.5c-0.87-2.78-1.91-6.06-3.06-9.77c-3.76-11.97-8.93-28.36-14.81-47.02
			c-13.55-42.93-44.56-139.75-57.8-180.03l95.22-34.45c0,0,10.81,24.66,26.36,91.69c2.39,8.75,4.79,18.42,7.03,28.96
			C863.1,1178.87,865.47,1191.93,867.44,1206.03z"/>
		<path class="st29" d="M730.41,1536.22c0,0-5.33,13.07-0.31,24.1h41.87c0,0,0.87-9.94-14.33-21.47
			C746.13,1530.11,730.41,1536.22,730.41,1536.22z"/>
		<path class="st26" d="M775.97,685.08c0.03-2.08,1.1-24.56,35.24-26.56c0,0-16.76,2.41-19.48,9.87c0,0,11.22-9.4,20.61-6.69
			c9.39,2.71,15.26,18.91,15.44,24.27c0.18,5.37-4.58,22.8-10.45,24.42c-2.23,0.61-4.81,0.52-7.16,0.18
			c1.63,2.42,3.24,5.09,4.79,8.08c14.31,27.66,1.96,60.25-9.65,57.51c-7.45-1.76-11.98,11.15-11.98,11.15l-71.66-61.62
			C721.67,725.69,746.77,670.38,775.97,685.08z"/>
		<path class="st22" d="M730.93,872.32c7.94,5.51,17.91,10.06,30.41,12.94c46.88,10.83,64.84-28.79,71.59-55.99
			c-6.39-3.66-12.41-4.46-15.88-4.88c-3.39-0.4-6.95-0.66-9.9-0.81c-5.26-4.03-13.11-20.53-14.84-46.15l-2.21,0.59l-36.94,10.11
			c0,0,1.69,11.74,2.52,22.84c0.64,8.69,0.74,16.99-0.9,19.02c-2.88,0.63-4.61,1.03-4.61,1.03s0,0.01-0.02,0.03
			C749.65,831.88,738.93,849.51,730.93,872.32z"/>
		<path class="st28" d="M753.15,788.14c0,0,1.7,11.73,2.52,22.84c20.93-2.1,30.65-22.02,34.43-32.96L753.15,788.14z"/>
		<path class="st22" d="M752.72,805.77c0,0,48.19-12.38,40.02-42.28c-8.17-29.89-7.46-51.62-38.57-44.98
			c-31.11,6.64-33.95,19.68-33.65,30.32C720.82,759.47,739.98,808.22,752.72,805.77z"/>
		<path class="st26" d="M717.38,731.82c4.95-11.03,11.09-10.59,14.98-8.75c22.26-21.62,45.01-4.94,45.01-4.94
			c9.1,20.56,27.93,28.6,27.93,28.6s-7.26,7.8-28.84,8.15c-6.59,0.11-13.29-2.76-19.42-6.78c11.91,11.43,25.72,18.24,25.72,18.24
			c-27.14-4.52-46-35.35-47.94-38.63c-2.21,3.43-6.41,10.73-6.63,16.82c-0.3,8.27,2.92,24.23-1.79,24.95
			C726.41,769.47,709.97,748.36,717.38,731.82z"/>
		<path class="st22" d="M738.86,828.55c0,0,80.94-19.65,116.13,9.38L837.4,1083.2l-158.29-38.24c0,0,4.45-15.52,34.81-56.79
			C744.27,946.9,731.07,886.36,738.86,828.55z"/>
		<path class="st15" d="M786.05,1055.9c0,0-0.09,0.83-0.26,2.42c-0.07,0.68-0.17,1.5-0.27,2.47c-0.68,6.36-1.97,18.56-3.63,34.42
			c-4.34,41.6-11.16,108.41-15.8,161.15c-3.63,41.23-5.94,73.87-4.69,79.11c3.75,15.77,0,204.27,0,204.27
			c-13.45,6.45-33.85,0-33.85,0s-35.84-169.86-30.82-193.47c5.02-23.61-3.35-43.76-3.35-43.76
			c-27.82-129.58-24.78-201.39-19.25-235.78c1.61-10,3.43-16.83,4.76-20.99c1.13-3.54,1.91-5.16,1.91-5.16
			C742.15,1024.04,786.05,1055.9,786.05,1055.9z"/>
		<path class="st19" d="M865.9,907.88c-3.91,29.51-19.54,65.62-25.12,85.05c0,0,9.33,67.48,0.42,86.01
			c-1.01,2.11-2.27,3.59-3.8,4.26c-33.01,14.38-161.54,0.42-166.97-41.05c-1.97-15.07,48.96-68.06,51.93-74.49
			c1.23-2.66,2.54-11.28-3.43-29.15c-8.46,26.1-55.18,18.59-55.18,18.59c5.48-9.38,19.14-74.29,34.4-103.59
			c11.47-22.03,42.09-25.21,42.09-25.21s12.74,20.21,43.56,17.34c30.82-2.87,36.45-21.73,36.45-21.73s27.33,3.63,35.76,10.43
			C857.47,835.52,871.03,869.22,865.9,907.88z"/>
		<path class="st20" d="M840.78,992.94c0,0,9.33,67.48,0.42,86.01c-24.05-12.07-55.39-38.12-45.85-78.83
			c13.85-59.14,70.55-92.23,70.55-92.23C862,937.39,846.37,973.5,840.78,992.94z"/>
		<g>
			<polygon class="st25" points="740.4,913.14 795.52,1001.55 701.74,1001.55 649.23,915.05 			"/>
			<polygon class="st27" points="792.65,997.11 793.6,994.03 741.45,910.35 740.4,913.14 			"/>
			<polygon class="st12" points="741.45,910.35 653.11,912.87 649.23,915.05 740.4,913.14 			"/>
			<polygon class="st24" points="649.23,915.05 599.67,888.22 657.44,978.94 701.74,1001.55 			"/>
		</g>
		<path class="st22" d="M911.49,977.01c-5.31,2.42-18.93,18.48-23.8,20.11c-21.87,7.31-114.93-12.16-114.93-12.16l2.88-16.3
			c0,0,91.34,2.43,101.38-0.26c1.89-0.51,11.76-15.95,15.56-18.16L911.49,977.01z"/>
		<path class="st22" d="M775.65,968.66c0,0-11.02-8.96-18.46-6.94c-7.44,2.03-18.39,11.44-22.46,13.67
			c-4.07,2.23-15.11,10.2-9.51,15.02c5.6,4.82,23.03,0.68,29.94-3.01c6.91-3.7,17.61-2.43,17.61-2.43L775.65,968.66z"/>
		<path class="st22" d="M759.3,961.43c0,0-13.39-1.6-17.04-1.52c-3.66,0.07-2.66,0.87-0.64,3.71c2.02,2.84,8.99,3.92,9.31,4.91
			C751.24,969.52,759.3,961.43,759.3,961.43z"/>
		<path class="st19" d="M820.26,823.91c0,0,39.7,4.71,50.63,21.73c13.82,21.52,46.44,107.25,45.38,128.85
			c0,0-23.85,40.59-105.62,34.09c0,0-8.51-30.05,8.69-39.97c0,0,42-7.47,46.84-11.73l-14.03-58.32L820.26,823.91z"/>
		<path class="st22" d="M661.93,947.37c-1.23-5-12.14-1.88-15.81,1c-0.89,0.7-1.85,1.89-2.79,3.29c-0.11-0.84-0.21-1.64-0.27-2.26
			c-0.21-2.35-2.94-6.56-3.62-3.41c-0.68,3.15-1.8,16.39-1.8,16.39c-0.13,10.66,6.72,15.06,11.13,11.59
			C653.16,970.5,663.16,952.37,661.93,947.37z"/>
	</g>
</g>
</svg>
