<?xml version="1.0" encoding="utf-8"?>
<!-- Generator: Adobe Illustrator 23.0.1, SVG Export Plug-In . SVG Version: 6.00 Build 0)  -->
<svg version="1.1" id="OBJECTS" xmlns="http://www.w3.org/2000/svg" xmlns:xlink="http://www.w3.org/1999/xlink" x="0px" y="0px"
	 viewBox="0 0 436.67 368.67" style="enable-background:new 0 0 436.67 368.67;" xml:space="preserve">
<style type="text/css">
	.st0{opacity:0.1;fill:#2C2A40;}
	.st1{fill:#7B7B9A;}
	.st2{fill:#B0B1CA;}
	.st3{fill:#2C2A40;}
	.st4{opacity:0.2;fill:#2C2A40;}
	.st5{fill:#00497B;}
	.st6{fill:#F9B587;}
	.st7{fill:#F39568;}
	.st8{fill:#5B5B6C;}
	.st9{fill:#E03641;}
	.st10{fill:#3E86AA;}
	.st11{fill:#FFFFFF;}
	.st12{fill:#84519E;}
</style>
<path class="st0" d="M383.24,150.13c-8.96-34.79-41.66-32.63-72.63-26.17c-16.66,3.47-40,8.28-64.35,1.18
	c-52.42-15.27-112.68-19.09-142.38,0c-29.7,19.09-47.55,42.09-38.99,74.22c8.56,32.13,30.32,61.03,11.82,78.22
	s-18.19,82.33,57.89,87.4c76.08,5.07,68.54-67.94,118.79-64.55s153.39,52.82,157.75,16.98c4.36-35.83-51.61-61.4-31.54-120.9
	C383.57,184.71,387.34,166.03,383.24,150.13z"/>
<g>
	<g>
		<path class="st1" d="M378.83,364.36c0,0,6.11-1.08,5.75-9.16c-0.36-8.08-3.05-19.22-8.44-22.46c-5.39-3.23-9.32,1.44-9.32,1.44
			L378.83,364.36z"/>
		<path class="st2" d="M354.75,332.74c0.18,2.69,2.69,6.65,8.08,9.52c5.39,2.88,8.27,13.12,10.69,17.61
			c1.11,2.06,2.32,3.18,3.31,3.79c1.16,0.71,2,0.71,2,0.71s0.03-0.71,0.04-1.93c0.02-2.92-0.11-8.76-1.15-14.95
			c-1.47-8.8-6.69-11.86-6.69-11.86c-0.95-1.62-3-2.78-5.34-3.51c-3.82-1.19-8.4-1.25-10.18-0.35
			C355,332.01,354.73,332.34,354.75,332.74z"/>
		<path class="st3" d="M375.64,346.04c1.27,5.39,1.85,14.29,1.2,17.62c1.16,0.71,2,0.71,2,0.71s0.36-8.08-1.12-16.89
			c-1.47-8.8-6.69-11.86-6.69-11.86c-0.95-1.62-3-2.78-5.34-3.51C368.77,335.2,374.56,341.47,375.64,346.04z"/>
		<path class="st4" d="M354.75,332.74c0.18,2.69,2.69,6.65,8.08,9.52c5.39,2.88,8.27,13.12,10.69,17.61
			c1.11,2.06,2.32,3.18,3.31,3.79c1.16,0.71,2,0.71,2,0.71s0.03-0.71,0.04-1.93c-0.12-0.11-0.25-0.19-0.4-0.22
			c-1.79-0.45-4.22-1.14-5.66-7.82c-1.44-6.67-3.86-11.5-7.99-13.56c-3.77-1.88-8.51-8-9.31-9.07
			C355,332.01,354.73,332.34,354.75,332.74z"/>
	</g>
	<path class="st3" d="M311.35,163.9c0,0,41.6-6.25,52.9,11.42c11.29,17.67-3.88,76.72-16.12,85.66c-12.24,8.94-32.59,4.31-40.2-1.31
		C300.31,254.04,296.78,172.43,311.35,163.9z"/>
	<path class="st5" d="M359.54,237.43c0,0,5.27-1.26,7.16-7.46l-6.29-2.78C360.41,227.19,357.95,233.57,359.54,237.43z"/>
	<path class="st6" d="M359.54,226.56c8.62,13.12,28.09,16.53,28.09,16.53c4.03-1.18,9.4-6.78,14.71-13.62h0
		c10.09-12.99,19.96-30.44,19.96-30.44l-8.08-2.69c0,0-14.19,15.68-20.3,19.09c-6.11,3.41-7.91,6.65-7.91,6.65
		c-0.64-0.69-1.37-1.37-2.16-2.02c-4.34-3.58-10.32-6.38-10.32-6.38C366.61,211.73,359.54,226.56,359.54,226.56z"/>
	<path class="st7" d="M359.54,226.56c8.62,13.12,28.09,16.53,28.09,16.53c4.03-1.18,9.4-6.78,14.71-13.62
		c0,0-9.49,10.08-15.52,10.93c-6.03,0.85-17.46-7.37-18.61-10.51c-1.15-3.14,0.55-11.15,5.31-16.22
		C366.61,211.73,359.54,226.56,359.54,226.56z"/>
	<path class="st3" d="M276.8,260.98c0,0-0.45,26.51,3.27,43.25c3.72,16.74,19.62-27.41,19.62-27.41S285.44,264.31,276.8,260.98z"/>
	<path class="st3" d="M332.37,276.51c0,0-0.35,15.63-10.59,26.68c-10.24,11.05-14.64,23.98-14.64,23.98s15.33-7.01,25.22-5.12
		c0,0,5.18,0.27,7.07-1.89c1.89-2.16,2.43-4.72,5.39-3.91c2.96,0.81,7.14-0.13,8.22-0.27c1.08-0.13,7.95,10.78,6.6,17.92
		c0,0-5.39,1.48-6.06,2.43c-0.67,0.94-4.58,4.99-7.01,4.85c-2.43-0.13-8.89,3.64-8.89,3.64s-33.33,12.68-36.38,14.82
		c-5.14,3.6-29.37,7.55-31.53-6.06c-2.16-13.61,19-78.29,21.96-85.29C294.7,261.28,328.81,268.02,332.37,276.51z"/>
	<g>
		<path class="st8" d="M302.07,321.36l0.94,0.34c0.34-0.93,0.76-1.93,1.24-2.95l-0.9-0.43C302.85,319.38,302.42,320.4,302.07,321.36
			z"/>
		<path class="st8" d="M351.34,320.01l0.21,0.98c0.99-0.22,2.06-0.43,3.17-0.62l-0.17-0.99
			C353.43,319.57,352.35,319.79,351.34,320.01z"/>
		<path class="st8" d="M301.8,329.06l-0.99,0.11l0.01,0.11c0.17,1.38,0.59,2.41,1.27,3.15l0.73-0.68c-0.53-0.57-0.87-1.45-1.01-2.6
			L301.8,329.06z"/>
		<path class="st8" d="M309.7,332l0.27,0.96c1.03-0.29,2.11-0.63,3.13-0.96l-0.31-0.95C311.78,331.38,310.71,331.72,309.7,332z"/>
		<path class="st8" d="M308.91,308.76c-0.63,0.95-1.23,1.87-1.77,2.74l0.85,0.53c0.54-0.86,1.13-1.78,1.76-2.72L308.91,308.76z"/>
		<path class="st8" d="M306.82,313.94l-0.86-0.51c-0.58,0.99-1.12,1.95-1.6,2.86l0.88,0.47
			C305.72,315.86,306.25,314.91,306.82,313.94z"/>
		<path class="st8" d="M327.55,275.44l-0.99-0.17c-0.18,1.06-0.4,2.12-0.64,3.16l0.97,0.22
			C327.14,277.6,327.36,276.52,327.55,275.44z"/>
		<path class="st8" d="M312.86,304.79l-0.81-0.58c-0.68,0.96-1.29,1.83-1.87,2.67l0.82,0.57
			C311.58,306.62,312.19,305.75,312.86,304.79z"/>
		<path class="st8" d="M315.28,299.75c-0.63,0.87-1.27,1.74-1.91,2.63l0.81,0.59c0.64-0.88,1.28-1.76,1.91-2.63L315.28,299.75z"/>
		<path class="st8" d="M302.33,323.81l-0.97-0.26c-0.31,1.16-0.51,2.26-0.59,3.28l1,0.08C301.85,325.95,302.04,324.9,302.33,323.81z
			"/>
		<path class="st8" d="M304.51,332.63l-0.19,0.98c0.38,0.07,0.79,0.11,1.24,0.11c0.65,0,1.36-0.07,2.18-0.23l-0.18-0.98
			C306.3,332.75,305.31,332.78,304.51,332.63z"/>
		<path class="st8" d="M331.28,328.29l0.17,0.99c1.09-0.18,2.17-0.42,3.22-0.7l-0.26-0.97
			C333.39,327.88,332.34,328.11,331.28,328.29z"/>
		<path class="st8" d="M336.53,326.96l0.33,0.94c1.1-0.38,2.13-0.81,3.06-1.28l-0.45-0.89
			C338.58,326.18,337.59,326.59,336.53,326.96z"/>
		<path class="st8" d="M314.93,330.36l0.3,0.95c1.25-0.4,2.2-0.67,3.1-0.9l-0.25-0.97C317.17,329.67,316.2,329.95,314.93,330.36z"/>
		<path class="st8" d="M325.89,328.78l0.01,1c1.08-0.01,2.19-0.07,3.29-0.19l-0.1-0.99C328.02,328.71,326.94,328.77,325.89,328.78z"
			/>
		<path class="st8" d="M345.98,321.54l0.36,0.93c0.85-0.33,1.88-0.66,3.05-0.97l-0.26-0.97
			C347.93,320.86,346.86,321.19,345.98,321.54z"/>
		<path class="st8" d="M342.85,323.38c-0.38,0.42-0.89,0.84-1.5,1.26l0.56,0.83c0.67-0.46,1.23-0.93,1.67-1.41
			c0.2-0.22,0.47-0.43,0.81-0.65l-0.53-0.85C343.45,322.83,343.1,323.1,342.85,323.38z"/>
		<path class="st8" d="M325.38,280.6c-0.28,1.05-0.6,2.08-0.94,3.08l0.95,0.32c0.34-1.02,0.66-2.07,0.95-3.14L325.38,280.6z"/>
		<path class="st8" d="M316.61,297.94l0.81,0.59c0.65-0.89,1.29-1.77,1.92-2.63l-0.81-0.59
			C317.9,296.17,317.26,297.04,316.61,297.94z"/>
		<path class="st8" d="M322.3,291.19l-0.88-0.47c-0.51,0.96-1.06,1.89-1.63,2.76l0.84,0.55
			C321.21,293.13,321.78,292.18,322.3,291.19z"/>
		<path class="st8" d="M322.42,288.73l0.9,0.43c0.46-0.97,0.89-1.99,1.29-3.02l-0.93-0.36
			C323.29,286.79,322.87,287.79,322.42,288.73z"/>
		<path class="st8" d="M320.32,328.96l0.17,0.99c1.17-0.2,2.18-0.27,3.13-0.23l0.05-1C322.64,328.67,321.57,328.74,320.32,328.96z"
			/>
	</g>
	<path class="st6" d="M275.57,83.55l4.06,17.32l0.02,0.11c0,0,0.27,3.21,1.14,7.44c0.98,4.72,2.71,10.72,5.67,14.98
		c0.45,0.65,0.94,1.27,1.45,1.83c0,0,2.57,9.89,5.35,18.43h0c1.63,5.03,3.33,9.6,4.62,11.39c0,0,16.42-3.09,12.49-12.91
		c0,0-5.59-12.8-9.99-22.24c0-0.01,0-0.01,0-0.01c-0.85-1.83-1.66-3.53-2.37-4.99l-5.03-11.49l-2.41-5.51l-7.32-16.71L275.57,83.55z
		"/>
	<path class="st7" d="M293.27,143.66c1.63,5.03,3.33,9.6,4.62,11.39c0,0,16.42-3.09,12.49-12.91c0,0-5.59-12.8-9.99-22.24
		c0.11,0.37,3.95,13.86,2.8,17.65C302.03,141.4,298.61,145.03,293.27,143.66z"/>
	<path class="st9" d="M293.37,155.69c0.24,7.14,3.18,15.64,6.59,20.71c2.05,2.16,4.62,2.16,7.25,1.03
		c6.68-2.86,13.74-12.96,13.74-12.96l-9.62-20.33l-0.94-1.99c-5.43,1.48-10.94,5.35-14.13,7.88c-1.73,1.37-2.78,2.35-2.78,2.35
		C293.36,153.43,293.33,154.55,293.37,155.69z"/>
	<path class="st4" d="M293.37,155.69c0.24,7.14,3.18,15.64,6.59,20.71c2.05,2.16,4.62,2.16,7.25,1.03
		c-5.76-5.72-9.71-21.75-10.95-27.4c-1.73,1.37-2.78,2.35-2.78,2.35C293.36,153.43,293.33,154.55,293.37,155.69z"/>
	<path class="st3" d="M293.37,155.69c4.5-4.47,14.79-9.93,17.95-11.55l-0.94-1.99c-8.37,2.29-16.91,10.23-16.91,10.23
		C293.36,153.43,293.33,154.55,293.37,155.69z"/>
	<path class="st9" d="M271.53,264.38c12.52,16.2,64.78,17.25,64.78,17.25s-1.85-21.45,0-32.07c2.04-11.68,3.8-28.84,3.8-28.84
		c4.78,3.5,12.08,10,16.24,13.78c1.93,1.76,3.19,2.93,3.19,2.93c1.31-6.02,3.13-10.58,5.02-14.01c4.29-7.78,8.96-9.75,8.96-9.75
		l-2.19-2.86l-15.86-20.72l-17.05-14.12l-2.93-2.43l-13.42-8.59l-5.49-3.52c0,0-14.2,5.94-18.24,12.11
		c-4.04,6.17-13.33,34.77-16.17,48.8c-3.68,18.21-8.11,33.62-9.87,39.49l-0.01,0.01C271.81,263.49,271.53,264.38,271.53,264.38z"/>
	<path class="st4" d="M271.53,264.38c12.52,16.2,64.78,17.25,64.78,17.25s-1.85-21.45,0-32.07c2.04-11.68,3.8-28.84,3.8-28.84
		c4.78,3.5,12.08,10,16.24,13.78c1.93,1.76,3.19,2.93,3.19,2.93c1.31-6.02,3.13-10.58,5.02-14.01c0,0-18.32-9.93-26.15-18.6
		c0,0-9.76,27-13.12,40.6c-4.35,17.61-19.1,24.79-32.64,23.89c-13.53-0.9-20.35-7.49-20.35-7.49l-0.01,0.01
		C271.81,263.49,271.53,264.38,271.53,264.38z"/>
	<path class="st3" d="M330.08,179.12c3.1-0.61,4.67-2.33,7.03-4.25l-1.62-1.34l-14.31-11.36c-1.9,1.2-4.27,2.39-4.6,7.21
		C316.09,176.66,323.76,180.37,330.08,179.12z"/>
	<path class="st3" d="M356.35,234.5c1.93,1.76,3.19,2.93,3.19,2.93c4.28-19.67,13.98-23.76,13.98-23.76l-2.19-2.86
		C367.34,213.67,359.02,221.06,356.35,234.5z"/>
	<g>
		<path class="st3" d="M346.24,156.89c0,0,0.28,7.81-8.72,9.41C337.52,166.3,339.77,156.08,346.24,156.89z"/>
		<path class="st9" d="M331.49,140.16c5.44,8.74,14.22,16.09,14.22,16.09s18.75-9.05,12.59-23.93c-1.65-3.99-3.68-6.91-5.89-9.01v0
			h0c-9.38-8.96-21.88-3.17-21.88-3.17C325.08,125.79,327.28,133.39,331.49,140.16z"/>
		<polygon class="st10" points="352.41,123.3 352.41,123.3 352.41,123.3 		"/>
		<path class="st4" d="M331.49,140.16c5.44,8.74,14.22,16.09,14.22,16.09s18.75-9.05,12.59-23.93c-1.65-3.99-3.68-6.91-5.89-9.01
			c0.11,0.17,5.28,8.45,0,13.97C347.07,142.84,337.83,144.84,331.49,140.16z"/>
		<path class="st3" d="M345.61,136.19c0,0-4.9-25.35-20.59-24.2c-14.69,1.08-3.24,20.51-3.24,20.51S342.98,138.55,345.61,136.19z"/>
		<path class="st3" d="M326.22,127.22c0,0-6.73,1.34-6.1,7.54C320.12,134.76,325.82,131.38,326.22,127.22z"/>
		<g>
			<g>
				<path class="st6" d="M337.96,164.76l-2.47,8.78c-0.26,1.2-1.18,2.14-2.38,2.4c-10.3,2.27-15.2-5.29-14.17-7.93
					c1.33-0.47,24.25-7.81,28.42-16.62C347.37,151.39,345.91,159.26,337.96,164.76z"/>
				<path class="st6" d="M320.13,164.38c3.3,1.27,7.94,2.42,12.77,1.56c9.12-1.62,13.87-12.41,13.87-12.41s1.52-7.33-0.53-14.11
					c-0.55-1.84-1.37-3.64-2.55-5.24c-4.29-5.8-11.42-6.83-15.34-7.21c-1.95-0.19-3.84,0.75-4.86,2.42l-1.72,2.81l-1.15,1.88
					c-0.25,0.4-0.47,0.82-0.67,1.24c-0.67,1.43-1.08,2.96-1.2,4.54l-0.13,1.84c-0.89,1.14-1.57,2.41-2.03,3.75
					c-0.4,1.16-0.64,2.39-0.69,3.63l-0.36,8.28C315.41,160.45,317.25,163.27,320.13,164.38z"/>
				<path class="st3" d="M329.56,136.84c0,0,7.3-2.76,8.85,3.28l-1.14,0.87c0,0-2.21-4.65-8.01-2.58L329.56,136.84z"/>
				<path class="st7" d="M318.61,141.7c-0.89,1.14-1.57,2.41-2.03,3.75c1.44-0.3,3.93,0.02,8.11,2.56c0,0-1.54-2.98-3.9-4.06
					c-0.63-0.29-0.81-1.11-0.34-1.63l3.11-3.49c0,0-0.12-1.02-1-1.77c-0.54-0.46-1.66-1.21-2.61-1.74c-0.67,1.42-1.08,2.96-1.2,4.54
					L318.61,141.7z"/>
				<path class="st3" d="M320.7,134.2c1.68,0.87,2.85,1.97,2.85,1.97l-0.42,1.4c-1.05-0.95-2.07-1.57-3.03-1.95
					c-0.47-0.19-0.71-0.71-0.5-1.11c0-0.01,0.01-0.01,0.01-0.01C319.79,134.11,320.29,133.98,320.7,134.2z"/>
				<path class="st11" d="M317.88,148.93l12.66,4.16c0,0-4.26,5.95-10.65,2.96C314.87,153.71,317.88,148.93,317.88,148.93z"/>
				<path class="st7" d="M320.94,164.48c0,0,7.95,2.35,16.58-6.37c0,0,0.19,4.69-4.44,9.28c-3.37,3.35-9.74,2.79-12.96,2.24
					c-0.97-0.17-1.48-1.24-0.98-2.09L320.94,164.48z"/>
				<path class="st6" d="M344.42,150.38c0,0,4.2-3.36,6.68,0.06c2.48,3.42-3.73,12.57-7.76,8.58
					C339.3,155.04,344.42,150.38,344.42,150.38z"/>
			</g>
			<path class="st3" d="M329.39,141.35c0,0,1.66-1.86,3.6-1.02c2.84,1.22,2.34,3.86,2.34,3.86S334.23,139.2,329.39,141.35z"/>
			<path class="st3" d="M322.35,140.08c0,0-0.94-3.17-3.33-0.86C319.03,139.22,321.12,137.99,322.35,140.08z"/>
			<path class="st7" d="M321.67,132.16c0.01,0.09-0.22,0.45-0.21,0.54c0,0,4.1-3.43,11.31-0.64c7.21,2.78,10.74,9.61,10.74,9.61
				l2.73-2.25c-0.55-1.84-1.37-3.64-2.55-5.24c-4.29-5.8-11.42-6.83-15.34-7.21c-1.95-0.19-3.84,0.75-4.86,2.42L321.67,132.16z"/>
		</g>
		<path class="st3" d="M342.22,150.92l2.37,1.08l3.45-3.1c0.54-2.98-1.87-10.93-2.44-12.72c-0.3-0.29-0.8-0.58-1.16-0.86
			c0,0-2.38,8.22,0.2,11.27L342.22,150.92z"/>
	</g>
	<path class="st7" d="M279.63,100.87l0.02,0.11c0,0,0.27,3.21,1.14,7.44l12.18-5l-2.41-5.51L279.63,100.87z"/>
	<path class="st4" d="M297.51,184.36l9.64,8.61c0,0-3.45,13.53-10.83,10.51C287.43,199.84,297.51,184.36,297.51,184.36z"/>
	<g>
		<g>
			
				<rect x="259.98" y="72.58" transform="matrix(-0.9368 0.3498 -0.3498 -0.9368 578.5989 71.0104)" class="st3" width="45.81" height="30.33"/>
			<polygon class="st3" points="256.12,81.55 266.73,109.97 309.65,93.95 308.04,93.49 257.34,79.09 256.52,80.75 256.52,80.75 			
				"/>
			<path class="st11" d="M256.52,80.75L266.65,108c0.59-0.22,0.33-0.12,1.3-0.49l15.41-21.82l-26.02-6.6L256.52,80.75z"/>
			
				<rect x="261.26" y="70.47" transform="matrix(-0.9368 0.3498 -0.3498 -0.9368 578.406 66.827)" class="st3" width="43.81" height="30.33"/>
		</g>
		<path class="st6" d="M271.22,71.56C271.23,71.55,271.23,71.55,271.22,71.56c0.5-0.59,1.4-0.98,1.96-0.95
			c0.12-0.56,0.78-0.98,1.52-1.13c0.43-0.09,0.88-0.01,1.27,0.19c0.34-0.65,1.19-1.04,1.65-0.78c0,0,0.11,0.05,0.31,0.14
			c0.16-0.48,0.52-0.74,0.52-0.74l0,0c0.48-0.67,1.84-1.03,2.36-0.74c0,0,4.54,1.83,4.98,5.34c0.43,3.5,1.07,7.58-0.55,7
			c-0.46-0.17-0.92-0.75-1.33-1.53c0.18,2.1,0.07,3.67-0.98,3.3c-0.58-0.21-1.16-1.07-1.63-2.18c0.1,1.78-0.08,3.02-1.02,2.68
			c-0.85-0.31-1.68-2-2.2-3.82c0.16,2.03,0.04,3.52-0.99,3.15c-1.26-0.45-1.61-3.27-2.49-5.55c-1.03-2.67-1.27-1.27-2.78-2.25
			l-1.36,0.51C270.19,72.63,271.14,71.64,271.22,71.56z"/>
	</g>
	<path class="st6" d="M411.89,200.86c-1.91-1.19-3.29-3.05-3.89-5.22c-0.17-0.62-0.37-1.28-0.61-1.93c-0.9-2.52-0.18-7.91,0-10.06
		c0.18-2.16,1.71-6.29,2.16-6.74c0.45-0.45,3.14,1.47,2.07,4.24c-1.08,2.77-0.3,5.85,0.25,6.74c0.56,0.89,3.07-0.73,3.7-2.35
		c0.63-1.62,6.11-13.83,7.19-14.19c1.08-0.36,1.98-0.09,1.26,3.05c-0.72,3.14-4.13,8.62-3.68,10.15c0.45,1.53,1.26,0.27,1.53-0.54
		c0.27-0.81,4.67-12.37,5.39-12.79c0.72-0.42,2.78-1.14,1.71,3.76c-1.08,4.9-4.42,10.87-4.22,11.95c0.2,1.08,4.78-10.85,6.06-11.52
		c1.28-0.67,2.22,0.54,1.21,3.5c-1.01,2.96-3.71,8.71-3.94,9.36c-0.19,0.55-0.08,1.01,0.39,0.74c0.47-0.27,3.32-7.27,3.97-7.67
		c0.65-0.4,2.27,0.34,0.52,5.12c-1.75,4.78-2.92,9.02-7.68,13.42c-2.94,2.72-4.38,4.36-7.14,3.96
		C416.48,203.6,413.96,202.15,411.89,200.86z"/>
	<path class="st3" d="M352.41,187.41c0,0,1.17-12.95-9-15.65c-7.29-1.93-19.65,11.5-22.78,26.59c-5.53,26.68,7.29,49.95,15.67,53
		c0,0,7.65-5.93,1.82-13.92c0,0-15.78-15.91-8.74-38.81c5.86-19.07,15.22-23.98,18.74-14.62L352.41,187.41z"/>
	<path class="st3" d="M287.4,202.58l4.36-13.41c0,0-0.61-23.42,24.11-29.33c-0.25-0.78-0.37-1.62-0.33-2.47l0.15-3.57
		C312.6,154,281.1,163.11,287.4,202.58z"/>
	<path class="st7" d="M386.01,229.89c-0.47-4.21,0-7.82,0-7.82c-0.64-0.69-1.37-1.37-2.16-2.02
		C382.78,228.31,386.01,229.89,386.01,229.89z"/>
	<path class="st7" d="M286.47,123.4c0.45,0.65,0.94,1.27,1.45,1.83c0,0,4.16-2.43,5.36-3.06
		C293.28,122.18,289.44,122.25,286.47,123.4z"/>
	<g>
		<path class="st2" d="M353.05,316.61c2.23,2.11,4.04,7.04,5.21,11.03c0,0.01,0,0.01,0.01,0.02c0.95,3.24,1.48,5.86,1.48,5.86
			c1.98,2.16,6.51,1.54,13.78,2.33c6.55,0.71,11.13,5.26,16.01,7.22c0,0,0,0,0.01,0c0.54,0.22,1.09,0.4,1.64,0.55
			c2.9,0.76,4.95,0.29,6.06-1.12c1.01-1.27,1.25-3.3,0.68-5.86c-1.21-5.4-14.82-17.26-18.73-18.84c-3.91-1.58-6.33-2.5-10.98-6.32
			c-4.64-3.82-9.37-4.08-10.31-2.65c-0.16,0.24-0.4,0.62-0.69,1.08C355.76,312.21,353.05,316.61,353.05,316.61z"/>
		<path class="st3" d="M357.21,309.91c1.54-0.17,4.14-0.25,5.99,0.83c2.78,1.62,6.74,5.39,10.96,7.37
			c4.22,1.98,12.31,7.55,16.53,11.5c4.22,3.95,6.71,10.17,5.48,12.22c-1.23,2.05-3.46,1.97-6.62,1.26c0.54,0.22,1.09,0.4,1.64,0.55
			c5.52,1.45,7.95-1.58,6.74-6.98c-1.21-5.4-14.82-17.26-18.73-18.84c-3.91-1.58-6.33-2.5-10.98-6.32
			c-4.64-3.82-9.37-4.08-10.31-2.65C357.74,309.06,357.5,309.44,357.21,309.91z"/>
		<path class="st4" d="M358.26,327.66c0.95,3.24,1.48,5.86,1.48,5.86c1.98,2.16,6.51,1.54,13.78,2.33
			c6.55,0.71,11.13,5.26,16.01,7.22c0,0,0,0,0.01,0c0.54,0.22,1.09,0.4,1.64,0.55c2.9,0.76,4.95,0.29,6.06-1.12l0.36-2.12
			c0,0-4.85,2.43-10.42-0.81c-4.26-2.47-6.19-4.89-9.61-5.84c0.64-2.59-0.81-5.39-0.81-5.39c-0.27,2.88-1.06,4.95-1.06,4.95
			c-0.68-0.1-1.39-0.13-2.17-0.09C367.97,333.46,359.29,330.78,358.26,327.66z"/>
	</g>
</g>
<g>
	<g>
		<path class="st2" d="M33.26,276.27c1.7-0.1,3.1-0.96,4.3-2.22c0.04-0.04,0.08-0.08,0.11-0.12c0,0,0,0,0,0
			c2.1-2.25,3.6-5.69,5.09-8.27c0.43-0.76,0.87-1.45,1.32-2.01c1.4-1.77,3.85-6.42,5.98-10.72c0.11-0.22,0.22-0.43,0.32-0.65
			c2.07-4.2,3.77-7.87,3.77-7.87s-0.79-2.3-2.04-4.67c-0.39-0.73-0.82-1.46-1.28-2.13c-0.93-1.35-2.01-2.47-3.17-2.82
			c-3.59-1.11-6.92,1.28-9.69,4.49c-2.71,3.15-10.16,16.44-11.37,21.96c-0.03,0.12-0.05,0.23-0.07,0.34
			C25.28,268.53,27.65,276.6,33.26,276.27z"/>
		<path class="st3" d="M33.26,276.27c1.75-0.1,3.19-1.02,4.42-2.34c-3.91,1.87-6.29,0.74-7.66-0.81c-1.71-1.94-2.36-7.26-1.91-9.51
			c1.09-5.47,5.14-14.05,7.2-17.47c2.06-3.42,6.15-9.05,10.12-9.6c2.27-0.32,4.19,0.4,5.42,1.07c-0.93-1.35-2.01-2.47-3.17-2.82
			c-3.59-1.11-6.92,1.28-9.69,4.49c-2.76,3.22-10.48,17.02-11.44,22.3C25.28,268.53,27.65,276.6,33.26,276.27z"/>
		<path class="st4" d="M33.26,276.27c1.7-0.1,3.1-0.96,4.3-2.22c0.04-0.04,0.08-0.08,0.11-0.12c0,0,0,0,0,0
			c2.1-2.25,3.6-5.69,5.09-8.27c0.43-0.76,0.87-1.45,1.32-2.01c1.4-1.77,3.85-6.42,5.98-10.72c0.11-0.22,0.22-0.43,0.32-0.65
			c-0.67-0.79-1.56-1.13-2.72-0.81c0,0-2.79,2.57-5.42,7.86c-2.9,5.81-4.42,11.33-9.84,11.37c-5.42,0.05-4.44-3.51-5.17-8.63
			c-0.1-0.71-0.33-0.95-0.64-0.82c-0.03,0.12-0.05,0.23-0.07,0.34C25.28,268.53,27.65,276.6,33.26,276.27z"/>
	</g>
	<g>
		<path class="st2" d="M122.95,324.9c0.06,3,2.42,22.88,8.9,26.9c3.27,2.03,5.15,1.95,6.09,0.43c0.54-0.87,0.78-2.2,0.79-3.88
			c0.01-1.2-0.09-2.58-0.27-4.08c-0.89-7.29-1-24.16,5.41-27.82c0,0-1.17-8.71-4.17-14.07c-0.9-1.62-1.97-2.93-3.22-3.61
			c0,0-4.47,0.03-7.29,0.41c-1.22,0.16-2.85,0.11-4.39,0.53c-2.02,0.55-3.86,1.91-4.33,5.65
			C119.63,311.94,122.89,321.89,122.95,324.9z"/>
		<path class="st3" d="M122.95,324.9c0.06,3,2.42,22.88,8.9,26.9c3.27,2.03,5.15,1.95,6.09,0.43c-1.65,0.07-3.94-0.48-5.99-2.24
			c-2.82-2.42-6.36-16.07-6.15-20.47c0.21-4.4-1.61-12.41-3.2-18.56c-1.21-4.65,1.04-9.28,2.2-11.25c-2.02,0.55-3.86,1.91-4.33,5.65
			C119.63,311.94,122.89,321.89,122.95,324.9z"/>
		<path class="st4" d="M122.95,324.9c0.06,3,2.42,22.88,8.9,26.9c3.27,2.03,5.15,1.95,6.09,0.43c0.54-0.87,0.78-2.2,0.79-3.88
			c-1.24,0.28-3.1-0.19-5.25-1.4c-3.8-2.13-4.55-13.78-4.01-21.47c0.55-7.69-4.05-13.73-1.41-18.57c2.64-4.84,11.37-3.75,11.37-3.75
			c0.11-0.27,0.19-0.53,0.26-0.78c-0.9-1.62-1.97-2.93-3.22-3.61c0,0-4.47,0.03-7.29,0.41c-1.22,0.16-2.85,0.11-4.39,0.53
			c-2.02,0.55-3.86,1.91-4.33,5.65C119.63,311.94,122.89,321.89,122.95,324.9z"/>
	</g>
	<path class="st3" d="M123.52,114.24c0,0-39.01,1.06-46.46,19.03c-7.44,17.97,16.01,69.44,28.65,75.61
		c12.64,6.18,30.46-1.36,36.5-7.74C148.25,194.78,138.2,119.66,123.52,114.24z"/>
	<g>
		<g>
			<path class="st6" d="M99.16,162.12c0,0-0.06,7.26-3.03,15.15c0,0-0.87,5.27-2.23,11.79c0,0,0,0,0,0
				c-1.6,7.69-3.16,13.34-5.46,18.01c-1.94,3.93-3.35,7.71-4.31,10.65c-0.12,0.36-0.23,0.7-0.33,1.03l0,0
				c-0.91,2.94-1.32,4.83-1.32,4.83l-8.56-2.85c0,0-0.53-9.02-0.38-13.93c0.19-6.09-0.45-17.98,3.45-27.83c0,0,0,0,0,0
				c0.31-0.79,0.65-1.51,1.01-2.15c0,0,1.1-9.71,2.68-16.13c0.53-2.13,1.1-3.89,1.71-4.82C82.39,155.89,95.06,154.57,99.16,162.12z"
				/>
			<path class="st7" d="M83.53,177.72c0,0-4.98,0.05-6.54,1.26c0,0,0,0,0,0c0.31-0.79,0.65-1.51,1.01-2.15
				C78,176.84,81.83,176.62,83.53,177.72z"/>
			<path class="st7" d="M99.16,162.12c0,0-0.06,7.26-3.03,15.15c0,0-0.87,5.27-2.23,11.79c0.53-4.91,0.16-13.73,0.26-20.16
				c0.07-4.39-3.88-5.42-7.34-6.66c-1.44-0.52-4.26-1.05-5.93-1.6c-0.07-0.02-0.14,0.05-0.21,0.07c0.53-2.13,1.1-3.89,1.71-4.82
				C82.39,155.89,95.06,154.57,99.16,162.12z"/>
		</g>
		<path class="st6" d="M81.21,216.94l8.2,5.81c0.87,0.62,1.39,1.61,1.41,2.67l0.13,7.9c0.02,0.94-0.73,1.72-1.68,1.73l0,0
			c-0.79,0.01-1.48-0.52-1.68-1.28l-1.89-7.44l-1.93-0.71l1.21,4.44l1.49,4.03l3.74,4.68c0.54,0.68,0.41,1.68-0.3,2.19l0,0
			c-0.62,0.45-1.47,0.37-1.99-0.18l-4.93-5.12l-3.3-4.04l2.59,5.08l5,7.47c0.33,0.49,0.33,1.14,0,1.63l0,0
			c-0.51,0.76-1.59,0.86-2.24,0.22l-5.42-5.39l-3.08-4.8l2.71,8.47l2.4,5.42c0.27,0.6,0.05,1.3-0.51,1.65l0,0
			c-0.62,0.38-1.43,0.19-1.81-0.42l-3.48-5.63l-2.51-6.53l1.62,5.62l0.89,1.92c0.19,0.4,0.01,0.87-0.39,1.06l0,0
			c-0.35,0.16-0.76,0.05-0.98-0.26l-1.33-1.84l-1.97-4.66l2.76-19.96C73.96,220.67,75.11,217.93,81.21,216.94z"/>
		<path class="st7" d="M83.8,218.77c0,0-2.53-1.51-5.5-1.13c0,0,3.2-1.21,5.83,0.09L83.8,218.77z"/>
	</g>
	<g>
		<path class="st6" d="M161.93,99.06c8.73-17.21,5.18-39.81,4.56-45.52c-0.05-0.5-0.27-1.2-0.64-2.05c0,0,0,0,0,0
			c-3.31-7.86-18.29-29.06-21.7-33.84c-0.23-0.33-0.41-0.57-0.53-0.74c-0.11-0.15-0.16-0.23-0.16-0.23l-10.51,4.89
			c0,0,7.07,7.39,9.84,16.66c2.78,9.27,9.42,21.43,9.42,21.43c-2.93,10.76-3.15,24.83-3.15,24.83
			C154.15,96.42,161.93,99.06,161.93,99.06z"/>
		<path class="st7" d="M161.93,99.06c8.73-17.21,5.18-39.81,4.56-45.52c-0.05-0.5-0.27-1.2-0.64-2.05
			c-0.01,0.28-0.26,18.48-1.44,24.36c-1.2,5.93-3.1,12.15-6.56,12.98c-3.46,0.83-6.91-1.13-8.79-4.33
			C154.15,96.42,161.93,99.06,161.93,99.06z"/>
		<g>
			<path class="st6" d="M143.42,17.51c-1.41,1.49-7.51,5.63-8.4,6.03c-0.31,0.14-0.73-0.06-1.14-0.38
				c-0.41,0.01-3.09,0.05-4.55-0.65c-0.8-0.39-0.76-1.53-0.52-2.74c-1.93-0.52-5.65-3.58-5.52-6.4c0.13-3.08,3.44-3.22,3.44-3.22
				c0.15-3.53,3.49-2.88,3.49-2.88c0.21-1.53,3.02-2.15,3.02-2.15c0.32-1.3,2.15-1.49,3.22-0.95c1.07,0.54,7.32,8.17,7.57,9.54
				C144.28,15.1,143.42,17.51,143.42,17.51z"/>
			<path class="st7" d="M133.84,18.2c0.42,1.78-1.07,1.97-1.07,1.97c0.31-0.22,0.3-0.98,0.23-1.63c0,0,0-0.44-0.15-0.98c0,0,0,0,0,0
				c-0.17-0.58-0.52-1.27-1.25-1.62c-1.32-0.63-1.93-0.24-1.93-0.24l-2.56-3.66c1.35,0.86,3.12,2.87,3.12,2.87
				c2.36-0.04,3.19,1.72,3.48,2.68c0.46-0.02,0.98-0.21,1.18-0.85c0.4-1.27-0.42-2.53-0.42-2.53l-3.55-4.98c0,0,4.9,4.8,4.97,6.62
				C135.97,18.28,133.84,18.2,133.84,18.2z"/>
			<path class="st7" d="M134.63,7.78c0,0,3.18,4,3.59,5.08c0.44,1.18-0.33,2.33-1.19,2.54c-0.86,0.21-1.34-0.24-1.34-0.24
				l-0.03,1.23c0,0,3.3,0.6,3.35-2.55C139.04,12.27,134.63,7.78,134.63,7.78z"/>
			<path class="st7" d="M138.83,13.11c0,0,0.78,0.79,1.76,0.5c0.98-0.29,1.19-0.94,0.98-1.54c0,0,0.57,0.59,0.05,1.43
				c-0.68,1.09-2.31,0.85-2.82,0.7L138.83,13.11z"/>
		</g>
		<path class="st7" d="M142.16,18.94c0,0,1.2-0.22,1.98-1.31c-0.23-0.33-0.41-0.57-0.53-0.74C143.62,16.9,143.14,17.94,142.16,18.94
			z"/>
		<path class="st7" d="M134.68,23.58c0,0,1.54-0.13,2.41-0.68c0,0-0.81,1.06-1.9,1.31L134.68,23.58z"/>
		<path class="st7" d="M152.21,59.66c0,0,4.6-0.7,6.17-2.01c0,0-1.68,3.96-6.69,4.1L152.21,59.66z"/>
	</g>
	<path class="st3" d="M46.81,258.53c1.85,1.38,1,1.69,2.83,2.68c1.77,0.96,6.43,4.77,6.72,5.01c0.01,0.01,0.01,0.01,0.01,0.01
		c12.17,12.92,32.67,33.02,43.79,34.55c10.48,1.44,26.09-27.94,36.06-49.51c0,0,0,0,0,0c0.11-0.16,4.17-6.15,10.25-4.39
		c6.15,1.79,28.83,23.07,39.26,28.46c0,0-13.99,0.72-18.56,6.58c-4.57,5.86-17.31,11.47-19.62,12.39c-2.31,0.93-3.52-0.11-5.67,1.31
		c-2.15,1.42-5.4,3.17-5.4,3.17c-0.09,6.53,2.35,12.18,7.12,17.85c0,0,1.99-1.07,3.89-1.64c2.65-0.78,8.23-2.25,9.22-4.08
		c0.99-1.83,35.46-9.08,35.46-9.08s26.48-5.25,28.54-17.81c2.06-12.57-51.71-69.04-51.71-69.04l-4.16-18.11l-19.41,3.21l0-0.01
		L110,202.75c0,0-6.06,16.28-7.76,30.97c-1.14,9.83-7.65,33.18-7.65,33.18s-5.99-6.16-17.65-11.15c-2.98-1.28-6.05-2.67-8.97-4.03
		l0,0c0,0-4.42-2.22-5.96-4.36c-1.54-2.14-2.48-1.32-4.15-1.82c-1.67-0.5-3.07-2.52-4.19-2.32c-1.11,0.21-1.44,0.76-1.44,0.76
		c-2.84,2.67-4.12,4.43-6.01,10.97C46.22,254.95,44.95,257.15,46.81,258.53z"/>
	<g>
		<path class="st8" d="M78.49,262.21l-0.4,0.63c0.83,0.53,1.72,1.15,2.64,1.85l0.45-0.6C80.24,263.38,79.34,262.75,78.49,262.21z"/>
		<path class="st8" d="M73.63,259.58l-0.35,0.66c0.8,0.42,1.57,0.82,2.29,1.17c0.2,0.1,0.4,0.2,0.61,0.31l0.35-0.66
			c-0.21-0.11-0.42-0.22-0.63-0.32C75.19,260.39,74.42,260,73.63,259.58z"/>
		<path class="st8" d="M68.46,257.54c0.96,0.57,1.91,1.11,2.83,1.62l0.36-0.66c-0.91-0.51-1.86-1.05-2.82-1.61L68.46,257.54z"/>
		<path class="st8" d="M82.5,266.07c0.78,0.63,1.59,1.31,2.48,2.08l0.49-0.57c-0.9-0.78-1.72-1.46-2.5-2.1L82.5,266.07z"/>
		<path class="st8" d="M91.26,272.75l-0.49,0.56c1.07,0.94,1.78,1.51,2.3,1.85c0.12,0.08,0.24,0.14,0.36,0.2l0.32-0.68
			c-0.09-0.04-0.18-0.09-0.27-0.15C92.99,274.22,92.31,273.67,91.26,272.75z"/>
		<path class="st8" d="M95.55,274.55l0.36,0.66c0.79-0.44,1.59-1.25,2.39-2.41l-0.62-0.42C96.96,273.43,96.24,274.16,95.55,274.55z"
			/>
		<path class="st8" d="M87.17,269.07l-0.5,0.56c0.71,0.63,1.39,1.24,2.03,1.82l0.39,0.35l0.5-0.56l-0.39-0.35
			C88.56,270.32,87.88,269.7,87.17,269.07z"/>
		<path class="st8" d="M63.76,254.66c0.89,0.57,1.82,1.15,2.77,1.73l0.39-0.64c-0.94-0.57-1.87-1.15-2.75-1.72L63.76,254.66z"/>
		<path class="st8" d="M50.77,246.86c-0.19,0.22-0.38,0.45-0.56,0.68c0.59,0.08,1.45,0.22,2.38,0.44l0.17-0.73
			C52.02,247.07,51.33,246.94,50.77,246.86z"/>
		<path class="st8" d="M54.97,247.89l-0.26,0.7c1.1,0.41,1.94,0.88,2.5,1.4c0.05,0.05,0.11,0.1,0.17,0.15l0.5-0.56
			c-0.06-0.05-0.11-0.1-0.16-0.14C57.09,248.85,56.16,248.33,54.97,247.89z"/>
		<path class="st8" d="M59.62,250.96l-0.44,0.61c0.76,0.56,1.67,1.18,2.69,1.86l0.42-0.62C61.27,252.13,60.37,251.51,59.62,250.96z"
			/>
		<path class="st8" d="M108.86,227.81l0.73,0.19c0.28-1.05,0.56-2.1,0.84-3.14l-0.72-0.2C109.41,225.71,109.13,226.76,108.86,227.81
			z"/>
		<path class="st8" d="M110.3,222.49l0.72,0.2c0.29-1.05,0.59-2.1,0.89-3.13l-0.72-0.21C110.89,220.39,110.59,221.43,110.3,222.49z"
			/>
		<path class="st8" d="M106.24,238.53l0.73,0.16c0.23-1.02,0.47-2.09,0.73-3.17l-0.73-0.17
			C106.71,236.43,106.47,237.5,106.24,238.53z"/>
		<path class="st8" d="M107.5,233.15l0.73,0.18c0.25-1.02,0.52-2.08,0.79-3.15l-0.73-0.19C108.02,231.06,107.75,232.13,107.5,233.15
			z"/>
		<path class="st8" d="M111.82,217.19l0.72,0.21c0.31-1.06,0.62-2.1,0.93-3.12l-0.72-0.22
			C112.44,215.08,112.13,216.12,111.82,217.19z"/>
		<path class="st8" d="M98.81,270.47l0.67,0.35c0.46-0.89,0.92-1.9,1.36-3l-0.7-0.28C99.71,268.62,99.26,269.61,98.81,270.47z"/>
		<path class="st8" d="M115.12,206.66l0.71,0.24c0.38-1.12,0.74-2.15,1.07-3.07l-0.7-0.26C115.86,204.5,115.5,205.53,115.12,206.66z
			"/>
		<path class="st8" d="M113.42,211.91l0.72,0.22c0.33-1.07,0.67-2.11,0.99-3.1l-0.71-0.23
			C114.09,209.79,113.75,210.84,113.42,211.91z"/>
		<path class="st8" d="M100.91,265.45l0.71,0.24c0.34-0.99,0.67-2.04,0.97-3.13l-0.72-0.2
			C101.56,263.44,101.24,264.47,100.91,265.45z"/>
		<path class="st8" d="M105.12,243.93l0.74,0.14c0.19-1,0.4-2.07,0.64-3.19l-0.73-0.15C105.52,241.86,105.31,242.93,105.12,243.93z"
			/>
		<path class="st8" d="M102.43,260.2l0.73,0.18c0.26-1.04,0.49-2.12,0.71-3.19l-0.74-0.15C102.92,258.11,102.69,259.17,102.43,260.2
			z"/>
		<path class="st8" d="M103.53,254.84l0.74,0.12c0.18-1.08,0.34-2.16,0.47-3.23l-0.74-0.09
			C103.87,252.7,103.71,253.77,103.53,254.84z"/>
		<path class="st8" d="M104.25,249.4l0.74,0.09c0.11-0.96,0.27-2.04,0.47-3.2l-0.74-0.12C104.53,247.34,104.37,248.43,104.25,249.4z
			"/>
	</g>
	<g>
		<path class="st8" d="M150.05,243.18c-1.12-0.03-2.24,0.13-3.32,0.46l0.22,0.72c1.01-0.31,2.05-0.46,3.08-0.43L150.05,243.18z"/>
		<path class="st8" d="M155.09,245.4l0.37-0.65c-0.3-0.17-0.58-0.32-0.85-0.44c-0.74-0.35-1.5-0.62-2.25-0.81l-0.18,0.73
			c0.7,0.18,1.41,0.43,2.12,0.76C154.54,245.1,154.8,245.24,155.09,245.4z"/>
		<path class="st8" d="M157.03,293.36l0.33,0.67c0.98-0.49,1.96-0.99,2.91-1.48l-0.35-0.66C158.98,292.38,158,292.88,157.03,293.36z
			"/>
		<path class="st8" d="M161.91,290.82l0.36,0.66c1.01-0.55,1.97-1.09,2.84-1.61l-0.38-0.65
			C163.86,289.74,162.91,290.28,161.91,290.82z"/>
		<path class="st8" d="M166.65,288.07l0.4,0.63c1.12-0.71,2.03-1.35,2.71-1.88l-0.47-0.58
			C168.63,286.75,167.74,287.37,166.65,288.07z"/>
		<path class="st8" d="M138.27,302.83c0.67-0.47,1.33-0.9,1.96-1.29l-0.4-0.64c-0.56,0.35-1.13,0.72-1.72,1.13
			C138.17,302.3,138.22,302.56,138.27,302.83z"/>
		<path class="st8" d="M141.82,299.76l0.35,0.66c1.08-0.57,2.07-0.99,2.92-1.25l-0.22-0.72
			C143.97,298.73,142.94,299.17,141.82,299.76z"/>
		<path class="st8" d="M161.28,249.96c0.76,0.63,1.59,1.34,2.47,2.11l0.49-0.57c-0.88-0.77-1.72-1.48-2.48-2.12L161.28,249.96z"/>
		<path class="st8" d="M147.01,297.81l0.25,0.71c0.86-0.31,1.89-0.71,3.05-1.2l-0.29-0.69C148.87,297.1,147.86,297.5,147.01,297.81z
			"/>
		<path class="st8" d="M152.07,295.72l0.31,0.68c0.95-0.43,1.95-0.89,2.96-1.38l-0.32-0.68C154,294.83,153.01,295.29,152.07,295.72z
			"/>
		<path class="st8" d="M144.14,245.7c0.25-0.16,0.52-0.33,0.81-0.49l-0.36-0.66c-0.53,0.29-0.99,0.59-1.37,0.87
			C143.53,245.52,143.84,245.61,144.14,245.7z"/>
		<path class="st8" d="M157.38,245.99l-0.43,0.61c0.76,0.54,1.63,1.19,2.58,1.94l0.47-0.59
			C159.04,247.19,158.16,246.53,157.38,245.99z"/>
		<path class="st8" d="M189.72,279.28c-0.36,0.27-1.21,0.58-2.62,0.96l0.2,0.72c1.53-0.42,2.42-0.75,2.87-1.09
			c0.09-0.07,0.18-0.14,0.27-0.22l-0.49-0.56C189.87,279.17,189.8,279.23,189.72,279.28z"/>
		<path class="st8" d="M182.41,267.6l-0.47,0.58c1,0.81,1.86,1.45,2.62,1.98l0.43-0.62C184.24,269.03,183.4,268.39,182.41,267.6z"/>
		<path class="st8" d="M186.89,270.68l-0.02-0.01l-0.32,0.68l0.03,0.01c1.06,0.5,1.95,1.05,2.65,1.64l0.48-0.57
			C188.95,271.79,188,271.2,186.89,270.68z"/>
		<path class="st8" d="M191.26,274.2l-0.65,0.38c0.25,0.43,0.42,0.87,0.5,1.31c0.09,0.51,0.06,1.03-0.08,1.52l0.72,0.21
			c0.18-0.61,0.21-1.24,0.1-1.86C191.75,275.23,191.55,274.7,191.26,274.2z"/>
		<path class="st8" d="M183.32,281.18c-0.51,0.12-1.03,0.24-1.56,0.37l0.18,0.73c0.53-0.13,1.05-0.25,1.56-0.37
			c0.56-0.13,1.1-0.26,1.61-0.38l-0.18-0.73C184.42,280.92,183.88,281.05,183.32,281.18z"/>
		<path class="st8" d="M176.42,282.96l0.22,0.72c0.93-0.28,1.95-0.56,3.12-0.86l-0.19-0.73
			C178.39,282.4,177.36,282.68,176.42,282.96z"/>
		<path class="st8" d="M171.22,284.96l0.35,0.66c0.8-0.42,1.79-0.84,2.94-1.25l-0.25-0.71
			C173.06,284.09,172.07,284.51,171.22,284.96z"/>
		<path class="st8" d="M171.75,258.23c-0.57-0.52-1.14-1.04-1.71-1.56l-0.5,0.56c0.57,0.52,1.14,1.04,1.71,1.55l0.7,0.63l0.5-0.56
			L171.75,258.23z"/>
		<path class="st8" d="M173.61,260.93c0.82,0.74,1.63,1.47,2.42,2.18l0.5-0.56c-0.79-0.71-1.6-1.44-2.42-2.18L173.61,260.93z"/>
		<path class="st8" d="M180.67,266.17c-0.75-0.63-1.56-1.33-2.46-2.12l-0.5,0.56c0.91,0.8,1.71,1.49,2.47,2.13L180.67,266.17z"/>
		<path class="st8" d="M168.36,255.17c-0.82-0.74-1.63-1.46-2.43-2.17l-0.5,0.56c0.8,0.71,1.61,1.43,2.42,2.17L168.36,255.17z"/>
	</g>
	<path class="st12" d="M172.02,213.7c0,0-35.5,11.56-54.67,6.38c-1.43-0.39-13.09-2.75-13.09-2.75s6.58-24.98,4.74-41.57
		c-0.48-4.4-1.52-13.08-4.63-20.96c-1.11-2.82-2.25-5.69-3.37-8.48c-3.33-8.26-6.43-15.79-7.8-19.09c2.85-1.97,5.18-2.48,5.72-2.58
		c0.08-0.01,0.11-0.01,0.11-0.01c3.15-0.53,7.17-1.36,11.46-2.65h0.01c5.52-1.68,11.49-4.12,16.66-7.68l4.8-2.67l5.04-2.81
		c0,0,6.2,2.24,12.64,11.44c-1.66,1.97-3.44,3.79-5.35,5.36c2.84,1.78,5.21,2.62,5.21,2.62c1.23-0.69,2.39-1.54,3.49-2.53
		c4.08,7.56,7.82,18.34,9.65,33.59c1.65,13.85,4.56,30.01,6.71,41.1C170.88,208.36,172.02,213.7,172.02,213.7z"/>
	<path class="st3" d="M120,127.83c-6.58-0.56-8.09-3.7-9.5-5.84c5.52-1.68,11.49-4.12,16.66-7.68l3.15-1.77
		c0.9,0,3.12,1.66,3.12,4.98C133.43,122,128.75,128.58,120,127.83z"/>
	<path class="st4" d="M141.05,137.35l11.55-5.17c0,0,8.98,13.49,1.66,16.13C146.39,151.14,141.05,137.35,141.05,137.35z"/>
	<path class="st3" d="M128.72,81.56c0,0,4.85-3.67,2.86-11.04c0,0-1.63,2.8-3.11,3.08c0,0,3.75-10.15-7.71-15.8
		c0,0,1.34,5.58-0.02,7.44c0,0-3.03-6.46-7.51-7.79c0,0,0.67,11.31-6.34,13.6c-5,1.63-11.47,7.44-13.25,16.99
		c0,0-2.91-0.84-3.99,0.3c0,0,3.72,0.63,4.24,3c0,0-1.56-0.79-2.74,0.21c0,0,2.63,0.54,3.04,2.6c0.41,2.06,10.37,17.8,16.38,20.42
		C116.57,117.2,128.72,81.56,128.72,81.56z"/>
	<g>
		<g>
			<path class="st6" d="M113.17,116.97l0.8,4.62c0.2,1.17,1.07,2.13,2.22,2.43c9.94,2.59,14.32-3.59,14.82-5.98
				c-1.28-0.51-24.05-9.72-27.78-18.46C103.23,99.58,105.63,111.32,113.17,116.97z"/>
			<path class="st6" d="M131.6,91.22c0.82,1.14,1.44,2.4,1.84,3.73c0.35,1.15,0.53,2.35,0.53,3.56l0.04,8.07
				c0.01,3-1.89,5.68-4.73,6.65c-3.26,1.11-7.82,2.06-12.49,1.04c-8.82-1.92-13.04-12.6-13.04-12.6s-3.68-11.08,3.72-18.72
				c5.12-5.29,12-6.33,15.74-6.47c1.6-0.06,3.11,0.78,3.89,2.18l2.83,5.06c0.23,0.4,0.43,0.81,0.6,1.23
				c0.6,1.41,0.94,2.92,0.99,4.47L131.6,91.22z"/>
			<path class="st3" d="M121.12,86.08c0,0-7-2.96-8.74,2.86l1.08,0.89c0,0,2.32-4.45,7.9-2.21L121.12,86.08z"/>
			<path class="st7" d="M131.6,91.22c0.82,1.14,1.44,2.4,1.84,3.73c-1.39-0.35-3.83-0.13-7.99,2.19c0,0,1.61-2.84,3.95-3.81
				c0.63-0.26,0.83-1.05,0.39-1.58l-2.89-3.51c0,0,0.16-0.99,1.04-1.68c0.54-0.42,1.66-1.12,2.61-1.6c0.6,1.41,0.94,2.92,0.99,4.47
				L131.6,91.22z"/>
			<path class="st3" d="M129.84,83.84c-1.66,0.78-2.85,1.81-2.85,1.81l0.36,1.37c1.06-0.89,2.08-1.45,3.02-1.78
				c0.47-0.17,0.71-0.66,0.53-1.07c0,0,0-0.01-0.01-0.01C130.73,83.78,130.25,83.64,129.84,83.84z"/>
			<path class="st11" d="M132.04,98.29l-12.48,3.58c0,0,3.93,5.95,10.26,3.28C134.79,103.05,132.04,98.29,132.04,98.29z"/>
			<path class="st7" d="M128.48,113.31c0,0-7.82,1.99-15.91-6.82c0,0-0.36,4.56,3.98,9.21c4.34,4.65,14.46,2.34,14.46,2.34
				L128.48,113.31z"/>
			<path class="st6" d="M106.15,98.71c0,0-3.96-3.43-6.51-0.19c-2.55,3.24,3.16,12.38,7.24,8.65
				C110.95,103.43,106.15,98.71,106.15,98.71z"/>
		</g>
		<path class="st3" d="M121.12,90.48c0,0-1.55-1.87-3.47-1.13c-2.81,1.08-2.42,3.67-2.42,3.67S116.49,88.2,121.12,90.48z"/>
		<path class="st3" d="M128.02,89.5c0,0,1.03-3.06,3.27-0.72C131.29,88.79,129.29,87.51,128.02,89.5z"/>
	</g>
	<path class="st3" d="M104.62,86.27c0,0,3.04,3.67,0.57,7.5l2.55,5.88l-2.64,0.68l-2.2-3.26l-1.7-8.42
		C101.2,88.65,103.25,84.79,104.62,86.27z"/>
	<path class="st12" d="M168.82,92.08c0,0-0.32,1.6-0.98,4.14c-2.15,8.2-7.92,26.19-18.34,32.03c0,0-2.37-0.84-5.21-2.62
		c-4.39-2.75-9.89-7.72-9.39-15.24c0,0,8.94-14.85,12.73-25.3c0.35-0.95,0.65-1.87,0.9-2.74l16.62,7.97L168.82,92.08z"/>
	<path class="st3" d="M168.82,92.08c0,0-0.32,1.6-0.98,4.14c-3.9-3.02-16.29-9.2-20.21-11.13c0.35-0.95,0.65-1.87,0.9-2.74
		l16.62,7.97L168.82,92.08z"/>
	<path class="st4" d="M168.82,92.08c0,0-4.7,23.63-15.83,33.64c-1.1-2.04-2.23-3.85-3.35-5.45c8.47-10.1,13.66-24.3,15.51-29.95
		L168.82,92.08z"/>
	<path class="st12" d="M106.05,140.24c-0.31,1.96-0.69,3.3-0.69,3.3l-0.99,11.26l-1.12,10.84l-0.32,3.14
		c-1.89,2.65-8.29,2.89-14.34,2.45v-0.01c-6.35-0.46-12.32-1.68-12.32-1.68s0.16-1.22,0.52-3.31c0.86-5.04,2.89-15.16,6.71-25.54
		c2.68-7.26,6.51-11.27,9.7-13.46c2.85-1.97,5.18-2.48,5.72-2.58c0.08-0.01,0.11-0.01,0.11-0.01
		C107.25,125.41,106.87,135.03,106.05,140.24z"/>
	<path class="st3" d="M103.25,165.64l-0.32,3.14c-1.89,2.65-8.29,2.89-14.34,2.45v-0.01c-6.35-0.46-12.32-1.68-12.32-1.68
		s0.16-1.22,0.52-3.31c2.65,0.7,8.96,1.61,14.57,1.68C97.67,168,101.33,166.5,103.25,165.64z"/>
	<path class="st3" d="M128.57,113.52c0,0,12.98-1.98,21.22,5.35c8.25,7.34,16.43,22.73,11.45,31.96l2.02,13.38
		c0,0,13.57-21.32-0.99-41.98c-9.8-13.9-22.33-14.24-28.66-13.3c-0.69,1.98-2.24,3.47-4.3,4.18L128.57,113.52z"/>
	<path class="st3" d="M97.27,125.12c0,0,3.72-8.49,10.64-7.51c6.93,0.98,27.67,29.16,23.28,49.88
		c-4.39,20.72-22.32,22.93-22.32,22.93s-3.47-5.26,0.43-10.15c0,0,11.78-2.89,14.96-16.38c3.18-13.49-12.85-40.86-18.74-41.7
		c-2.12-0.3-3.71,1.95-3.71,1.95S99.32,124.82,97.27,125.12z"/>
	<path class="st4" d="M172.02,213.7c0,0-35.51,11.56-54.67,6.38c-1.43-0.39-13.09-2.74-13.09-2.74s6.59-24.99,4.75-41.58
		c-0.49-4.4-1.53-13.08-4.63-20.96l-1.44,13.99c-1.89,2.64-8.29,2.89-14.34,2.44l0,0c0,0,9.66-5.14,10.7-16.69
		c0.3-3.36,0.95-6.06,1.71-8.21c1.86-5.23,4.41-7.14,4.41-7.14s0.24,0.38,0.63,1.06c1.88,3.22,7.34,13.14,7.97,21.14
		c0.78,9.68,3.84,30.29,18.78,42.5c8.31,6.79,36.08,5.73,36.53-3.2c0-0.09,0.01-0.18,0.02-0.27
		C170.88,208.37,172.02,213.7,172.02,213.7z"/>
</g>
</svg>
